<?xml version="1.0" encoding="utf-8"?>
<!-- Generator: Adobe Illustrator 26.0.1, SVG Export Plug-In . SVG Version: 6.00 Build 0)  -->
<svg version="1.1" id="Camada_1" xmlns="http://www.w3.org/2000/svg" xmlns:xlink="http://www.w3.org/1999/xlink" x="0px" y="0px"
	 viewBox="0 0 400 300" style="enable-background:new 0 0 400 300;" xml:space="preserve">
<style type="text/css">
	.st0{fill:#3C6F71;}
	.st1{font-family:'Garamond';}
	.st2{font-size:39.7958px;}
	.st3{fill:none;stroke:#3C6F71;stroke-width:2;stroke-miterlimit:10;}
	.st4{fill:none;stroke:#294B64;stroke-width:18;stroke-miterlimit:10;}
	.st5{fill:none;stroke:#3C6F71;stroke-width:18;stroke-miterlimit:10;}
	.st6{fill:none;stroke:#294B64;stroke-width:21;stroke-miterlimit:10;}
	.st7{fill:#FFFFFF;}
</style>
<g id="ADIMO">
	<path class="st0" d="M20.89,221.89c0.48-0.28,0.91-0.41,1.29-0.41h1.19c0.24,0,0.65-0.02,1.24-0.05c2.66-0.24,4.22-0.48,4.71-0.72
		c1.21-0.66,2.24-1.79,3.1-3.42c1.79-3.52,3.81-8.5,6.06-14.96c1.07-3.07,1.74-4.93,2.02-5.59c0.86-2.07,1.69-4.24,2.49-6.52
		l4.87-13.61c0.76-2.14,2.59-7.04,5.49-14.7c0.72-1.93,1.6-4.52,2.64-7.76l1.52-0.1l1.81,0.05c1.48,2.93,2.79,6.09,3.93,9.47
		c0.62,1.79,1.64,4.47,3.05,8.02l7.86,21.27l4.19,11.54c2.21,6.56,3.66,10.58,4.35,12.09c0.69,1.5,1.33,2.49,1.92,2.98
		c0.17,0.14,0.82,0.35,1.94,0.62c1.12,0.28,1.91,0.48,2.35,0.62c1.59,0.45,2.69,0.83,3.31,1.14c0.14,0.38,0.21,0.67,0.21,0.88
		c0,0.17-0.05,0.43-0.16,0.78c-1.1,0.04-1.88,0.05-2.33,0.05c-1.76,0-4.87-0.05-9.32-0.16l-5.18-0.12l-6.26,0.08
		c-0.41,0-0.84-0.02-1.27-0.06c-0.43-0.04-0.8-0.06-1.11-0.06h-1.14c-0.38-0.03-0.72-0.14-1.04-0.31c0-0.48,0.09-0.95,0.26-1.4
		c0.41-0.21,0.79-0.33,1.14-0.36l5.43-0.36c1.41-0.07,2.48-0.26,3.21-0.57c0.21-0.62,0.31-1.09,0.31-1.4c0-0.62-0.45-2.23-1.35-4.82
		c-0.62-1.73-1.16-3.37-1.63-4.93c-0.47-1.56-2.3-6.67-5.5-15.35c-1.42-0.24-2.66-0.36-3.73-0.36l-11.08,0.1l-3.26-0.05
		c-1.17,0-2.47,0.09-3.88,0.26c-0.45,1.04-0.74,1.78-0.88,2.23l-4.56,14.23c-1.93,5.42-2.9,8.4-2.9,8.95c0,0.31,0.16,0.83,0.47,1.55
		c0.72,0.21,1.69,0.4,2.9,0.57l7.04,0.62c0.38,0.31,0.57,0.59,0.57,0.83c0,0.17-0.05,0.43-0.16,0.78c-1.55,0.04-2.74,0.05-3.57,0.05
		c-2.76,0-5.97-0.09-9.63-0.26c-1.69-0.07-2.9-0.1-3.62-0.1s-1.98,0.04-3.78,0.1c-1.17,0.07-2.02,0.1-2.54,0.1
		c-0.83,0-1.9-0.05-3.21-0.16v-0.31C20.68,222.63,20.75,222.3,20.89,221.89z M45.58,190.84c3.69,0.21,7.9,0.31,12.63,0.31
		c2.69,0,5.05-0.09,7.09-0.26c-0.35-1.34-0.74-2.6-1.19-3.78c-2.24-6-3.48-9.31-3.72-9.93l-4.7-11.95l-0.52-0.93
		c-0.21,0.41-0.97,2.19-2.28,5.33c-2.21,5.38-3.8,9.57-4.77,12.57c-0.45,1.35-0.92,2.68-1.4,4.01c-0.48,1.33-0.79,2.26-0.91,2.79
		c-0.12,0.54-0.3,1.08-0.54,1.63L45.58,190.84z"/>
	<path class="st0" d="M94.49,222.56c1.28-0.55,2.76-0.91,4.45-1.09c2.45-0.28,4.28-0.86,5.49-1.76c0.93-1.9,1.4-6.73,1.4-14.5v-8.18
		l0.1-4.92l-0.1-3.63l0.1-6.68l-0.16-16.83c0-1.9-0.28-3.14-0.83-3.73c-0.79-0.86-2.9-1.66-6.31-2.38c-1.42-0.31-2.28-0.6-2.59-0.85
		c-0.31-0.26-0.5-0.75-0.57-1.48c0.79-0.17,1.35-0.26,1.66-0.26h3.67l1.92-0.05c1.28,0,2.69,0.14,4.24,0.41
		c3.17,0.21,6.44,0.31,9.78,0.31c0.97,0,2.35-0.05,4.14-0.16c4.76-0.28,8.18-0.41,10.25-0.41c4.17,0,8.12,0.41,11.83,1.24
		c3.71,0.83,7.53,2.36,11.46,4.61c2.45,1.42,4.96,3.65,7.53,6.7c2.57,3.05,4.52,6.38,5.85,9.99c1.33,3.61,1.99,7.67,1.99,12.19
		c0,4.04-0.73,8.04-2.2,12.01c-1.47,3.97-3.51,7.41-6.13,10.33c-2.62,2.92-5.28,5.11-7.97,6.57s-6.8,2.73-12.32,3.8
		c-2.28,0.41-6.37,0.62-12.27,0.62c-3.9,0-7.07-0.12-9.52-0.36c-0.97-0.14-2-0.21-3.11-0.21c-0.17,0-0.36,0.02-0.57,0.05
		l-21.12,0.41l-0.1-0.41c-0.07-0.17-0.1-0.36-0.1-0.57L94.49,222.56z M120.83,220.49c2.62,0.9,5.28,1.35,7.97,1.35
		c3.48,0,6.9-0.54,10.25-1.63c3.35-1.09,6.31-2.62,8.88-4.61c2.57-1.98,4.68-4.23,6.34-6.73c1.66-2.5,2.83-4.75,3.52-6.75
		c0.97-2.93,1.45-6.75,1.45-11.44c0-4.49-0.95-9.04-2.85-13.66c-1.31-3.21-3.61-6.28-6.91-9.21c-3.3-2.93-7.19-5.08-11.67-6.44
		c-4.49-1.36-9.33-2.04-14.54-2.04c-3.59,0-6.25,0.4-7.97,1.19c-0.21,0.21-0.41,0.45-0.62,0.72c-0.21,0.86-0.31,1.66-0.31,2.38
		c0,0.45,0.02,0.98,0.05,1.6c0.1,4,0.16,7.21,0.16,9.63l-0.05,11.75c0,17.25,0.32,26.85,0.96,28.8
		C116.11,217.34,117.9,219.04,120.83,220.49z"/>
	<path class="st0" d="M177.19,221.89c0.76-0.31,1.54-0.5,2.33-0.57c5.28-0.35,8.3-0.98,9.06-1.89c0.76-0.92,1.14-5.34,1.14-13.29
		l-0.05-5.44v-5.7l-0.21-6.27l0.1-3.68l-0.05-4.04v-4.77l-0.1-2.12l0.1-2.69c0.03-0.62,0.05-1.35,0.05-2.18
		c0-2.18-0.1-4.47-0.31-6.89c-0.14-0.48-0.33-0.95-0.57-1.4c-1.28-0.66-3.34-1.1-6.19-1.32c-2.85-0.22-4.46-0.47-4.84-0.75
		c-0.28-0.21-0.43-0.74-0.47-1.6h4.35l13.74,0.31c3.52,0,8.22-0.1,14.1-0.31c0,0.55-0.04,1.07-0.1,1.55
		c-0.69,0.17-1.85,0.36-3.47,0.57c-3.28,0.38-5.28,0.74-6,1.09c-0.45,0.17-0.78,0.47-0.98,0.88c-0.35,0.62-0.55,1.78-0.62,3.47
		l-0.26,6.68l0.21,23.05v9.12c-0.07,2.87-0.1,4.82-0.1,5.85c0,3.87,0.09,6.34,0.28,7.41c0.19,1.07,0.52,1.84,0.98,2.3
		c0.47,0.47,1.23,0.84,2.3,1.11c1.59,0.38,2.83,0.59,3.73,0.62c1.93,0.07,3.16,0.35,3.67,0.83c0.1,0.45,0.16,0.83,0.16,1.14v0.41
		c-3.14,0.1-5.46,0.16-6.95,0.16c-0.86,0-2.4-0.05-4.61-0.16l-7.15,0.1l-12.18-0.05h-0.98L177.19,221.89z"/>
	<path class="st0" d="M213.22,222.3c1.07-0.72,3-1.24,5.8-1.55c2.17-0.1,3.47-0.29,3.88-0.57c0.28-0.21,0.48-0.46,0.62-0.77
		c0.52-1.27,0.9-4.72,1.14-10.36c0.32-7.35,0.83-17.13,1.53-29.35c0.56-9.32,0.84-15.13,0.84-17.44v-1.35
		c-2.49-0.52-6.44-1.07-11.84-1.66c-0.35-0.52-0.52-0.91-0.52-1.19c0-0.17,0.12-0.48,0.36-0.93c0.59-0.21,1.03-0.31,1.34-0.31
		c0.27,0,0.88,0.07,1.81,0.21c1.69,0.24,4.01,0.36,6.97,0.36c0.96,0,2.62-0.08,4.96-0.24c1.65-0.12,2.58-0.18,2.79-0.18
		c0.55,0,1.19,0.1,1.91,0.31c0.35,0.35,0.62,0.68,0.8,1l2.17,4.86l14.65,32.4l6.11,13.6c4.78-9.49,8.49-17.92,11.14-25.31
		c0.17-0.55,0.38-1.05,0.62-1.5c0.31-0.59,0.6-1.24,0.88-1.97c0.28-0.72,1.39-3.48,3.35-8.28c0.79-1.93,1.43-3.59,1.91-4.97
		c1.96-5.52,3.11-8.68,3.46-9.47c0.66-0.28,1.23-0.41,1.71-0.41c0.55,0,1.26,0.05,2.13,0.16c1.94,0.1,5.09,0.16,9.45,0.16
		c2.7,0,4.91-0.03,6.64-0.1c0.07,0.38,0.1,0.66,0.1,0.83c0,0.24-0.05,0.57-0.16,0.98c-1.1,0.59-2.43,0.92-3.99,0.98
		c-3.07,0.17-5.02,0.41-5.85,0.72s-1.35,0.71-1.58,1.19c-0.23,0.48-0.42,2.07-0.6,4.76l0.05,2.38l-0.05,2.48
		c0,5.18,0.14,13.87,0.41,26.09l-0.05,10.14l0.05,6.52c0,2.55,0.12,4.06,0.36,4.53c0.24,0.46,0.93,0.91,2.07,1.32
		c1.86,0.62,4.9,1.26,9.11,1.92c0.24,0.17,0.36,0.4,0.36,0.67c0,0.31-0.02,0.66-0.05,1.04h-2.38c-2.04,0-4.25-0.06-6.64-0.18
		c-2.38-0.12-3.66-0.18-3.84-0.18c-7.09,0-11.79,0.08-14.1,0.24c-1.42,0.12-2.32,0.18-2.7,0.18c-0.24,0-0.5-0.07-0.78-0.21v-0.67
		c0-0.31,0.05-0.64,0.16-0.98c1.14-0.48,2.69-0.81,4.66-0.98c2.17-0.59,3.76-1.21,4.76-1.86c0.31-1.31,0.47-3.99,0.47-8.03
		l-0.16-10.46c0-1.14,0.06-3.26,0.18-6.37c0.12-3.11,0.18-8.17,0.18-15.18c0-5.56-0.14-9.77-0.41-12.64
		c-0.58,1.21-1.74,3.83-3.45,7.87l-0.77,1.97l-0.1,0.31l-7.63,18.12l-2.73,6.99l-3.56,8.49c-1.55,3.9-2.87,7.35-3.97,10.35
		c-0.48,1.38-0.88,2.47-1.19,3.26l-1.21-0.05c-3.9-11.39-8.56-23.07-13.96-35.04c-5.41-11.97-9.2-19.88-11.37-23.71
		c-0.29,1.48-0.6,5.8-0.96,12.94c-0.46,8.7-0.69,18.27-0.69,28.73c0,3.27,0.24,6.95,0.72,11.04c0.14,1.17,0.64,2.04,1.5,2.6
		c0.86,0.57,3.09,0.89,6.68,0.95c1.38,0,2.69,0.1,3.93,0.31c0.24,0.53,0.36,0.92,0.36,1.17c0,0.18-0.09,0.48-0.26,0.9l-16.07-0.57
		c-1.17,0-3,0.08-5.48,0.23c-1.38,0.09-3.36,0.15-5.94,0.18L213.22,222.3z"/>
	<path class="st0" d="M305.71,190.47c0-3.52,0.42-6.65,1.27-9.39c0.85-2.74,2.27-5.72,4.27-8.93c2-3.21,4.42-5.89,7.25-8.05
		c2.83-2.16,6.75-4.06,11.75-5.72c3.52-1.14,7.97-1.71,13.35-1.71c3.62,0,7.17,0.48,10.64,1.45c3.47,0.97,6.62,2.31,9.45,4.04
		c2.83,1.73,5.66,4.38,8.49,7.97c1.97,2.48,3.45,5.16,4.45,8.02c1.31,3.76,1.97,7.64,1.97,11.65c0,4.55-0.44,8.33-1.32,11.33
		c-0.88,3-2.35,5.97-4.42,8.9c-1.62,2.28-4.4,4.9-8.33,7.87c-2.62,2-5.88,3.62-9.78,4.84c-3.9,1.22-8.11,1.84-12.63,1.84
		c-4.59,0-8.68-0.54-12.27-1.6c-3.59-1.07-6.58-2.37-8.98-3.91s-4.87-3.8-7.4-6.81c-2.54-3-4.46-6.31-5.77-9.94
		C306.36,198.7,305.71,194.75,305.71,190.47z M341.63,222.67c2.9,0,5.91-0.41,9.03-1.22s5.89-2.16,8.31-4.04
		c2.42-1.88,4.3-4.02,5.67-6.42s2.46-5.48,3.29-9.24c0.83-3.76,1.24-7.52,1.24-11.28c0-4.69-0.69-9.33-2.07-13.92
		c-1.07-3.48-2.81-6.6-5.23-9.34c-2.42-2.74-5.33-4.87-8.75-6.37c-3.42-1.5-7.06-2.25-10.92-2.25c-3.14,0-6.21,0.52-9.21,1.55
		s-5.47,2.35-7.4,3.96c-1.93,1.6-3.73,3.88-5.38,6.83c-1.66,2.95-2.92,6.2-3.78,9.76c-0.86,3.55-1.29,6.69-1.29,9.42
		c0,2.86,0.43,6.11,1.29,9.73c0.86,3.62,2.04,6.76,3.55,9.42c1.5,2.66,3.35,5.01,5.54,7.06c2.19,2.05,4.65,3.62,7.38,4.71
		C335.61,222.12,338.52,222.67,341.63,222.67z"/>
</g>
<text transform="matrix(1 0 0 1 114.134 263.6204)" class="st0 st1 st2">IMÓVEIS</text>
<line class="st3" x1="364.94" y1="250.13" x2="285.34" y2="250.13"/>
<line class="st3" x1="110.69" y1="250.13" x2="31.09" y2="250.13"/>
<polyline id="teto-sup" class="st4" points="80.54,138.9 198.53,22.8 317,138.95 "/>
<polyline id="teto-sup_1_" class="st5" points="130.66,142.71 199.8,73.44 269.73,143.26 "/>
<line class="st6" x1="244.04" y1="31.01" x2="244.04" y2="66.01"/>
<rect x="56.54" y="133.51" class="st7" width="286" height="19"/>
</svg>
