<svg xmlns="http://www.w3.org/2000/svg" viewBox="0 0 390.64 279.11">
    <defs>
        <style>.cls-1,.cls-2{fill:#3941a0;}.cls-2{font-size:43.44px;font-family:Garamond;}.cls-3,.cls-4{fill:none;}.cls-3{stroke:#fff;stroke-width:2px;}.cls-3,.cls-4,.cls-6{stroke-miterlimit:10;}.cls-4,.cls-6{stroke:#3941a0;}.cls-4{stroke-width:21px;}.cls-5,.cls-6{fill:#3941a0;}.cls-6{stroke-width:6px;}</style>
    </defs>
    <g id="Camada_1" data-name="Camada 1">
        <g id="ADIMO">
            <path class="cls-1" d="M5.06,231.32a2.88,2.88,0,0,1,1.41-.45h1.3q.39,0,1.35-.06a22.27,22.27,0,0,0,5.14-.79,8.71,8.71,0,0,0,3.39-3.73A136,136,0,0,0,24.26,210c1.17-3.36,1.9-5.39,2.2-6.11q1.41-3.39,2.72-7.11l5.31-14.86q1.24-3.51,6-16,1.19-3.16,2.88-8.48l1.66-.11,2,.06a78.79,78.79,0,0,1,4.28,10.33q1,2.94,3.33,8.76l8.58,23.22,4.57,12.59q3.61,10.74,4.75,13.2a9.47,9.47,0,0,0,2.09,3.24,7.77,7.77,0,0,0,2.12.68c1.22.3,2.08.53,2.57.68a23.39,23.39,0,0,1,3.61,1.24,3.19,3.19,0,0,1,.23,1,3.45,3.45,0,0,1-.17.85c-1.21,0-2.06.06-2.54.06-1.93,0-5.31-.06-10.17-.17l-5.65-.13-6.84.08q-.67,0-1.38-.06c-.47,0-.88-.06-1.22-.06H53.92a2.86,2.86,0,0,1-1.13-.34,4.19,4.19,0,0,1,.28-1.53,3.87,3.87,0,0,1,1.25-.39l5.93-.4a10.47,10.47,0,0,0,3.5-.62,5.64,5.64,0,0,0,.34-1.53,24.52,24.52,0,0,0-1.47-5.26q-1-2.83-1.78-5.38t-6-16.75a23.88,23.88,0,0,0-4.06-.4l-12.09.12-3.56-.06a34.85,34.85,0,0,0-4.24.28q-.73,1.69-1,2.43l-5,15.54q-3.17,8.87-3.16,9.77a5.09,5.09,0,0,0,.51,1.69,22.58,22.58,0,0,0,3.16.62l7.68.68c.42.34.62.64.62.91a3,3,0,0,1-.17.84c-1.69,0-3,.06-3.89.06q-4.53,0-10.51-.28c-1.85-.08-3.16-.12-4-.12s-2.16,0-4.12.12c-1.28.07-2.2.11-2.77.11-.9,0-2.07-.06-3.5-.17v-.34A3.68,3.68,0,0,1,5.06,231.32Zm27-33.9q6,.35,13.79.34,4.39,0,7.74-.28a38.39,38.39,0,0,0-1.3-4.12q-3.68-9.83-4.06-10.84L43,169.47l-.56-1q-.34.67-2.49,5.81-3.63,8.82-5.21,13.72c-.49,1.47-1,2.93-1.52,4.38a29.15,29.15,0,0,0-1,3,10.09,10.09,0,0,1-.6,1.78Z" transform="translate(-4.83 -11.07)" />
            <path class="cls-1" d="M85.39,232.05a16.51,16.51,0,0,1,4.85-1.18,12.4,12.4,0,0,0,6-1.93q1.53-3.1,1.53-15.83v-8.93l.11-5.37-.11-4,.11-7.29-.17-18.38c0-2.07-.3-3.43-.9-4.07-.87-.94-3.17-1.8-6.89-2.6a8.5,8.5,0,0,1-2.83-.93,2.35,2.35,0,0,1-.62-1.61,10,10,0,0,1,1.81-.28h4l2.09-.06a26.73,26.73,0,0,1,4.63.45c3.47.23,7,.34,10.68.34,1,0,2.56,0,4.52-.17q7.78-.45,11.18-.45a58.76,58.76,0,0,1,12.91,1.36,45.37,45.37,0,0,1,12.51,5A32.31,32.31,0,0,1,159,173.5a36.31,36.31,0,0,1,6.39,10.9,38.31,38.31,0,0,1,2.17,13.31,37.56,37.56,0,0,1-2.4,13.1,34.57,34.57,0,0,1-6.69,11.27,33.64,33.64,0,0,1-8.7,7.18q-4.41,2.4-13.45,4.15a87.82,87.82,0,0,1-13.39.68c-4.25,0-7.72-.14-10.39-.4a24.24,24.24,0,0,0-3.39-.22,3.44,3.44,0,0,0-.62.05l-23,.45-.11-.45a1.56,1.56,0,0,1-.12-.62Zm28.75-2.26a26.67,26.67,0,0,0,8.7,1.47A36,36,0,0,0,134,229.48a31.45,31.45,0,0,0,9.68-5,30.33,30.33,0,0,0,6.92-7.34,34,34,0,0,0,3.85-7.37,40.93,40.93,0,0,0,1.58-12.49A39.13,39.13,0,0,0,153,182.34a27.83,27.83,0,0,0-7.54-10.05,33.48,33.48,0,0,0-12.74-7A54.3,54.3,0,0,0,116.8,163q-5.88,0-8.7,1.3a6.8,6.8,0,0,0-.68.79,11,11,0,0,0-.34,2.6c0,.49,0,1.07.06,1.75q.17,6.56.17,10.51l-.06,12.82q0,28.25,1,31.44T114.14,229.79Z" transform="translate(-4.83 -11.07)" />
            <path class="cls-1" d="M175.66,231.32a8.51,8.51,0,0,1,2.54-.62q8.64-.57,9.89-2.07t1.24-14.5l-.06-5.93V202l-.22-6.84.11-4-.06-4.41v-5.2l-.11-2.32.11-2.94q.06-1,.06-2.37c0-2.38-.11-4.88-.34-7.52a7.79,7.79,0,0,0-.62-1.53,18.77,18.77,0,0,0-6.75-1.44q-4.66-.37-5.28-.82c-.3-.23-.47-.81-.51-1.75h4.75l15,.34q5.76,0,15.39-.34a11.2,11.2,0,0,1-.12,1.69,34.71,34.71,0,0,1-3.78.62c-3.58.42-5.76.81-6.55,1.19a2,2,0,0,0-1.08,1,9.54,9.54,0,0,0-.67,3.79l-.29,7.29.23,25.16v9.95c-.08,3.13-.11,5.26-.11,6.39a61.55,61.55,0,0,0,.31,8.09,4.55,4.55,0,0,0,1.07,2.51,5.48,5.48,0,0,0,2.51,1.22,23.21,23.21,0,0,0,4.07.68c2.11.07,3.45.38,4,.9a5.34,5.34,0,0,1,.17,1.25V233q-5.15.16-7.58.17c-.94,0-2.62-.06-5-.17l-7.8.11-13.3-.06h-1.08Z" transform="translate(-4.83 -11.07)" />
            <path class="cls-1" d="M215,231.77c1.17-.79,3.27-1.35,6.32-1.69,2.38-.11,3.79-.32,4.24-.62a2.09,2.09,0,0,0,.68-.85q.84-2.07,1.24-11.3.53-12,1.67-32,.93-15.25.92-19v-1.47q-4.08-.84-12.92-1.81a2.65,2.65,0,0,1-.57-1.3,2.8,2.8,0,0,1,.39-1,4.74,4.74,0,0,1,1.47-.34,15.86,15.86,0,0,1,2,.23,57.5,57.5,0,0,0,7.61.39c1.05,0,2.86-.08,5.41-.26,1.81-.13,2.82-.19,3.05-.19a7.47,7.47,0,0,1,2.08.34,5.07,5.07,0,0,1,.88,1.09l2.36,5.3,16,35.37,6.67,14.84a251.39,251.39,0,0,0,12.15-27.62,9.85,9.85,0,0,1,.68-1.64,17.31,17.31,0,0,0,1-2.15c.31-.79,1.52-3.8,3.66-9,.87-2.1,1.56-3.91,2.09-5.42q3.19-9,3.77-10.34a5,5,0,0,1,1.87-.45,21.17,21.17,0,0,1,2.32.17q3.17.16,10.31.17,4.41,0,7.25-.11a6.19,6.19,0,0,1,.11.9,4.79,4.79,0,0,1-.17,1.07,10.18,10.18,0,0,1-4.35,1.08,28.29,28.29,0,0,0-6.38.79,2.84,2.84,0,0,0-1.72,1.3,22,22,0,0,0-.65,5.2l.05,2.59-.05,2.72q0,8.46.45,28.47l-.06,11.07.06,7.12c0,2.78.13,4.43.39,4.94a4.1,4.1,0,0,0,2.26,1.44,67.07,67.07,0,0,0,9.95,2.09.87.87,0,0,1,.39.74c0,.33,0,.71-.06,1.13h-2.6c-2.22,0-4.64-.07-7.24-.2s-4-.2-4.19-.2q-11.6,0-15.39.26c-1.55.13-2.53.19-2.94.19a1.89,1.89,0,0,1-.85-.22v-.74a3.5,3.5,0,0,1,.17-1.07,17.09,17.09,0,0,1,5.08-1.08,19.2,19.2,0,0,0,5.2-2,47.11,47.11,0,0,0,.51-8.77l-.17-11.42c0-1.24.06-3.56.2-7s.19-8.92.19-16.57q0-9.1-.45-13.8-1,2-3.77,8.59l-.84,2.15-.12.33-8.32,19.78-3,7.62-3.88,9.27q-2.54,6.38-4.34,11.3c-.52,1.5-1,2.69-1.29,3.56l-1.32-.06q-6.39-18.65-15.24-38.25t-12.41-25.87q-.47,2.43-1.05,14.12-.75,14.23-.76,31.36a105.24,105.24,0,0,0,.79,12,3.77,3.77,0,0,0,1.64,2.85c.94.62,3.37,1,7.29,1a25.55,25.55,0,0,1,4.29.34,2.06,2.06,0,0,1,.12,2.26l-17.54-.63c-1.28,0-3.27.09-6,.25-1.5.11-3.67.17-6.49.21Z" transform="translate(-4.83 -11.07)" />
            <path class="cls-1" d="M315.93,197a34.88,34.88,0,0,1,1.38-10.25A42.23,42.23,0,0,1,322,177a32.63,32.63,0,0,1,7.91-8.78A44,44,0,0,1,342.71,162a48.16,48.16,0,0,1,14.57-1.86,43.29,43.29,0,0,1,11.61,1.58,41.06,41.06,0,0,1,10.31,4.41,36.23,36.23,0,0,1,9.26,8.7,29.87,29.87,0,0,1,4.86,8.75,38.43,38.43,0,0,1,2.15,12.71A44.84,44.84,0,0,1,394,208.67a33,33,0,0,1-4.83,9.71q-2.65,3.74-9.1,8.59a34.65,34.65,0,0,1-10.67,5.28,45.74,45.74,0,0,1-13.79,2,47.18,47.18,0,0,1-13.39-1.75,38.76,38.76,0,0,1-9.8-4.27,37,37,0,0,1-8.08-7.43,35.41,35.41,0,0,1-6.3-10.84A37.82,37.82,0,0,1,315.93,197Zm39.2,35.14a39.41,39.41,0,0,0,9.86-1.33,24.67,24.67,0,0,0,9.07-4.41,23.67,23.67,0,0,0,6.18-7,36.17,36.17,0,0,0,3.59-10.09A57.32,57.32,0,0,0,385.19,197a52.76,52.76,0,0,0-2.26-15.2,27.41,27.41,0,0,0-5.71-10.19,27,27,0,0,0-9.55-6.95,29.24,29.24,0,0,0-11.92-2.46,30.65,30.65,0,0,0-10.05,1.69,25.4,25.4,0,0,0-8.08,4.33,26.07,26.07,0,0,0-5.87,7.45,41.61,41.61,0,0,0-4.13,10.65,44.34,44.34,0,0,0-1.41,10.28,46.39,46.39,0,0,0,1.41,10.62,39.27,39.27,0,0,0,3.87,10.29,32,32,0,0,0,6.05,7.71,25.24,25.24,0,0,0,17.59,6.92Z" transform="translate(-4.83 -11.07)" />
        </g>
        <text class="cls-2" transform="translate(102 265.8)">IMÓVEIS</text>
        <line class="cls-3" x1="375.74" y1="251.08" x2="288.87" y2="251.08" />
        <line class="cls-3" x1="98.24" y1="251.08" x2="11.37" y2="251.08" />
        <line class="cls-4" x1="243.79" y1="22.82" x2="243.79" y2="61.02" />
        <polygon class="cls-5" points="94.16 125.92 194.13 27.54 294.46 125.92 322.52 125.92 194.11 0 66.15 125.92 94.16 125.92" />
        <polygon class="cls-6" points="135.64 122.86 194.22 65.22 253 122.86 269.44 122.86 194.2 49.08 119.23 122.86 135.64 122.86" />
    </g>
</svg>