<svg class="animated" id="freepik_stories-scaffold" xmlns="http://www.w3.org/2000/svg" viewBox="0 0 500 500" version="1.1" xmlns:xlink="http://www.w3.org/1999/xlink" xmlns:svgjs="http://svgjs.com/svgjs"><style>svg#freepik_stories-scaffold:not(.animated) .animable {opacity: 0;}svg#freepik_stories-scaffold.animated #freepik--Character--inject-9 {animation: 3s Infinite  linear floating;animation-delay: 1s;}            @keyframes floating {                0% {                    opacity: 1;                    transform: translateY(0px);                }                50% {                    transform: translateY(-10px);                }                100% {                    opacity: 1;                    transform: translateY(0px);                }            }        </style><g id="freepik--City--inject-9" class="animable" style="transform-origin: 253.45px 202.585px;"><path id="freepik--city--inject-9" d="M472.52,107.88,443.88,91.33,418.46,106h0v24.41l-12.7-7.33V103.55h0l-12.69-7.31h0V62.15h0l-14.88-8.59L355,40.17h0l-16.93,9.77v39l-2.2-1.28-14.72-8.5-16.93,9.78h0v45.69l-16.92-9.77V100.38h0l-4.67-2.7L270.38,90.6l-21.16,12.22h0v48.86l-21.15-12.22V61.29h0l-13.72-7.92-11.67-6.74h0L178.79,60.42l-5.73,3.31v8.7h0l-12.69,7.33h0V98.5l-16.92,9.77v-38h0l-2.92-1.68L122.28,58.05h0L96.88,72.71h0V102h0L84.2,109.35h0V118l-16.93,9.78V55.4h0L41.89,40.73l-12.7,7.32h0V365H477.71V110.88Z" style="fill: rgb(240, 240, 240); transform-origin: 253.45px 202.585px;" class="animable"></path></g><g id="freepik--Floor--inject-9" class="animable" style="transform-origin: 253.556px 361.29px;"><path d="M410.47,267.49c-89.73-51.81-235.21-51.81-324.94,0-26.64,15.37-45.36,33.59-56.19,52.95v81.7c10.83,19.37,29.55,37.58,56.19,52.95,89.73,51.81,235.21,51.81,324.94,0S500.21,319.29,410.47,267.49Z" style="fill: rgb(250, 250, 250); transform-origin: 253.556px 361.29px;" id="eli3eukw2xvi" class="animable"></path></g><g id="freepik--Clouds--inject-9" class="animable" style="transform-origin: 274.216px 36.8979px;"><path id="freepik--Cloud--inject-9" d="M142.54,35.83a2,2,0,0,0,2.09-1.12c1-2.11,3.73-3.51,6.75-3.8,3.73-.35,6.55,1,7.46,3.46a1.86,1.86,0,0,0,2,1.17c1.7-.25,3.22.23,3.82,1.54a1.92,1.92,0,0,0,2,1,9.41,9.41,0,0,1,2.88.07,4,4,0,0,1,2.55,2.17v0a2,2,0,0,0,2,1.24c1.82-.22,4.06-.09,4.76,1,1.44,2.33-3.11,2.77-5.47,2.37a1.91,1.91,0,0,0-1.56.44c-1.47,1.24-5.91,1.44-8.13.39a1.85,1.85,0,0,0-1.78.05,9.68,9.68,0,0,1-4.73,1.16,13.76,13.76,0,0,1-7.74-1.95,1.94,1.94,0,0,0-1.91.1,8.77,8.77,0,0,1-9.53-.16,2,2,0,0,0-1.78-.34,7,7,0,0,1-3.39,0,3.39,3.39,0,0,1-.75-.26,1.91,1.91,0,0,0-1.43-.1c-.32.1-.66.17-1,.25-2,.42-5.82,0-4.24-1.86a4.45,4.45,0,0,1,2.56-.87,1.88,1.88,0,0,0,1.28-.63,5.88,5.88,0,0,1,4.48-1.81,2,2,0,0,0,2-1,5.72,5.72,0,0,1,4.3-2.62A8.81,8.81,0,0,1,142.54,35.83Z" style="fill: rgb(235, 235, 235); transform-origin: 152.081px 38.9204px;" class="animable"></path><path id="freepik--cloud--inject-9" d="M85,30.36c0-2.25,2.48-3.83,5.28-4.09C93.62,26,96,27.43,96,30c2.16-.88,4.44-.31,4.27,2.06.56-.65,2.66-.63,3.42-.45a2.93,2.93,0,0,1,1.88,1.61,2.11,2.11,0,0,1,.2,1.21c1.26-.41,4.12-.66,4.84.49,1.27,2.06-3.82,2.13-4.85,1.5-.22,1.6-5.69,1.87-7,.39-1,1-2.52,1.27-4.13,1.37-2.71.16-4.37-.76-6.48-1.84-2.3,2-6.28,2-8.35-.24a4,4,0,0,1-3.15.37c-.76-.18-.94-.51-.94-.51a7,7,0,0,1-1.4.43c-1.51.31-4.3,0-3.13-1.37a3.49,3.49,0,0,1,2.48-.61c.66-1.29,3.29-2.51,4.8-1.43.06-1.56,1.48-2.78,3.49-3.09A4.61,4.61,0,0,1,85,30.36Z" style="fill: rgb(235, 235, 235); transform-origin: 90.8564px 32.2179px;" class="animable"></path><path id="freepik--cloud--inject-9" d="M451.71,39.75c0-2.26,2.48-3.83,5.28-4.1,3.31-.31,5.65,1.16,5.73,3.77,2.16-.89,4.44-.32,4.27,2,.56-.64,2.66-.63,3.42-.45a3,3,0,0,1,1.88,1.61,2.13,2.13,0,0,1,.2,1.22c1.26-.42,4.12-.67,4.84.49,1.27,2-3.82,2.12-4.85,1.5-.22,1.6-5.69,1.86-7,.38-1,1.05-2.52,1.28-4.13,1.37-2.71.16-4.37-.76-6.48-1.83-2.3,1.94-6.28,2-8.35-.25a4,4,0,0,1-3.15.37c-.76-.18-.94-.5-.94-.5a7,7,0,0,1-1.4.42c-1.51.31-4.3,0-3.13-1.37a3.54,3.54,0,0,1,2.48-.61c.66-1.29,3.29-2.51,4.8-1.42.06-1.56,1.48-2.79,3.49-3.1A4.56,4.56,0,0,1,451.71,39.75Z" style="fill: rgb(235, 235, 235); transform-origin: 457.576px 41.5836px;" class="animable"></path></g><g id="freepik--Shadows--inject-9" class="animable" style="transform-origin: 252.819px 382.321px;"><polygon id="freepik--Shadow--inject-9" points="239.72 471.91 401.73 378.37 304.54 322.26 142.74 416.02 239.72 471.91" style="fill: rgb(224, 224, 224); transform-origin: 272.235px 397.085px;" class="animable"></polygon><ellipse id="freepik--shadow--inject-9" cx="115.28" cy="443.26" rx="19.35" ry="11.17" style="fill: rgb(224, 224, 224); transform-origin: 115.28px 443.26px;" class="animable"></ellipse><path id="freepik--shadow--inject-9" d="M377.75,333.13c17,9.83,44.61,9.83,61.63,0s17-25.76,0-35.58-44.61-9.83-61.63,0S360.73,323.3,377.75,333.13Z" style="fill: rgb(224, 224, 224); transform-origin: 408.561px 315.342px;" class="animable"></path><ellipse id="freepik--shadow--inject-9" cx="72.85" cy="463.29" rx="19.35" ry="11.17" style="fill: rgb(224, 224, 224); transform-origin: 72.85px 463.29px;" class="animable"></ellipse><path id="freepik--shadow--inject-9" d="M141.61,455.74l7.74-4.49a9.33,9.33,0,0,1,8.47,0l2.69,1.56L170.6,447a3.6,3.6,0,0,1,3.29,0l.07,0a1,1,0,0,1,0,1.9l-10.08,5.82.56.32c2.34,1.35,2.34,3.55,0,4.9l-7.75,4.49L145.38,471l-15.09-8.71Z" style="fill: rgb(224, 224, 224); transform-origin: 152.469px 458.801px;" class="animable"></path></g><g id="freepik--Tree--inject-9" class="animable" style="transform-origin: 401.605px 177.041px;"><g id="freepik--tree--inject-9" class="animable" style="transform-origin: 401.605px 177.041px;"><path d="M417.24,152.74c1,7.74-8.44,14.19-16.62,12.7.49,4.66-6.06,7.34-8.69,5,2.63,3.44,6.93,14.3,0,20.21s-15.85,2.53-15.85,2.53-3.26,8.09-15.57,5.91-14.83-14.71-13.39-19.18c-8.07,4.66-24.49,1.09-31.85-9.77s-6.75-24.35-.48-30.51c-4.28-4-2.91-10.46-.37-13.48a7.87,7.87,0,0,1,6.16-2.74s-3.47-4,.61-6.71c-5.8-3.38-8.45-15.45.84-24.49s23.19-5.44,23.19-5.44a19.68,19.68,0,0,1,3.3-16.88c5.28-6.83,14.05-6.15,14.05-6.15s-.38-6.41,5.9-6.74c-3.64-6.6-.19-15,4.6-18.61,8.89-6.8,31.54-8.61,31.41,8.33,9.21-7.07,23,2.49,20.82,12,7.6-6.61,19.87,2.33,17,11.46,11-3.13,22.47,9.94,16.33,22.08,4.28-2.47,14-.69,13.71,7.48A10.66,10.66,0,0,1,485.62,107c1.57,5.79-.89,10.23-5.23,13.13,4.13-.61,6.67,6.3,3.9,8.32,8.09,0,13.57,16.93,3.7,22.52,5.67,4,8.52,28.17-8.85,37.94s-42.34,3.85-43.62-12c-7.36-1.81-10.46-9.73-5.52-14.08C425.18,164.79,417.7,158.76,417.24,152.74Z" style="fill: rgb(116, 92, 219); transform-origin: 401.605px 116.471px;" id="elswmczk01v0l" class="animable"></path><g id="el9n80ybednl7"><path d="M417.24,152.74c1,7.74-8.44,14.19-16.62,12.7.49,4.66-6.06,7.34-8.69,5,2.63,3.44,6.93,14.3,0,20.21s-15.85,2.53-15.85,2.53-3.26,8.09-15.57,5.91-14.83-14.71-13.39-19.18c-8.07,4.66-24.49,1.09-31.85-9.77s-6.75-24.35-.48-30.51c-4.28-4-2.91-10.46-.37-13.48a7.87,7.87,0,0,1,6.16-2.74s-3.47-4,.61-6.71c-5.8-3.38-8.45-15.45.84-24.49s23.19-5.44,23.19-5.44a19.68,19.68,0,0,1,3.3-16.88c5.28-6.83,14.05-6.15,14.05-6.15s-.38-6.41,5.9-6.74c-3.64-6.6-.19-15,4.6-18.61,8.89-6.8,31.54-8.61,31.41,8.33,9.21-7.07,23,2.49,20.82,12,7.6-6.61,19.87,2.33,17,11.46,11-3.13,22.47,9.94,16.33,22.08,4.28-2.47,14-.69,13.71,7.48A10.66,10.66,0,0,1,485.62,107c1.57,5.79-.89,10.23-5.23,13.13,4.13-.61,6.67,6.3,3.9,8.32,8.09,0,13.57,16.93,3.7,22.52,5.67,4,8.52,28.17-8.85,37.94s-42.34,3.85-43.62-12c-7.36-1.81-10.46-9.73-5.52-14.08C425.18,164.79,417.7,158.76,417.24,152.74Z" style="fill: rgb(255, 255, 255); opacity: 0.2; transform-origin: 401.605px 116.471px;" class="animable"></path></g><path d="M479.14,188.94c17.37-9.77,14.52-34,8.85-37.94,9.87-5.59,4.39-22.52-3.7-22.52,2.77-2,.23-8.93-3.9-8.32,4.34-2.9,6.8-7.34,5.23-13.13a10.56,10.56,0,0,0-5.12-6.48c3.53,5.68,2.09,15.59-7.38,17.62a12.5,12.5,0,0,1-12.51-4.09s-2,3.46-10.88,2.35a13.07,13.07,0,0,1-11-16.92c4.18-7.06-2.35-15.68-10.79-14.37.41,17.76-15,23.14-29.45,16.2,7.05,17.77-8.37,26.39-16.21,18.55-2.61,6.53-11.23,5.75-15.15,1.83-3.92,4.18-16.2,0-16.2-9.93-7.32,9.15-20.39,6.53-21.43-3.14C324,116,317,111.86,316.26,109c.73,3.48,2.56,6.3,4.93,7.68-4.08,2.71-.61,6.71-.61,6.71a7.9,7.9,0,0,0-6.17,2.74c-2.53,3-3.9,9.44.38,13.48-6.27,6.16-6.88,19.65.48,30.51s23.78,14.43,31.85,9.77c-1.44,4.47,1.09,17,13.39,19.18s15.57-5.91,15.57-5.91,8.92,3.38,15.85-2.53,2.63-16.77,0-20.21c2.63,2.38,9.18-.3,8.69-5,8.18,1.49,17.61-5,16.62-12.7.46,6,7.94,12,12.76,10.12-4.94,4.35-1.84,12.27,5.52,14.08C436.8,192.79,461.76,198.71,479.14,188.94Z" style="fill: rgb(116, 92, 219); transform-origin: 401.605px 142.225px;" id="els6t30vwog19" class="animable"></path><g id="elck6cxcll20r"><path d="M382.51,138.76s-15.61,4.63-19.94-6.55c-7.95,4.59-22.82,3.47-27.83-6.55-8.48,0-13.55-9-13.55-9-4.08,2.71-.61,6.71-.61,6.71a7.9,7.9,0,0,0-6.17,2.74c-2.53,3-3.9,9.44.38,13.48A13.35,13.35,0,0,0,313,141.8c-2.6,6.8,6.34,12,11.9,8.71-2.12,6.94,5.78,27.74,27.74,19.07,13.1,8.28,26.39-1.73,24.66-20C383.83,149.55,386.94,142.42,382.51,138.76Z" style="fill: rgb(255, 255, 255); opacity: 0.2; transform-origin: 348.307px 144.59px;" class="animable"></path></g><g id="elrtnfeohk44"><path d="M465.53,157.25a20.12,20.12,0,0,0,4.81-16.37s-6.6,9.59-20.42,3.71-6.35-19.5-6.35-19.5-10.6.86-8.67-8.43c-3.42,1.71-8.67-.24-8.67-7-1.52,11.67-11.35,17.31-23.69,14.64,8.28,3.08,7.7,9.49,1.93,14.09-6.54,6.53-5.74,22.91,9.93,22.32a9.9,9.9,0,0,0,2.84-8c.46,6,7.94,12,12.76,10.12h0s4.51,4,9.91-1.18C443.86,165.63,458.79,165.27,465.53,157.25Z" style="fill: rgb(255, 255, 255); opacity: 0.2; transform-origin: 435.589px 136.982px;" class="animable"></path></g><path d="M447.86,187.05s12.35-18,11.67-19.44S447.86,184.13,441.06,189s-20.41,13.13-23.81,13.13S413.6,198,414.82,190s1.48-10.21,7.06-17.5,21.56-27,20.64-27.94-21.2,25-26.24,28.18-9.26-18-10.94-18,4.83,15.12,5.23,22.17-.37,15.5-3.53,17.68-11.78-4.61-17.37-10.69-5.71-32.32-7.9-32.32,1.41,24.09,1.41,26.42c0,5.06-21.36-8.81-25.22-8.19s19.66,9,28.91,18c8.06,7.81,9.44,10.27,12.19,16.06,2.91,6.15,3.76,14.07,3.76,36.67s-6.08,58.8-6.08,72.81c0,1.85,1.22,3.71,3.68,5.13,4.91,2.83,12.87,2.83,17.78,0,2.45-1.42,3.68-3.28,3.68-5.13h0c0-14-6.09-50.21-6.09-72.81s.91-31,7.63-35.81,18.16-13.22,23.23-14.73,19.68,1,19.68,0S447.86,187.05,447.86,187.05Z" style="fill: rgb(55, 71, 79); transform-origin: 411.933px 232.569px;" id="elrqy527ir02d" class="animable"></path><path d="M388.61,300.24a33.85,33.85,0,0,1,4.84,4.81q-1.59-7.77-3.7-15.41c2.61,2.18,5.16,7,6.8,11.21A86.15,86.15,0,0,1,400.68,314c.36-.93.71-1.86,1.06-2.8a15.32,15.32,0,0,1,2.06,8.57c0,.19-10.09-2.37-10.09-2.37s-.48-1.28-1.26-3.74C391.24,309.89,388.58,300.32,388.61,300.24Z" style="fill: rgb(116, 92, 219); transform-origin: 396.217px 304.71px;" id="el4saggvmrpeg" class="animable"></path></g></g><g id="freepik--Wall--inject-9" class="animable" style="transform-origin: 179.055px 241.865px;"><g id="freepik--wall--inject-9" class="animable" style="transform-origin: 179.055px 241.865px;"><polygon points="29.19 202.4 328.36 29.46 315.5 21.68 29.19 186.98 29.19 202.4" style="fill: rgb(224, 224, 224); transform-origin: 178.775px 112.04px;" id="el72a5uwfeokc" class="animable"></polygon><polygon points="29.19 202.4 29.19 462.05 328.09 289.49 328.09 29.83 29.19 202.4" style="fill: rgb(255, 255, 255); transform-origin: 178.64px 245.94px;" id="ellqvwobdcczf" class="animable"></polygon><g id="freepik--wall--inject-9" class="animable" style="transform-origin: 175.745px 259.831px;"><path d="M256.32,130.61v6.07c0,1.91,1.34,2.68,3,1.73l27.76-16a6.62,6.62,0,0,0,3-5.2v-6.07c0-1.91-1.34-2.68-3-1.73l-27.76,16A6.62,6.62,0,0,0,256.32,130.61Z" style="fill: rgb(245, 245, 245); transform-origin: 273.2px 123.91px;" id="elp4sd6acxlk" class="animable"></path><path d="M247.74,249v6.07c0,1.91,1.34,2.69,3,1.73l27.76-16a6.62,6.62,0,0,0,3-5.19v-6.07c0-1.92-1.34-2.69-3-1.73l-27.76,16A6.64,6.64,0,0,0,247.74,249Z" style="fill: rgb(245, 245, 245); transform-origin: 264.62px 242.304px;" id="eleujgsyqzm2" class="animable"></path><path d="M193,234.58v6.07c0,1.91,1.35,2.68,3,1.73l27.77-16a6.64,6.64,0,0,0,3-5.2v-6.07c0-1.91-1.34-2.68-3-1.73l-27.77,16A6.65,6.65,0,0,0,193,234.58Z" style="fill: rgb(235, 235, 235); transform-origin: 209.885px 227.88px;" id="el0kntdj9s4oj" class="animable"></path><path d="M246.47,187.24v6.07c0,1.91,1.34,2.69,3,1.73l27.76-16a6.61,6.61,0,0,0,3-5.19v-6.07c0-1.91-1.34-2.69-3-1.73l-27.76,16A6.61,6.61,0,0,0,246.47,187.24Z" style="fill: rgb(235, 235, 235); transform-origin: 263.35px 180.545px;" id="el907wctra9si" class="animable"></path><path d="M230.86,277.25v6.06c0,1.92,1.34,2.69,3,1.74l27.76-16a6.64,6.64,0,0,0,3-5.2v-6.07c0-1.91-1.34-2.68-3-1.73l-27.76,16A6.62,6.62,0,0,0,230.86,277.25Z" style="fill: rgb(235, 235, 235); transform-origin: 247.74px 270.55px;" id="elzq43alb2xmi" class="animable"></path><path d="M296,137.92l-27.76,16a6.62,6.62,0,0,0-3,5.2v6.06c0,1.92,1.34,2.69,3,1.74l27.76-16a6.67,6.67,0,0,0,3-5.2v-6.07C299,137.74,297.69,137,296,137.92Z" style="fill: rgb(245, 245, 245); transform-origin: 282.12px 152.426px;" id="elc8tbj6w8tbl" class="animable"></path><path d="M306.77,82.14,279,98.17a6.62,6.62,0,0,0-3,5.2v6.06c0,1.92,1.34,2.69,3,1.74l27.76-16a6.64,6.64,0,0,0,3-5.2V83.87C309.77,82,308.43,81.19,306.77,82.14Z" style="fill: rgb(245, 245, 245); transform-origin: 292.88px 96.6584px;" id="eldihva68pkqd" class="animable"></path><path d="M259.26,159.15l-27.76,16a6.64,6.64,0,0,0-3,5.2v6.07c0,1.91,1.34,2.68,3,1.73l27.76-16a6.62,6.62,0,0,0,3-5.2v-6.06C262.26,159,260.92,158.2,259.26,159.15Z" style="fill: rgb(245, 245, 245); transform-origin: 245.38px 173.653px;" id="eltqtb7unnvid" class="animable"></path><path d="M152.59,254.47l-27.77,16a6.63,6.63,0,0,0-3,5.19v6.07c0,1.91,1.35,2.69,3,1.73l27.77-16a6.62,6.62,0,0,0,3-5.19V256.2C155.58,254.29,154.24,253.51,152.59,254.47Z" style="fill: rgb(245, 245, 245); transform-origin: 138.705px 268.965px;" id="eln9wgegoojxh" class="animable"></path><path d="M171.87,226.85l-27.77,16a6.63,6.63,0,0,0-3,5.19v6.07c0,1.91,1.35,2.69,3,1.73l27.77-16a6.63,6.63,0,0,0,3-5.19v-6.07C174.87,226.67,173.52,225.89,171.87,226.85Z" style="fill: rgb(245, 245, 245); transform-origin: 157.985px 241.345px;" id="elyufeqfwlmh" class="animable"></path><path d="M31,310.31v6.07c0,1.91,1.34,2.69,3,1.73l27.76-16a6.62,6.62,0,0,0,3-5.19v-6.07c0-1.92-1.34-2.69-3-1.73L34,305.12A6.63,6.63,0,0,0,31,310.31Z" style="fill: rgb(245, 245, 245); transform-origin: 47.88px 303.614px;" id="el521dkuu4717" class="animable"></path><path d="M185.31,152.43l-27.76,16a6.61,6.61,0,0,0-3,5.19v6.07c0,1.91,1.34,2.69,3,1.73l27.76-16a6.61,6.61,0,0,0,3-5.19v-6.07C188.31,152.25,187,151.47,185.31,152.43Z" style="fill: rgb(245, 245, 245); transform-origin: 171.43px 166.925px;" id="elr29hboa8jx" class="animable"></path><path d="M97.9,236.42l-27.77,16a6.63,6.63,0,0,0-3,5.19v6.07c0,1.91,1.35,2.69,3,1.73l27.77-16a6.65,6.65,0,0,0,3-5.19v-6.07C100.9,236.23,99.55,235.46,97.9,236.42Z" style="fill: rgb(235, 235, 235); transform-origin: 84.015px 250.914px;" id="elp7yvo0ipiw" class="animable"></path><path d="M166.35,181.88l-27.76,16a6.62,6.62,0,0,0-3,5.2v6.07c0,1.91,1.34,2.68,3,1.73l27.76-16a6.65,6.65,0,0,0,3-5.2v-6.07C169.35,181.7,168,180.93,166.35,181.88Z" style="fill: rgb(235, 235, 235); transform-origin: 152.47px 196.38px;" id="elq535kmjomx" class="animable"></path><path d="M283.86,228.16v6.07c0,1.91,1.34,2.69,3,1.73l27.76-16a6.62,6.62,0,0,0,3-5.2v-6.06c0-1.92-1.34-2.69-3-1.74l-27.76,16A6.67,6.67,0,0,0,283.86,228.16Z" style="fill: rgb(235, 235, 235); transform-origin: 300.74px 221.462px;" id="el5qwagced8kn" class="animable"></path><path d="M304.4,260.79l17.9-10.34v13l-17.9,10.34c-1.66.95-3,.18-3-1.73V266A6.64,6.64,0,0,1,304.4,260.79Z" style="fill: rgb(245, 245, 245); transform-origin: 311.85px 262.323px;" id="el59gc9ra92e" class="animable"></path><path d="M304.4,183.21l17.9-10.34v13L304.4,196.2c-1.66,1-3,.18-3-1.73V188.4A6.61,6.61,0,0,1,304.4,183.21Z" style="fill: rgb(245, 245, 245); transform-origin: 311.85px 184.749px;" id="elygpg65bzsa" class="animable"></path><path d="M304.4,119.38l17.9-10.33v13l-17.9,10.34c-1.66,1-3,.18-3-1.73v-6.07A6.64,6.64,0,0,1,304.4,119.38Z" style="fill: rgb(245, 245, 245); transform-origin: 311.85px 120.934px;" id="elzcs4w7eh5l" class="animable"></path><path d="M43.19,251.75l-14,8.08v13l14-8.08a6.61,6.61,0,0,0,3-5.19v-6.07C46.19,251.57,44.85,250.79,43.19,251.75Z" style="fill: rgb(245, 245, 245); transform-origin: 37.69px 262.085px;" id="elxlaun8vg87o" class="animable"></path><path d="M223.8,130.21l-27.77,16a6.65,6.65,0,0,0-3,5.19v6.07c0,1.92,1.35,2.69,3,1.73l27.77-16a6.62,6.62,0,0,0,3-5.19v-6.07C226.79,130,225.45,129.25,223.8,130.21Z" style="fill: rgb(245, 245, 245); transform-origin: 209.915px 144.703px;" id="elvgoyuj8ruar" class="animable"></path><path d="M185.31,281.59l-27.76,16a6.62,6.62,0,0,0-3,5.2v6.06c0,1.92,1.34,2.69,3,1.74l27.76-16a6.64,6.64,0,0,0,3-5.2v-6.07C188.31,281.41,187,280.64,185.31,281.59Z" style="fill: rgb(245, 245, 245); transform-origin: 171.43px 296.09px;" id="el36l5xdz94pz" class="animable"></path><path d="M170.71,308.81l-27.77,16a6.65,6.65,0,0,0-3,5.2v6.06c0,1.92,1.35,2.69,3,1.74l27.77-16a6.65,6.65,0,0,0,3-5.2v-6.07C173.71,308.63,172.36,307.86,170.71,308.81Z" style="fill: rgb(235, 235, 235); transform-origin: 156.825px 323.31px;" id="elvtckf86wlrk" class="animable"></path><path d="M223.8,259.37,196,275.4a6.67,6.67,0,0,0-3,5.2v6.07c0,1.91,1.35,2.69,3,1.73l27.77-16a6.64,6.64,0,0,0,3-5.19v-6.07C226.79,259.19,225.45,258.42,223.8,259.37Z" style="fill: rgb(245, 245, 245); transform-origin: 209.885px 273.888px;" id="elqh9uoml3fd" class="animable"></path><path d="M263.35,302.46v6.07c0,1.91,1.34,2.69,3,1.73l27.76-16a6.61,6.61,0,0,0,3-5.19V283c0-1.91-1.34-2.69-3-1.73l-27.76,16A6.61,6.61,0,0,0,263.35,302.46Z" style="fill: rgb(245, 245, 245); transform-origin: 280.23px 295.765px;" id="elkg425pq2w7" class="animable"></path><path d="M132.59,329.91l-27.77,16a6.67,6.67,0,0,0-3,5.2v6.07c0,1.91,1.35,2.69,3,1.73l27.77-16a6.65,6.65,0,0,0,3-5.19v-6.07C135.59,329.73,134.24,329,132.59,329.91Z" style="fill: rgb(245, 245, 245); transform-origin: 118.705px 344.421px;" id="elmuk6vesteo" class="animable"></path><path d="M31,391.78v6.07c0,1.92,1.34,2.69,3,1.73l27.76-16a6.61,6.61,0,0,0,3-5.19v-6.07c0-1.91-1.34-2.69-3-1.73L34,386.59A6.65,6.65,0,0,0,31,391.78Z" style="fill: rgb(245, 245, 245); transform-origin: 47.88px 385.086px;" id="elsvsti677kol" class="animable"></path><path d="M80.82,319.56v6.07c0,1.91,1.34,2.68,3,1.73l27.77-16a6.64,6.64,0,0,0,3-5.2v-6.07c0-1.91-1.34-2.68-3-1.73l-27.77,16A6.65,6.65,0,0,0,80.82,319.56Z" style="fill: rgb(245, 245, 245); transform-origin: 97.705px 312.86px;" id="elcpjgn3wwjv5" class="animable"></path><path d="M91.27,291.86l-27.76,16a6.64,6.64,0,0,0-3,5.2v6.07c0,1.91,1.34,2.69,3,1.73l27.76-16a6.62,6.62,0,0,0,3-5.2V293.6C94.27,291.68,92.93,290.91,91.27,291.86Z" style="fill: rgb(235, 235, 235); transform-origin: 77.39px 306.362px;" id="eltv4v7hwldwc" class="animable"></path><path d="M43.19,333.22l-14,8.08v13l14-8.08a6.64,6.64,0,0,0,3-5.2V335C46.19,333,44.85,332.27,43.19,333.22Z" style="fill: rgb(245, 245, 245); transform-origin: 37.69px 343.554px;" id="el5xdltu5d444" class="animable"></path><path d="M70.81,408.52l-27.76,16a6.61,6.61,0,0,0-3,5.19v6.07c0,1.91,1.34,2.69,3,1.73l27.76-16a6.62,6.62,0,0,0,3-5.19v-6.07C73.81,408.33,72.47,407.56,70.81,408.52Z" style="fill: rgb(235, 235, 235); transform-origin: 56.93px 423.014px;" id="elms0nx2vcw9c" class="animable"></path><path d="M166.35,355.65l-27.76,16a6.64,6.64,0,0,0-3,5.2V383c0,1.91,1.34,2.68,3,1.73l27.76-16a6.62,6.62,0,0,0,3-5.2v-6.06C169.35,355.47,168,354.7,166.35,355.65Z" style="fill: rgb(235, 235, 235); transform-origin: 152.47px 370.191px;" id="el3mxjatdcp2t" class="animable"></path><path d="M223.8,313.43l-27.77,16a6.63,6.63,0,0,0-3,5.19v6.07c0,1.91,1.35,2.69,3,1.73l27.77-16a6.62,6.62,0,0,0,3-5.19v-6.07C226.79,313.25,225.45,312.47,223.8,313.43Z" style="fill: rgb(245, 245, 245); transform-origin: 209.915px 327.925px;" id="elwrdcs6zyrf" class="animable"></path><path d="M67.13,225.42v6.07c0,1.91,1.35,2.68,3,1.73l27.77-16a6.65,6.65,0,0,0,3-5.2v-6.07c0-1.91-1.35-2.68-3-1.73l-27.77,16A6.65,6.65,0,0,0,67.13,225.42Z" style="fill: rgb(245, 245, 245); transform-origin: 84.015px 218.72px;" id="el6bft0zilble" class="animable"></path><path d="M31,219v6.07c0,1.91,1.34,2.69,3,1.73l27.76-16a6.61,6.61,0,0,0,3-5.19v-6.07c0-1.91-1.34-2.69-3-1.73L34,213.84A6.61,6.61,0,0,0,31,219Z" style="fill: rgb(245, 245, 245); transform-origin: 47.88px 212.305px;" id="elvbuwfyuhl7" class="animable"></path><path d="M172.23,136.3v6.07c0,1.91,1.34,2.69,3,1.73l27.76-16a6.62,6.62,0,0,0,3-5.19v-6.07c0-1.91-1.34-2.69-3-1.73l-27.76,16A6.61,6.61,0,0,0,172.23,136.3Z" style="fill: rgb(245, 245, 245); transform-origin: 189.11px 129.605px;" id="elx28x8lhz3ng" class="animable"></path></g><polygon points="36.3 458.25 35.86 457.49 328.03 288.41 327.65 30.59 29.19 202.9 29.19 201.89 328.53 29.07 328.53 29.83 328.92 288.91 328.69 289.04 36.3 458.25" style="fill: rgb(224, 224, 224); transform-origin: 179.055px 243.66px;" id="el2ywsasvrqx" class="animable"></polygon></g></g><g id="freepik--Paint--inject-9" class="animable" style="transform-origin: 102.425px 294.375px;"><g id="freepik--paint--inject-9" class="animable" style="transform-origin: 102.425px 294.375px;"><path d="M175.64,201.52l-.77-.44-27.65,16V161.66l16.25-9.38v-26l-.77-.45L29.19,202.4V462.92l49-28.25V356.32l16.25-9.38V314.1l28.43-16.41V264.56l52.79-30.48Z" style="fill: rgb(116, 92, 219); transform-origin: 102.425px 294.375px;" id="elpdxakg8dkv8" class="animable"></path><g id="eljhf1wzr3uvr"><polygon points="29.19 462.92 78.17 434.67 78.17 356.32 94.42 346.94 94.42 314.1 122.85 297.69 122.85 264.56 175.64 234.07 175.64 201.52 147.22 217.95 147.22 161.66 163.47 152.28 163.47 126.28 29.19 203.26 29.19 462.92" style="fill: rgb(255, 255, 255); opacity: 0.7; transform-origin: 102.415px 294.6px;" class="animable"></polygon></g><g id="elhzijjjbdz4i"><g style="opacity: 0.2; transform-origin: 102.215px 300.626px;" class="animable"><path d="M171.87,226.85l-9.55,5.59-9.49,5.67L148.08,241l-2.37,1.42-1.19.71a5,5,0,0,0-1,.76,6.28,6.28,0,0,0-1.94,4.65l0,5.53-.73-.42c2.8-1.66,5.64-3.24,8.46-4.85s5.64-3.22,8.49-4.79l8.52-4.74c2.83-1.58,5.68-3.14,8.5-4.75l0,.05,0-5.2a3.21,3.21,0,0,0-.56-2.44,1.51,1.51,0,0,0-1.18-.43A2.8,2.8,0,0,0,171.87,226.85Zm0,0a2.65,2.65,0,0,1,1.22-.41,1.53,1.53,0,0,1,1.2.42,3.25,3.25,0,0,1,.61,2.46l0,5.2v0l0,0c-2.81,1.63-5.58,3.33-8.38,5l-8.36,5c-2.78,1.68-5.58,3.32-8.39,5s-5.59,3.31-8.42,4.9l-.73.41V254l0-5.53a6.3,6.3,0,0,1,.58-2.86,7.39,7.39,0,0,1,1.69-2.37,6,6,0,0,1,1.21-.84l1.21-.68,2.42-1.34,4.83-2.69,9.66-5.39Z" style="fill: rgb(116, 92, 219); transform-origin: 157.778px 240.632px;" id="el0chqnjqr3be" class="animable"></path><path d="M100.9,205.92a2.75,2.75,0,0,0-.39-1.45,1.46,1.46,0,0,0-1.28-.66,2.88,2.88,0,0,0-1.42.46l-1.32.78-5.26,3.08-10.49,6.25-10.47,6.26a6.17,6.17,0,0,0-2.67,4.75l0,6.1a2.22,2.22,0,0,0,.29,1.18,1,1,0,0,0,.88.47,2.46,2.46,0,0,0,1.2-.39l1.32-.76,5.31-3L87.28,223l10.66-6a6.64,6.64,0,0,0,2.92-5Zm0,0,0,6.11a6.15,6.15,0,0,1-.85,2.92A6.27,6.27,0,0,1,98,217.2l-10.48,6.26-10.49,6.26-5.26,3.08-1.32.77a3.44,3.44,0,0,1-1.67.54,2,2,0,0,1-1.7-.89,3.21,3.21,0,0,1-.47-1.73l0-6.11a7.1,7.1,0,0,1,3.16-5.47l10.66-6L91.15,208l5.31-3,1.32-.75a2.89,2.89,0,0,1,1.45-.46,1.51,1.51,0,0,1,1.3.69A2.79,2.79,0,0,1,100.9,205.92Z" style="fill: rgb(116, 92, 219); transform-origin: 83.755px 218.95px;" id="eljaz9m6szhq" class="animable"></path><path d="M126.14,165a2.76,2.76,0,0,0-.39-1.46,1.47,1.47,0,0,0-1.28-.66,2.79,2.79,0,0,0-1.42.47l-1.32.77-5.26,3.08L106,173.41l-10.47,6.25a6.17,6.17,0,0,0-2.67,4.75l0,6.1a2.22,2.22,0,0,0,.29,1.18,1,1,0,0,0,.88.47,2.36,2.36,0,0,0,1.2-.39l1.32-.75,5.31-3,10.65-5.95,10.66-6a6.64,6.64,0,0,0,2.92-5Zm0,0,0,6.1a6.15,6.15,0,0,1-.85,2.92,6.27,6.27,0,0,1-2.06,2.25l-10.48,6.26-10.49,6.26L97,191.82l-1.32.77a3.44,3.44,0,0,1-1.67.54,2,2,0,0,1-1.7-.89,3.21,3.21,0,0,1-.47-1.73l0-6.11a7.1,7.1,0,0,1,3.16-5.47l10.66-6L116.39,167l5.31-3,1.32-.75a2.89,2.89,0,0,1,1.45-.46,1.51,1.51,0,0,1,1.3.69A2.8,2.8,0,0,1,126.14,165Z" style="fill: rgb(116, 92, 219); transform-origin: 108.991px 177.96px;" id="ele34btlsbvu" class="animable"></path><path d="M97.9,236.42l-10.54,6.16-10.48,6.26L71.64,252l-1.31.78a4.67,4.67,0,0,0-1.08.91,7,7,0,0,0-1.42,2.47,4.72,4.72,0,0,0-.25,1.38V259l0,3.05v1.52a2.3,2.3,0,0,0,.26,1.24,1,1,0,0,0,.84.53,2.32,2.32,0,0,0,1.17-.35l10.61-6,10.66-6,5.33-3a9.81,9.81,0,0,0,2.5-1.66,6.92,6.92,0,0,0,1.56-2.55,8.62,8.62,0,0,0,.3-3l0-3.05v-1.53a2.74,2.74,0,0,0-.31-1.46,1.48,1.48,0,0,0-1.22-.78A2.66,2.66,0,0,0,97.9,236.42Zm0,0a2.64,2.64,0,0,1,1.45-.42,1.51,1.51,0,0,1,1.25.78,2.94,2.94,0,0,1,.32,1.48v1.53l0,3.05a8.66,8.66,0,0,1-.27,3,7.48,7.48,0,0,1-1.54,2.66,9.84,9.84,0,0,1-2.5,1.78l-5.24,3.13-10.48,6.26-10.54,6.16a3.09,3.09,0,0,1-1.73.46,2,2,0,0,1-1.62-1,3.3,3.3,0,0,1-.37-1.72v-1.52l0-3.05v-1.54a6.29,6.29,0,0,1,.32-1.62,7.38,7.38,0,0,1,1.66-2.73,5.54,5.54,0,0,1,1.29-1l1.33-.74,5.33-3,10.66-5.95Z" style="fill: rgb(116, 92, 219); transform-origin: 83.7879px 251.126px;" id="el735ty9j42uj" class="animable"></path><path d="M135.59,203.11c0,1.71,0,3.41,0,5.12a3.82,3.82,0,0,0,.46,2.41,1.65,1.65,0,0,0,2.16.23l4.36-2.68c1.45-.9,2.9-1.8,4.37-2.67l-.23.4c-.06-4.33,0-8.66.1-13l.55.31-7.14,3.84c-.6.33-1.2.63-1.78,1a5.72,5.72,0,0,0-1.48,1.34A6.41,6.41,0,0,0,135.59,203.11Zm0,0a6.57,6.57,0,0,1,1.37-3.75,5.48,5.48,0,0,1,1.46-1.42l1.72-1.07,6.9-4.26.53-.33,0,.65q.19,6.49.1,13v.27l-.23.13q-2.23,1.25-4.5,2.45l-4.53,2.43a2.54,2.54,0,0,1-1.33.25,1.55,1.55,0,0,1-1.16-.68,4.16,4.16,0,0,1-.39-2.54C135.58,206.52,135.57,204.82,135.59,203.11Z" style="fill: rgb(116, 92, 219); transform-origin: 141.587px 201.874px;" id="elcci1c9wjjhr" class="animable"></path><path d="M94.42,314.1l9.92-6,10.06-6-.18.32,0-2.12a2.25,2.25,0,0,0-.48-1.69,1.35,1.35,0,0,0-1.52-.13,7,7,0,0,0-.88.47l-.92.54-7.34,4.27q-7.32,4.29-14.7,8.49l-3.68,2.11A6.18,6.18,0,0,0,83,315.55a6.72,6.72,0,0,0-1.14,1.61,5.86,5.86,0,0,0-.61,1.87c-.07.61,0,1.38,0,2.07l0,4.24a2.34,2.34,0,0,0,.45,1.74,1.43,1.43,0,0,0,1.6.19c1.18-.59,2.45-1.36,3.67-2l7.42-4.13-.07.13Zm0,0,.15,7.14v.08l-.08.05-7.28,4.36c-1.25.72-2.38,1.46-3.71,2.15a2.61,2.61,0,0,1-1.19.22,1.87,1.87,0,0,1-1.17-.52,3.08,3.08,0,0,1-.7-2.24l0-4.24a20.22,20.22,0,0,1,0-2.18,6.91,6.91,0,0,1,.67-2.15,7.36,7.36,0,0,1,1.29-1.84,7.22,7.22,0,0,1,1.81-1.32l3.67-2.13q7.32-4.29,14.71-8.49l7.36-4.22.92-.52a10,10,0,0,1,1-.53,2.67,2.67,0,0,1,1.23-.21,1.91,1.91,0,0,1,1.21.55,3.06,3.06,0,0,1,.68,2.28l0,2.12v.22l-.18.1-10.11,5.67Z" style="fill: rgb(116, 92, 219); transform-origin: 97.7095px 312.804px;" id="elujy264fbqy" class="animable"></path><path d="M121.82,275.69c0,1.41,0,2.82.15,4.23,0,.69.08,1.42.15,2.09a1.55,1.55,0,0,0,.9,1.36l-.59.39c-.1-1.88-.1-3.75,0-5.63,0-.94.11-1.87.16-2.81l.18-2.81.18.05A5.71,5.71,0,0,0,121.82,275.69Zm0,0a7.11,7.11,0,0,1,1-3.24l.16-.29,0,.35.18,2.81c.05.94.14,1.87.17,2.81.07,1.88.07,3.75,0,5.63l0,.66-.56-.28a2.25,2.25,0,0,1-1.13-2.09c0-.75.08-1.42.12-2.13C121.78,278.51,121.81,277.1,121.82,275.69Z" style="fill: rgb(116, 92, 219); transform-origin: 122.509px 278.29px;" id="eleul9en6akbk" class="animable"></path><path d="M94.27,299.66l0-6.1a2.52,2.52,0,0,0-.4-1.42,1.45,1.45,0,0,0-1.26-.63,3,3,0,0,0-1.4.48l-1.32.77L79.38,299,68.9,305.28l-5.26,3.08A6.15,6.15,0,0,0,61,313.09l0,6.1a2.17,2.17,0,0,0,.3,1.19,1,1,0,0,0,.92.47,2.53,2.53,0,0,0,1.22-.41l1.33-.76,10.66-5.95,10.66-6,5.3-3a6.27,6.27,0,0,0,2-2.21A6,6,0,0,0,94.27,299.66Zm0,0a6,6,0,0,1-.83,2.91,6.21,6.21,0,0,1-2,2.25l-5.26,3.09-10.48,6.26-10.48,6.25-1.32.77a3.34,3.34,0,0,1-1.64.55,2,2,0,0,1-1.69-.84,3.08,3.08,0,0,1-.48-1.7l0-6.11a6.65,6.65,0,0,1,.93-3.14,6.73,6.73,0,0,1,2.22-2.38l5.31-3,10.66-6,10.66-5.95,1.32-.76a3,3,0,0,1,1.46-.47,1.54,1.54,0,0,1,1.35.68,2.7,2.7,0,0,1,.39,1.47Z" style="fill: rgb(116, 92, 219); transform-origin: 77.2403px 306.565px;" id="elpfxqus18wpp" class="animable"></path><path d="M34,399.58l10.54-6.16L55,387.16,60.27,384l1.31-.78a4.67,4.67,0,0,0,1.08-.91,7,7,0,0,0,1.42-2.47,4.72,4.72,0,0,0,.25-1.38V377l0-3.05v-1.52a2.4,2.4,0,0,0-.26-1.24,1,1,0,0,0-.85-.53A2.35,2.35,0,0,0,62,371l-10.6,6-10.66,6-5.33,3a9.64,9.64,0,0,0-2.5,1.66,6.92,6.92,0,0,0-1.56,2.55,8.62,8.62,0,0,0-.3,3l0,3v1.53a2.83,2.83,0,0,0,.3,1.46,1.51,1.51,0,0,0,1.22.78A2.67,2.67,0,0,0,34,399.58Zm0,0a2.69,2.69,0,0,1-1.45.42,1.51,1.51,0,0,1-1.25-.78,3,3,0,0,1-.33-1.48v-1.53l0-3a8.66,8.66,0,0,1,.27-3,7.61,7.61,0,0,1,1.53-2.66,9.89,9.89,0,0,1,2.51-1.78l5.24-3.13L51,376.29l10.54-6.16a3.08,3.08,0,0,1,1.72-.46,2,2,0,0,1,1.62,1,3.41,3.41,0,0,1,.38,1.72v1.52l0,3.05,0,1.54a5.89,5.89,0,0,1-.31,1.62,7.41,7.41,0,0,1-1.67,2.73,5.49,5.49,0,0,1-1.28,1l-1.33.74-5.33,3-10.66,6Z" style="fill: rgb(116, 92, 219); transform-origin: 48.101px 384.834px;" id="elcssf1xy7r15" class="animable"></path><path d="M34,226.83l10.54-6.16L55,214.41l5.24-3.13,1.31-.78a4.93,4.93,0,0,0,1.08-.91,7,7,0,0,0,1.42-2.47,4.72,4.72,0,0,0,.25-1.38v-1.51l0-3v-1.52a2.4,2.4,0,0,0-.26-1.24,1,1,0,0,0-.85-.53,2.35,2.35,0,0,0-1.17.35l-10.6,6-10.66,5.95-5.33,3a9.87,9.87,0,0,0-2.51,1.66,7,7,0,0,0-1.55,2.55,8.6,8.6,0,0,0-.3,3l0,3.05V225a2.83,2.83,0,0,0,.3,1.46,1.51,1.51,0,0,0,1.22.78A2.76,2.76,0,0,0,34,226.83Zm0,0a2.69,2.69,0,0,1-1.45.42,1.56,1.56,0,0,1-1.25-.78A3,3,0,0,1,31,225v-1.53l0-3.05a8.66,8.66,0,0,1,.27-3,7.61,7.61,0,0,1,1.53-2.66,9.89,9.89,0,0,1,2.51-1.78l5.24-3.13L51,203.54l10.53-6.16a3.23,3.23,0,0,1,1.73-.47,2,2,0,0,1,1.62,1,3.41,3.41,0,0,1,.38,1.72v1.52l0,3,0,1.54a5.89,5.89,0,0,1-.31,1.62,7.41,7.41,0,0,1-1.67,2.73,5.49,5.49,0,0,1-1.28,1l-1.33.74-5.33,3-10.66,5.95Z" style="fill: rgb(116, 92, 219); transform-origin: 48.116px 212.08px;" id="elezesrymvyv7" class="animable"></path><path d="M70.81,408.52l-10.54,6.16-10.48,6.26-5.24,3.13-1.31.78a4.67,4.67,0,0,0-1.08.91,7,7,0,0,0-1.42,2.47,5.08,5.08,0,0,0-.25,1.38v1.51l0,3.05v1.52a2.4,2.4,0,0,0,.26,1.24,1,1,0,0,0,.85.53,2.35,2.35,0,0,0,1.17-.35l10.6-6,10.66-5.95,5.33-3a9.87,9.87,0,0,0,2.51-1.66,7,7,0,0,0,1.55-2.55,8.62,8.62,0,0,0,.3-3l0-3.05v-1.53a2.83,2.83,0,0,0-.3-1.46,1.49,1.49,0,0,0-1.22-.78A2.67,2.67,0,0,0,70.81,408.52Zm0,0a2.69,2.69,0,0,1,1.45-.42,1.51,1.51,0,0,1,1.25.78,3,3,0,0,1,.33,1.48v1.53l0,3.05a8.66,8.66,0,0,1-.27,3,7.61,7.61,0,0,1-1.53,2.66,9.89,9.89,0,0,1-2.51,1.78l-5.24,3.13-10.48,6.26L43.3,438a3.13,3.13,0,0,1-1.73.46,2,2,0,0,1-1.62-1,3.41,3.41,0,0,1-.38-1.72v-1.52l0-3.05,0-1.54a5.89,5.89,0,0,1,.31-1.62,7.41,7.41,0,0,1,1.67-2.73,5.49,5.49,0,0,1,1.28-1l1.33-.74,5.33-3,10.66-5.95Z" style="fill: rgb(116, 92, 219); transform-origin: 56.719px 423.281px;" id="elq1xyiwpg6me" class="animable"></path><path d="M43.19,346.22a6.64,6.64,0,0,0,2.5-3,5.89,5.89,0,0,0,.44-1.93c0-.66,0-1.34,0-2l-.1-4a2.57,2.57,0,0,0-.48-1.75,1.39,1.39,0,0,0-1.58-.31,11.68,11.68,0,0,0-1.69.95l-1.7,1-3.43,2.07q-3.43,2.06-6.92,4l.25-.43c0,4.34-.13,8.67-.24,13l-.38-.22,6.7-3.66C38.77,348.74,41,347.48,43.19,346.22Zm0,0c-2.2,1.28-4.4,2.56-6.58,3.88l-6.51,4-.38.23v-.45c-.11-4.33-.23-8.66-.23-13v-.28l.24-.14c2.31-1.35,4.62-2.67,7-4l3.5-1.93,1.76-1a11.37,11.37,0,0,1,1.85-.91,1.9,1.9,0,0,1,2.08.54,2.94,2.94,0,0,1,.49,2l-.1,4c0,.67,0,1.33,0,2a5.86,5.86,0,0,1-.51,1.94A6.52,6.52,0,0,1,43.19,346.22Z" style="fill: rgb(116, 92, 219); transform-origin: 37.9601px 343.418px;" id="el6cvfqzopg3g" class="animable"></path><path d="M30,272.38l10.14-6.23,2.48-1.5a5.53,5.53,0,0,0,2-1.85,6.31,6.31,0,0,0,1.07-2.52,7.9,7.9,0,0,0,.06-1.4V257.4l0-3c0-.48,0-1,0-1.4a1.55,1.55,0,0,0-.48-1,1.2,1.2,0,0,0-1-.19,3.89,3.89,0,0,0-1.2.54l-2.57,1.46c-3.42,1.95-6.84,3.92-10.3,5.81l.17-.3c0,2.12-.08,4.23-.16,6.39Zm0,0L29.78,266c-.08-2.17-.12-4.4-.16-6.61v-.19l.17-.11c3.37-2.05,6.78-4,10.18-6l2.55-1.49A5.13,5.13,0,0,1,44,250.9a2.12,2.12,0,0,1,1.81.39,2.5,2.5,0,0,1,.81,1.61,13.71,13.71,0,0,1,0,1.54l0,3v1.48a9.37,9.37,0,0,1-.09,1.55,7.19,7.19,0,0,1-1.24,2.86,6.41,6.41,0,0,1-2.36,2l-2.64,1.45Z" style="fill: rgb(116, 92, 219); transform-origin: 38.1308px 261.61px;" id="eltdesi1ijihp" class="animable"></path><path d="M61.77,289.09l-10.53,6.16-10.48,6.26-5.24,3.13-1.31.78a4.67,4.67,0,0,0-1.08.91,7,7,0,0,0-1.42,2.47,5.1,5.1,0,0,0-.26,1.38v6.08a2.5,2.5,0,0,0,.26,1.24,1,1,0,0,0,.85.53,2.32,2.32,0,0,0,1.17-.35l10.61-6L55,305.69l5.33-3a9.81,9.81,0,0,0,2.5-1.66,7.05,7.05,0,0,0,1.56-2.55,8.6,8.6,0,0,0,.3-3l0-3.05v-1.53a2.83,2.83,0,0,0-.31-1.46,1.48,1.48,0,0,0-1.22-.78A2.72,2.72,0,0,0,61.77,289.09Zm0,0a2.69,2.69,0,0,1,1.45-.42,1.49,1.49,0,0,1,1.25.78,2.84,2.84,0,0,1,.33,1.48v1.53l0,3.05a8.44,8.44,0,0,1-.28,3A7.31,7.31,0,0,1,63,301.21a9.84,9.84,0,0,1-2.5,1.78l-5.24,3.13L44.8,312.38l-10.54,6.16a3.11,3.11,0,0,1-1.73.46,2,2,0,0,1-1.62-1,3.3,3.3,0,0,1-.37-1.72v-1.52l0-3.05v-1.54a5.9,5.9,0,0,1,.32-1.62,7.38,7.38,0,0,1,1.66-2.73,5.7,5.7,0,0,1,1.28-1l1.34-.74,5.33-3,10.66-5.95Z" style="fill: rgb(116, 92, 219); transform-origin: 47.683px 303.831px;" id="elfeme0p6h8n" class="animable"></path></g></g></g></g><g id="freepik--paint-pot--inject-9" class="animable" style="transform-origin: 92.215px 438.457px;"><g id="freepik--paint-pot--inject-9" class="animable" style="transform-origin: 113.425px 428.437px;"><g id="freepik--paint-pot--inject-9" class="animable" style="transform-origin: 113.425px 428.437px;"><path d="M131.8,415.5l-32.33-.44-.28,26.4h0c0,2.39,1.52,4.8,4.66,6.65,6.27,3.72,16.51,3.83,22.87.25,3.2-1.8,4.8-4.2,4.8-6.61Z" style="fill: rgb(55, 71, 79); transform-origin: 115.495px 433.017px;" id="el1bk4241f6s" class="animable"></path><path d="M104.28,408.51c-6.35,3.58-6.42,9.49-.14,13.2s16.51,3.83,22.86.25,6.42-9.49.14-13.2S110.63,404.93,104.28,408.51Z" style="fill: rgb(69, 90, 100); transform-origin: 115.64px 415.235px;" id="elx95zmzvme7" class="animable"></path><path d="M130.41,415.39a4.11,4.11,0,0,1-.23,1.27,7.81,7.81,0,0,1-3.87,4.08,23.89,23.89,0,0,1-21.46-.23,7.86,7.86,0,0,1-3.75-4.08,4,4,0,0,1-.23-1.36c0-2,1.48-3.87,4.1-5.33a24,24,0,0,1,21.46.23C129,411.5,130.43,413.42,130.41,415.39Z" style="fill: rgb(38, 50, 56); transform-origin: 115.64px 415.247px;" id="elm4tr1d5kbto" class="animable"></path><path d="M130.18,416.66a7.81,7.81,0,0,1-3.87,4.08,23.89,23.89,0,0,1-21.46-.23,7.86,7.86,0,0,1-3.75-4.08,7.8,7.8,0,0,1,3.87-4.07,23.81,23.81,0,0,1,21.46.23A7.89,7.89,0,0,1,130.18,416.66Z" style="fill: rgb(116, 92, 219); transform-origin: 115.64px 416.545px;" id="el4e79qfoq323" class="animable"></path><g id="el2gt9c2yflnq"><path d="M130.18,416.66a7.81,7.81,0,0,1-3.87,4.08,23.89,23.89,0,0,1-21.46-.23,7.86,7.86,0,0,1-3.75-4.08,7.8,7.8,0,0,1,3.87-4.07,23.81,23.81,0,0,1,21.46.23A7.89,7.89,0,0,1,130.18,416.66Z" style="fill: rgb(255, 255, 255); opacity: 0.6; transform-origin: 115.64px 416.545px;" class="animable"></path></g><g id="el1f30o9y7k3b"><path d="M126.31,420.74a12.91,12.91,0,0,0,1.47-1c-5.9,3.16-16,1.71-19.22-.66-4-2.91-3.58-6.73,1.56-8.63a18.37,18.37,0,0,0-5.15,1.88,7.8,7.8,0,0,0-3.87,4.07,7.86,7.86,0,0,0,3.75,4.08,23.89,23.89,0,0,0,21.46.23Z" style="fill: rgb(116, 92, 219); opacity: 0.35; transform-origin: 114.44px 416.796px;" class="animable"></path></g><path d="M122.53,425.39c.7-.4,1.27-.07,1.26.75a2.8,2.8,0,0,1-1.3,2.19c-.71.4-1.27.07-1.26-.74A2.79,2.79,0,0,1,122.53,425.39Z" style="fill: rgb(38, 50, 56); transform-origin: 122.51px 426.86px;" id="el4sta91waos8" class="animable"></path><path d="M99.41,419.7c-1.77,3.5-5.31,11.84-.72,15.23.2.14.37.27.57.39l0,1.69c-.46-.28-.93-.6-1.39-.93-6.86-5.09.88-18.14,1.21-18.68a.65.65,0,0,1,.39-.3Z" style="fill: rgb(224, 224, 224); transform-origin: 97.2566px 427.055px;" id="el1rz455oikix" class="animable"></path><path d="M123.13,427.19c-.2.41-5.19,10-13.41,11.88a11.89,11.89,0,0,1-2.83.33A14.28,14.28,0,0,1,99.24,437l0-1.69c3.39,2.36,6.8,3.17,10.15,2.39,7.58-1.77,12.43-11.08,12.47-11.17a.71.71,0,0,1,1-.3A.69.69,0,0,1,123.13,427.19Z" style="fill: rgb(224, 224, 224); transform-origin: 111.233px 432.766px;" id="elcyhar9kw9r" class="animable"></path></g></g><g id="freepik--paint-pot--inject-9" class="animable" style="transform-origin: 71.0006px 448.483px;"><g id="freepik--paint-pot--inject-9" class="animable" style="transform-origin: 71.0006px 448.483px;"><path d="M89.37,435.53,57,435.1l-.28,26.4h0c0,2.39,1.53,4.8,4.66,6.65,6.28,3.72,16.51,3.83,22.87.25,3.2-1.8,4.8-4.2,4.8-6.61Z" style="fill: rgb(55, 71, 79); transform-origin: 73.045px 453.057px;" id="elxfb6nsymr6" class="animable"></path><path d="M61.85,428.55c-6.35,3.58-6.41,9.49-.14,13.2s16.51,3.83,22.86.25,6.42-9.49.15-13.2S68.2,425,61.85,428.55Z" style="fill: rgb(69, 90, 100); transform-origin: 73.2125px 435.281px;" id="elks5b7r3dsm" class="animable"></path><path d="M88,435.43a4.11,4.11,0,0,1-.23,1.27,7.81,7.81,0,0,1-3.87,4.08,22,22,0,0,1-10.76,2.42,22,22,0,0,1-10.7-2.65,7.87,7.87,0,0,1-3.74-4.08,4,4,0,0,1-.23-1.36c0-2,1.48-3.87,4.1-5.33a21.5,21.5,0,0,1,10.74-2.42A21.75,21.75,0,0,1,84,430C86.59,431.54,88,433.46,88,435.43Z" style="fill: rgb(38, 50, 56); transform-origin: 73.235px 435.278px;" id="elxs343kqs5a" class="animable"></path><path d="M87.75,436.7a7.81,7.81,0,0,1-3.87,4.08,22,22,0,0,1-10.76,2.42,22,22,0,0,1-10.7-2.65,7.87,7.87,0,0,1-3.74-4.08,7.73,7.73,0,0,1,3.87-4.07A21.83,21.83,0,0,1,73.29,430,22,22,0,0,1,84,432.63,7.86,7.86,0,0,1,87.75,436.7Z" style="fill: rgb(116, 92, 219); transform-origin: 73.215px 436.599px;" id="elcr7z3o2pzq8" class="animable"></path><g id="ellx5sz7gs6i"><path d="M87.75,436.7a7.81,7.81,0,0,1-3.87,4.08,22,22,0,0,1-10.76,2.42,22,22,0,0,1-10.7-2.65,7.87,7.87,0,0,1-3.74-4.08,7.73,7.73,0,0,1,3.87-4.07A21.83,21.83,0,0,1,73.29,430,22,22,0,0,1,84,432.63,7.86,7.86,0,0,1,87.75,436.7Z" style="fill: rgb(255, 255, 255); opacity: 0.6; transform-origin: 73.215px 436.599px;" class="animable"></path></g><g id="elv2ty1tb9jqb"><path d="M83.88,440.78a11.35,11.35,0,0,0,1.47-1c-5.9,3.16-15.95,1.71-19.21-.66-4-2.91-3.59-6.73,1.55-8.63a18.18,18.18,0,0,0-5.14,1.88,7.73,7.73,0,0,0-3.87,4.07,7.87,7.87,0,0,0,3.74,4.08,22,22,0,0,0,10.7,2.65A22,22,0,0,0,83.88,440.78Z" style="fill: rgb(116, 92, 219); opacity: 0.35; transform-origin: 72.015px 436.837px;" class="animable"></path></g><path d="M80.1,445.43c.71-.4,1.27-.07,1.27.75a2.84,2.84,0,0,1-1.3,2.19c-.71.4-1.28.07-1.27-.75A2.82,2.82,0,0,1,80.1,445.43Z" style="fill: rgb(38, 50, 56); transform-origin: 80.0849px 446.9px;" id="elmhqre77csqr" class="animable"></path><path d="M57,439.74c-1.78,3.5-5.31,11.84-.72,15.23.19.14.37.27.56.39l0,1.69c-.46-.28-.93-.6-1.39-.93-6.86-5.09.88-18.14,1.22-18.69a.62.62,0,0,1,.38-.29Z" style="fill: rgb(224, 224, 224); transform-origin: 54.8367px 447.095px;" id="elwa7rz3io6z9" class="animable"></path><path d="M80.7,447.23c-.19.41-5.19,10-13.4,11.88a12,12,0,0,1-2.84.33,14.28,14.28,0,0,1-7.65-2.39l0-1.69c3.39,2.36,6.81,3.17,10.15,2.39,7.58-1.77,12.44-11.08,12.47-11.17a.71.71,0,0,1,1-.3A.69.69,0,0,1,80.7,447.23Z" style="fill: rgb(224, 224, 224); transform-origin: 68.8007px 452.811px;" id="eli13st7uhddq" class="animable"></path></g></g></g><g id="freepik--Brush--inject-9" class="animable" style="transform-origin: 152.733px 455.723px;"><g id="freepik--brush--inject-9" class="animable" style="transform-origin: 152.733px 455.723px;"><g id="freepik--brush--inject-9" class="animable" style="transform-origin: 152.733px 455.723px;"><path d="M157.18,455.38,171.81,447a1.08,1.08,0,0,0,.46-1,3.48,3.48,0,0,0-1.56-2.72,1.09,1.09,0,0,0-1.11-.11L155,451.54Z" style="fill: rgb(69, 90, 100); transform-origin: 163.638px 449.223px;" id="elxnagaan7b8" class="animable"></path><polygon points="158.74 449.37 163.17 451.94 157.18 455.38 154.97 451.54 158.74 449.37" style="fill: rgb(55, 71, 79); transform-origin: 159.07px 452.375px;" id="eljwlhuil9aga" class="animable"></polygon><path d="M142.12,456.36l3-1.72-3-1.72,6.11-3.53a7.35,7.35,0,0,1,6.68,0l5.22,3a2.44,2.44,0,0,1,1.37,1.81c0,.07,0,3,0,3.67a2.38,2.38,0,0,1-1.37,1.82L154,463.24Z" style="fill: rgb(55, 71, 79); transform-origin: 151.81px 455.914px;" id="elagfs2ynwk55" class="animable"></path><path d="M160.14,452.41l-5.22-3a7.35,7.35,0,0,0-6.68,0l-6.11,3.53L154,459.8l6.11-3.53C162,455.21,162,453.48,160.14,452.41Z" style="fill: rgb(69, 90, 100); transform-origin: 151.831px 454.204px;" id="eluzltxnwsj9h" class="animable"></path><polygon points="154.02 459.8 142.13 452.92 133.2 458.06 145.09 464.95 154.02 459.8" style="fill: rgb(240, 240, 240); transform-origin: 143.61px 458.935px;" id="elpr05nk6lo3b" class="animable"></polygon><polygon points="154.02 459.8 145.09 464.95 145.08 468.38 154.01 463.24 154.02 459.8" style="fill: rgb(235, 235, 235); transform-origin: 149.55px 464.09px;" id="elm3if0ilyow" class="animable"></polygon><polygon points="156.67 458.27 144.78 451.39 146 450.69 157.95 457.53 156.67 458.27" style="fill: rgb(116, 92, 219); transform-origin: 151.365px 454.48px;" id="elpf27p1h7tq" class="animable"></polygon><polygon points="156.67 458.27 156.67 461.71 157.94 460.97 157.95 457.53 156.67 458.27" style="fill: rgb(116, 92, 219); transform-origin: 157.31px 459.62px;" id="elm315gmz6zvm" class="animable"></polygon><g id="el9rqnfm3006"><polygon points="156.67 458.27 156.67 461.71 157.94 460.97 157.95 457.53 156.67 458.27" style="opacity: 0.1; transform-origin: 157.31px 459.62px;" class="animable"></polygon></g><path d="M147.81,466.81s1.63-2.09.76-3.87l-3.48,2v3.43Z" style="fill: rgb(116, 92, 219); transform-origin: 146.958px 465.655px;" id="elwxkjmdq2rx" class="animable"></path><g id="elgxgetrxpj4w"><path d="M147.81,466.81s1.63-2.09.76-3.87l-3.48,2v3.43Z" style="opacity: 0.1; transform-origin: 146.958px 465.655px;" class="animable"></path></g><path d="M148.57,462.94a4.28,4.28,0,0,0-2.44-3.27c-1.62-.7-5.06.73-6.49-1.6-1-1.64.1-3.77.1-3.77l-6.54,3.76L145.09,465Z" style="fill: rgb(116, 92, 219); transform-origin: 140.885px 459.65px;" id="eldizb81avgps" class="animable"></path><polygon points="133.2 458.06 133.19 461.5 145.08 468.38 145.09 464.95 133.2 458.06" style="fill: rgb(116, 92, 219); transform-origin: 139.14px 463.22px;" id="el30suncda9o6" class="animable"></polygon><g id="el3l029021zq1"><polygon points="133.2 458.06 133.19 461.5 145.08 468.38 145.09 464.95 133.2 458.06" style="opacity: 0.15; transform-origin: 139.14px 463.22px;" class="animable"></polygon></g></g></g></g><g id="freepik--Character--inject-9" class="animable" style="transform-origin: 255.748px 280.824px;"><g id="freepik--Scaffold--inject-9" class="animable" style="transform-origin: 255.748px 280.824px;"><path d="M309.1,333.83a7.72,7.72,0,0,0-3.82-5.83,2.43,2.43,0,0,0-2.56,0h0l-2.45,1.36,5.47,8.19,2.42-1.46h0A2.22,2.22,0,0,0,309.1,333.83Z" style="fill: rgb(69, 90, 100); transform-origin: 304.705px 332.593px;" id="elykwtinb8zw" class="animable"></path><path d="M302.75,329.43a7.72,7.72,0,0,1,3.82,5.83c.12,2.22-1.38,3.21-3.37,2.21a7.72,7.72,0,0,1-3.82-5.83C299.26,329.42,300.76,328.43,302.75,329.43Z" style="fill: rgb(55, 71, 79); transform-origin: 302.975px 333.45px;" id="elweoh6ea592" class="animable"></path><path d="M301.76,332.84c-.05-.87.45-1.3,1.13-1a2.83,2.83,0,0,1,1.3,2.18c.05.87-.45,1.3-1.13,1A2.83,2.83,0,0,1,301.76,332.84Z" style="fill: rgb(38, 50, 56); transform-origin: 302.975px 333.43px;" id="elyje1of9q0k" class="animable"></path><path d="M303,333.06a.75.75,0,0,1,.37.56c0,.22-.13.31-.32.22a.75.75,0,0,1-.37-.56C302.62,333.06,302.76,333,303,333.06Z" style="fill: rgb(38, 50, 56); transform-origin: 303.018px 333.456px;" id="el648t6jyybxo" class="animable"></path><path d="M309.58,333.81a8.2,8.2,0,0,0-4.12-6.29,3.8,3.8,0,0,0-1.71-.45,2.33,2.33,0,0,0-1.31.37c-.15.09-2.08,1.18-2.46,1.42a2.18,2.18,0,0,0-.41.34,3.06,3.06,0,0,0-.75,2.11l8.27,4.78,2.46-1.42A4.85,4.85,0,0,0,309.58,333.81Z" style="fill: rgb(224, 224, 224); transform-origin: 304.203px 331.58px;" id="el7bg0o1j6r4s" class="animable"></path><path d="M307.09,336.09l-8.27-4.77a3.07,3.07,0,0,1,.75-2.12,2.33,2.33,0,0,1,1.72-.71,3.8,3.8,0,0,1,1.71.45,8.2,8.2,0,0,1,4.12,6.29A4.85,4.85,0,0,1,307.09,336.09Z" style="fill: rgb(245, 245, 245); transform-origin: 302.973px 332.29px;" id="eln7ifmy3kfgf" class="animable"></path><path d="M305.78,168a.83.83,0,0,0-.5-.69,2.59,2.59,0,0,0-2.39,0,.85.85,0,0,0-.5.69V328a.85.85,0,0,0,.5.69,2.59,2.59,0,0,0,2.39,0,.83.83,0,0,0,.5-.69Z" style="fill: rgb(55, 71, 79); transform-origin: 304.085px 248px;" id="elxc8fihaljtn" class="animable"></path><path d="M302.89,167.3a.73.73,0,0,0,0,1.38,2.65,2.65,0,0,0,2.39,0,.73.73,0,0,0,0-1.38A2.59,2.59,0,0,0,302.89,167.3Z" style="fill: rgb(69, 90, 100); transform-origin: 304.085px 167.986px;" id="elgcqu8e97gl8" class="animable"></path><path d="M304.9,309.38a.84.84,0,0,0-.85.08,2.65,2.65,0,0,0-1.2,2.08.84.84,0,0,0,.35.77l74.71,43.13a.82.82,0,0,0,.84-.09,2.65,2.65,0,0,0,1.2-2.07.85.85,0,0,0-.35-.78Z" style="fill: rgb(69, 90, 100); transform-origin: 341.4px 332.408px;" id="el9z8ohk0yp3n" class="animable"></path><path d="M378.75,355.35a.82.82,0,0,1-.84.09.86.86,0,0,1-.36-.78,2.65,2.65,0,0,1,1.2-2.07.87.87,0,0,1,.85-.09.85.85,0,0,1,.35.78A2.65,2.65,0,0,1,378.75,355.35Z" style="fill: rgb(69, 90, 100); transform-origin: 378.751px 353.972px;" id="elck985rkzwd" class="animable"></path><path d="M304.9,251a.87.87,0,0,0-.85.09,2.65,2.65,0,0,0-1.2,2.07.85.85,0,0,0,.35.78l36.33,21a.84.84,0,0,0,.85-.08,2.65,2.65,0,0,0,1.2-2.08.84.84,0,0,0-.35-.77Z" style="fill: rgb(69, 90, 100); transform-origin: 322.215px 262.974px;" id="el6cydpjmq5rc" class="animable"></path><path d="M340.38,274.78a.84.84,0,0,1-.85.08.82.82,0,0,1-.35-.77,2.65,2.65,0,0,1,1.2-2.08.73.73,0,0,1,1.2.69A2.65,2.65,0,0,1,340.38,274.78Z" style="fill: rgb(69, 90, 100); transform-origin: 340.384px 273.383px;" id="elxplev8ksxj" class="animable"></path><path d="M304.9,280a.87.87,0,0,0-.85.09,2.65,2.65,0,0,0-1.2,2.07.86.86,0,0,0,.35.78l36.33,21a.84.84,0,0,0,.85-.08,2.65,2.65,0,0,0,1.2-2.08.84.84,0,0,0-.35-.77Z" style="fill: rgb(69, 90, 100); transform-origin: 322.215px 291.974px;" id="el9zqbbzz2efl" class="animable"></path><path d="M340.38,303.77a.84.84,0,0,1-.85.08.82.82,0,0,1-.35-.77,2.65,2.65,0,0,1,1.2-2.08.73.73,0,0,1,1.2.69A2.65,2.65,0,0,1,340.38,303.77Z" style="fill: rgb(69, 90, 100); transform-origin: 340.384px 302.373px;" id="elelihpxkdppw" class="animable"></path><path d="M341.82,244.4a.85.85,0,0,0-.5-.69,2.59,2.59,0,0,0-2.39,0,.85.85,0,0,0-.5.69V331a.85.85,0,0,0,.5.69,2.65,2.65,0,0,0,2.39,0,.85.85,0,0,0,.5-.69Z" style="fill: rgb(55, 71, 79); transform-origin: 340.125px 287.696px;" id="el9l6hu77gwsr" class="animable"></path><path d="M338.93,243.71a.73.73,0,0,0,0,1.38,2.65,2.65,0,0,0,2.39,0,.73.73,0,0,0,0-1.38A2.59,2.59,0,0,0,338.93,243.71Z" style="fill: rgb(69, 90, 100); transform-origin: 340.125px 244.396px;" id="eliuwip9pfcw" class="animable"></path><path d="M304.9,222a.84.84,0,0,0-.85.08,2.65,2.65,0,0,0-1.2,2.08.84.84,0,0,0,.35.77l74.71,43.13a.84.84,0,0,0,.84-.08,2.68,2.68,0,0,0,1.2-2.08.85.85,0,0,0-.35-.78Z" style="fill: rgb(69, 90, 100); transform-origin: 341.4px 245.029px;" id="el6hwcoi7yfhm" class="animable"></path><path d="M378.75,268a.74.74,0,0,1-1.2-.7,2.65,2.65,0,0,1,1.2-2.07.87.87,0,0,1,.85-.09.85.85,0,0,1,.35.78A2.68,2.68,0,0,1,378.75,268Z" style="fill: rgb(69, 90, 100); transform-origin: 378.747px 266.619px;" id="el05vi4badwogf" class="animable"></path><path d="M304.9,184.05a.84.84,0,0,0-.85.09,2.65,2.65,0,0,0-1.2,2.07.87.87,0,0,0,.35.78l74.71,43.13a.85.85,0,0,0,.84-.09A2.65,2.65,0,0,0,380,228a.83.83,0,0,0-.35-.78Z" style="fill: rgb(69, 90, 100); transform-origin: 341.426px 207.083px;" id="elduxmrlyomxb" class="animable"></path><path d="M378.75,230a.73.73,0,0,1-1.2-.69,2.67,2.67,0,0,1,1.2-2.08.73.73,0,0,1,1.2.7A2.65,2.65,0,0,1,378.75,230Z" style="fill: rgb(69, 90, 100); transform-origin: 378.751px 228.614px;" id="elszcdbfudej" class="animable"></path><path d="M383.8,377a7.72,7.72,0,0,0-3.82-5.83,2.43,2.43,0,0,0-2.56,0h0L375,372.46l5.47,8.19,2.41-1.46h0A2.24,2.24,0,0,0,383.8,377Z" style="fill: rgb(69, 90, 100); transform-origin: 379.415px 375.728px;" id="eljhr60wjoqbm" class="animable"></path><path d="M377.45,372.56a7.67,7.67,0,0,1,3.82,5.83c.13,2.22-1.38,3.21-3.36,2.21a7.67,7.67,0,0,1-3.82-5.83C374,372.55,375.47,371.56,377.45,372.56Z" style="fill: rgb(55, 71, 79); transform-origin: 377.682px 376.58px;" id="el42en2qby83l" class="animable"></path><path d="M376.46,376c0-.87.46-1.3,1.13-1a2.81,2.81,0,0,1,1.3,2.18c.05.87-.45,1.3-1.12,1A2.84,2.84,0,0,1,376.46,376Z" style="fill: rgb(38, 50, 56); transform-origin: 377.677px 376.59px;" id="el0fnvetx7hgos" class="animable"></path><path d="M377.66,376.19a.74.74,0,0,1,.36.56c0,.22-.13.31-.32.21a.74.74,0,0,1-.37-.55C377.32,376.19,377.47,376.1,377.66,376.19Z" style="fill: rgb(38, 50, 56); transform-origin: 377.675px 376.578px;" id="eli5v23dl9sb" class="animable"></path><path d="M384.28,376.94a8.15,8.15,0,0,0-4.12-6.29,3.76,3.76,0,0,0-1.7-.45,2.31,2.31,0,0,0-1.31.37c-.15.09-2.09,1.17-2.46,1.42a2.24,2.24,0,0,0-.42.34,3.06,3.06,0,0,0-.75,2.11l8.27,4.78,2.46-1.42A4.05,4.05,0,0,0,384.28,376.94Z" style="fill: rgb(224, 224, 224); transform-origin: 378.904px 374.71px;" id="el8lub95bkbu3" class="animable"></path><path d="M381.79,379.22l-8.27-4.77a3.07,3.07,0,0,1,.75-2.12,2.33,2.33,0,0,1,1.72-.71,3.77,3.77,0,0,1,1.71.45,8.15,8.15,0,0,1,4.12,6.29A4.05,4.05,0,0,1,381.79,379.22Z" style="fill: rgb(245, 245, 245); transform-origin: 377.674px 375.42px;" id="eloyegtvp18iq" class="animable"></path><path d="M380.48,211.12a.83.83,0,0,0-.49-.69,2.61,2.61,0,0,0-2.4,0,.85.85,0,0,0-.5.69v160a.85.85,0,0,0,.5.69,2.61,2.61,0,0,0,2.4,0,.83.83,0,0,0,.49-.69Z" style="fill: rgb(55, 71, 79); transform-origin: 378.785px 291.12px;" id="elsy7bgwcm55r" class="animable"></path><path d="M377.59,210.43a.73.73,0,0,0,0,1.38,2.67,2.67,0,0,0,2.4,0,.73.73,0,0,0,0-1.38A2.61,2.61,0,0,0,377.59,210.43Z" style="fill: rgb(69, 90, 100); transform-origin: 378.79px 211.116px;" id="elivtkid8ofs" class="animable"></path><path d="M163.1,390.16a.85.85,0,0,0-.06.85,2.65,2.65,0,0,0,1.84,1.54.85.85,0,0,0,.83-.22L305,225a.85.85,0,0,0,.06-.85,2.68,2.68,0,0,0-1.84-1.53.87.87,0,0,0-.83.21Z" style="fill: rgb(240, 240, 240); transform-origin: 234.05px 307.585px;" id="elubqcqk55f57" class="animable"></path><path d="M302.42,313.63a.83.83,0,0,0,.71-.46,2.67,2.67,0,0,0,.11-2.4.87.87,0,0,0-.67-.53L163.64,304a.83.83,0,0,0-.71.46,2.67,2.67,0,0,0-.11,2.4.87.87,0,0,0,.67.53Z" style="fill: rgb(240, 240, 240); transform-origin: 233.03px 308.815px;" id="eldujqs6eciwt" class="animable"></path><path d="M377.09,258.91l-71.46-41.26-139.91,81v4.76L237,344.53l140.06-80.86Z" style="fill: rgb(116, 92, 219); transform-origin: 271.405px 281.09px;" id="elhwe8w181w2w" class="animable"></path><g id="elv7uewmv8qre"><polygon points="165.72 298.69 165.72 303.44 237.03 344.53 237.03 339.78 165.72 298.69" style="opacity: 0.3; transform-origin: 201.375px 321.61px;" class="animable"></polygon></g><g id="elvvd7l79g8n"><polygon points="237.03 339.78 377.09 258.91 305.63 217.66 165.72 298.69 237.03 339.78" style="fill: rgb(255, 255, 255); opacity: 0.3; transform-origin: 271.405px 278.72px;" class="animable"></polygon></g><path d="M237.8,433.29a.85.85,0,0,0-.06.85,2.67,2.67,0,0,0,1.84,1.54.85.85,0,0,0,.83-.22L379.7,268.14a.85.85,0,0,0,.06-.85,2.66,2.66,0,0,0-1.84-1.53.84.84,0,0,0-.83.21Z" style="fill: rgb(240, 240, 240); transform-origin: 308.75px 350.718px;" id="el02b8tuwh6xzf" class="animable"></path><path d="M377.12,356.76a.86.86,0,0,0,.72-.46,2.64,2.64,0,0,0,.1-2.4.86.86,0,0,0-.67-.53l-138.93-6.24a.84.84,0,0,0-.71.46,2.67,2.67,0,0,0-.11,2.4.87.87,0,0,0,.67.53Z" style="fill: rgb(240, 240, 240); transform-origin: 307.734px 351.945px;" id="elzl7vf2fyfi" class="animable"></path><path d="M163.14,264.91a.85.85,0,0,0-.35.78,2.68,2.68,0,0,0,1.2,2.08.86.86,0,0,0,.85.08l139.25-80.36a.84.84,0,0,0,.35-.77,2.67,2.67,0,0,0-1.2-2.08.84.84,0,0,0-.85-.08Z" style="fill: rgb(69, 90, 100); transform-origin: 233.615px 226.203px;" id="elamli72i2g9" class="animable"></path><path d="M164,267.77a.73.73,0,0,0,1.2-.7A2.65,2.65,0,0,0,164,265a.87.87,0,0,0-.85-.09.85.85,0,0,0-.35.78A2.68,2.68,0,0,0,164,267.77Z" style="fill: rgb(69, 90, 100); transform-origin: 164.006px 266.397px;" id="eljhs2uwuimr9" class="animable"></path><g id="freepik--character--inject-9" class="animable" style="transform-origin: 221.563px 208.122px;"><path d="M315.42,204.66a3.12,3.12,0,0,0,.3-2.8,1,1,0,0,0-.75-.67l-161.19-18.3-.43,4,161.18,18.29A1,1,0,0,0,315.42,204.66Z" style="fill: rgb(38, 50, 56); transform-origin: 234.636px 194.035px;" id="elfuzokmhlh0p" class="animable"></path><path d="M154.52,183.56a.86.86,0,0,0-1.61-.18,3.13,3.13,0,0,0-.31,2.8.86.86,0,0,0,1.62.18A3.12,3.12,0,0,0,154.52,183.56Z" style="fill: rgb(55, 71, 79); transform-origin: 153.562px 184.877px;" id="el45y8ronjydn" class="animable"></path><path d="M143.66,195.86a.43.43,0,0,0,0-.05.35.35,0,0,0-.34-.35l-9.66-.16a.34.34,0,0,0,0,.68l9.66.16A.33.33,0,0,0,143.66,195.86Z" style="fill: rgb(55, 71, 79); transform-origin: 138.492px 195.72px;" id="elkrunye76rms" class="animable"></path><path d="M137.43,199.68a12.26,12.26,0,0,1-9.51-5.7c-.87-1.58-.92-3-.29-4h0l13.16-21.95,13.48,8L141.11,198h0C140.53,199.06,139.26,199.71,137.43,199.68Z" style="fill: rgb(116, 92, 219); transform-origin: 140.738px 183.855px;" id="el2ra8g72qwlh" class="animable"></path><g id="eljivs15qzvwd"><path d="M137.43,199.68a12.26,12.26,0,0,1-9.51-5.7c-.87-1.58-.92-3-.29-4h0l13.16-21.95,13.48,8L141.11,198h0C140.53,199.06,139.26,199.71,137.43,199.68Z" style="opacity: 0.1; transform-origin: 140.738px 183.855px;" class="animable"></path></g><path d="M141.09,172a12.24,12.24,0,0,0,9.5,5.7c3.54.05,5-2.4,3.29-5.49a12.24,12.24,0,0,0-9.5-5.7C140.84,166.48,139.37,168.94,141.09,172Z" style="fill: rgb(116, 92, 219); transform-origin: 147.483px 172.105px;" id="elx7m95sbnamn" class="animable"></path><g id="elcnsb3052rg6"><path d="M141.09,172a12.24,12.24,0,0,0,9.5,5.7c3.54.05,5-2.4,3.29-5.49a12.24,12.24,0,0,0-9.5-5.7C140.84,166.48,139.37,168.94,141.09,172Z" style="fill: rgb(255, 255, 255); opacity: 0.2; transform-origin: 147.483px 172.105px;" class="animable"></path></g><path d="M145.82,172.11a3.21,3.21,0,0,0,2.47,1.48c.92,0,1.31-.63.86-1.43a3.19,3.19,0,0,0-2.47-1.48C145.76,170.66,145.37,171.3,145.82,172.11Z" style="fill: rgb(69, 90, 100); transform-origin: 147.485px 172.135px;" id="el7vb1ma9o6oe" class="animable"></path><path d="M159.87,174.25a1.93,1.93,0,0,0-.19-1.33,2.37,2.37,0,0,0-2.19-1.07l-10-.17a.33.33,0,0,0-.34.34.32.32,0,0,0,.33.34l10,.17a1.47,1.47,0,0,1,1.37,2.46L148.2,192.76a6.16,6.16,0,0,1-4.87,2.7.34.34,0,0,0,0,.68,6.93,6.93,0,0,0,5.46-3l10.65-17.76A3.42,3.42,0,0,0,159.87,174.25Z" style="fill: rgb(55, 71, 79); transform-origin: 151.452px 183.91px;" id="elncxvdwugew" class="animable"></path><g id="freepik--Bottom--inject-9" class="animable" style="transform-origin: 246.565px 252.164px;"><path d="M204.09,308.38c-.52-.06-.56,1.17-.25,1.77.88,1.71,3.4,3.59,7.12,4.47s11.07.08,13.29.05,6,1.14,8.22,1.54c4,.72,6.8-.31,8.14-1.55a2.33,2.33,0,0,0,.59-1.84c0-1.49-.13-1.8-.3-1.79Z" style="fill: rgb(38, 50, 56); transform-origin: 222.43px 312.413px;" id="el8c7wkmctcqc" class="animable"></path><path d="M240.56,306.67a18.38,18.38,0,0,1,.24,5.39,4.21,4.21,0,0,1-2.76,2,15.74,15.74,0,0,1-8.11-.13,22.39,22.39,0,0,0-5.7-.76c-2.29.08-7.36.47-9.66.45a15.7,15.7,0,0,1-6.22-1.31c-1.5-.72-3.77-2.29-4.26-3.45-.43-2.69-.12-4.28,1.49-5.16s4.09-1.06,7.41-1.24c1-.05,2.24-.08,2.77-.12,2-.18,3.88-.28,5.4-.34a8.94,8.94,0,0,0,3.76-.72,2.47,2.47,0,0,0,1.26-1.14c.33-.68.35-1.68,1-1.73,0,0,11.29,2.12,12.2,2.23C240.4,300.76,239.68,302.22,240.56,306.67Z" style="fill: rgb(55, 71, 79); transform-origin: 222.406px 306.469px;" id="el5znx6pp6r8o" class="animable"></path><path d="M214.88,302.21a2.92,2.92,0,0,0-.85.94,5.56,5.56,0,0,0-.55,1.28c-.16.56.55.68.84,0a7.08,7.08,0,0,1,.85-1.51,1.82,1.82,0,0,1,1-.67l.58,0C216.59,301.82,215.33,301.93,214.88,302.21Z" style="fill: rgb(250, 250, 250); transform-origin: 215.103px 303.43px;" id="el0bhh7cbyzt1" class="animable"></path><path d="M220,301.73a1.4,1.4,0,0,0-1.07.3,2.57,2.57,0,0,0-.83,1.15,9.48,9.48,0,0,0-.49,1.65c-.05.37.82.37.92,0a15.46,15.46,0,0,1,.48-1.51c.11-.25.58-1.19,1.19-1.27h.27c0-.13-.16-.22-.28-.25Z" style="fill: rgb(250, 250, 250); transform-origin: 219.039px 303.412px;" id="elbb19vaw21qh" class="animable"></path><path d="M223,301.71a1.11,1.11,0,0,0-.67.36,3,3,0,0,0-.49.87,6.07,6.07,0,0,0-.31,1.78c0,.46.86.36.89,0a4.55,4.55,0,0,1,.63-2.34,2.21,2.21,0,0,1,.77-.75c0-.08-.15-.1-.24-.09S223.14,301.67,223,301.71Z" style="fill: rgb(250, 250, 250); transform-origin: 222.675px 303.283px;" id="elj83btl9scbj" class="animable"></path><path d="M240.75,288.75s-1.2,10.15-1.5,12.49c-.1.75-1.56,1-2.31,1.32a9.15,9.15,0,0,0-2.61,1.39c-2,1.81-3.39,2.21-4.46-1.05-.22-.67-.65-1-1.53-.82a5.32,5.32,0,0,1-2,.22c-.1-.06,0-.21,0-.31a3.14,3.14,0,0,0,.74-2.54c-.23-4.16-.32-8.34-.47-12.51Z" style="fill: rgb(200, 133, 106); transform-origin: 233.523px 296.137px;" id="elvknjx99qxc" class="animable"></path><path d="M283.81,281.5c-1.3-2.13-3.28-7.83-4.87-13.86L266,273.15s7.52,14,8.38,15.29C275.83,290.53,283.81,281.5,283.81,281.5Z" style="fill: rgb(200, 133, 106); transform-origin: 274.905px 278.197px;" id="el4eng759xvf" class="animable"></path><path d="M287.91,286.07c0-.12.08-1.11,0-1.23-.26-1.08-.93-1.39-1.79-2a13.39,13.39,0,0,1-2.35-2c-.28-.4-.33-.6-.78-.79a4.36,4.36,0,0,0-3.53.37c-2.53,1.23-3.32,2.75-3.21,4.42.08,1.28.15,3-1,3.7-.48.31-1.59-1.28-1.59-1.28-.74,1.15.62,2.31,1.09,4.67a9.39,9.39,0,0,1,0,3.95c-.3,2.05-.59,2-1.71,2.16s-3.71-.14-5.4,1a3.4,3.4,0,0,0-1.76,3.61c.27.8,2.69,4.7,11.84,3.46,2.66-.36,8.31-4.31,8.24-4.69a5,5,0,0,1,0-1.16l.18-2.73a13.23,13.23,0,0,1,.21-2.6,13.91,13.91,0,0,0,.39-2.14c.21-1.83.43-3.65.64-5.48C287.5,286.7,288,286.59,287.91,286.07Z" style="fill: rgb(55, 71, 79); transform-origin: 276.886px 293.094px;" id="elx3156imkx2" class="animable"></path><path d="M289.07,285.73c.88.87.28,3.32-1,6.26a12,12,0,0,0-1.38,5.95c.24,2.4.27,3.54-.39,4.65-1,1.74-6.39,3.88-9.53,4.52a16.64,16.64,0,0,0,3.38-8.74c.43-5.3.92-8.7,3.46-11C286.82,284.46,289.07,285.73,289.07,285.73Z" id="elxxipj8cpb1f" class="animable" style="transform-origin: 283.128px 296.282px;"></path><path d="M265.89,302.56s1.75,3.39,8.81,3.43c2.78,0,4.3-1.27,4.46-5.39.19-5,.72-10,2.42-12.41a7.34,7.34,0,0,1,6.38-3.35,1.94,1.94,0,0,1,1.11.89s-2-.69-5.25,1.8c-2.38,1.85-3.1,5.79-3.17,10.7,0,2.12.05,4.52-.63,6.11a5,5,0,0,1-3.43,2.83c-3.86,1-9.08-.88-10.37-2.49A2.4,2.4,0,0,1,265.89,302.56Z" style="fill: rgb(38, 50, 56); transform-origin: 277.423px 296.143px;" id="el3ib5mshncw4" class="animable"></path><path d="M274.49,297.11a1.46,1.46,0,0,0-.59.81A2.35,2.35,0,0,0,275,300.1c.42.27.79.19.13-.69A4.32,4.32,0,0,1,274.49,297.11Z" style="fill: rgb(250, 250, 250); transform-origin: 274.692px 298.673px;" id="elbstwj68nohq" class="animable"></path><path d="M274.93,294.55s-.23.14-.3.83a3.35,3.35,0,0,0,1.25,2.24c.74.37.36-.47,0-.89A5.38,5.38,0,0,1,274.93,294.55Z" style="fill: rgb(250, 250, 250); transform-origin: 275.467px 296.131px;" id="elzwvozbcech8" class="animable"></path><path d="M274.74,291.7s-.24.07,0,1a3.05,3.05,0,0,0,1.51,1.35c.47.07.71-.16.13-.59S274.82,292.17,274.74,291.7Z" style="fill: rgb(250, 250, 250); transform-origin: 275.677px 292.881px;" id="elideru6k8m1a" class="animable"></path><path d="M269.38,279.81s-6-10.8-15.11-27.18a21.23,21.23,0,0,1-2.8-7.48c-.58-2.71-3.56-16.37-3.56-16.37l-4,22a48.76,48.76,0,0,1,1,8.74,128.6,128.6,0,0,1-1.9,16.67c-1.87,11.45-2.76,17.56-2.76,17.56-.85.56-1.89,1.36-7.69,1.16a15.45,15.45,0,0,1-5.88-1.74s-.76-12-1-20.31c-.22-7.7-.67-16.4-.9-21-.44-8.73-.56-12.49-.34-26.22.22-14.24,1.8-35.16,1.8-35.16l43.43-2.6s.56,5.58.63,19.65c.05,12,0,33.6,0,33.6,3.45,4.87,4.1,8.53,5.86,15.4,2,7.64,3.16,12.07,4.73,17.64C277.63,274,270.65,277.56,269.38,279.81Z" style="fill: rgb(69, 90, 100); transform-origin: 252.611px 241.411px;" id="elqh5v0l6hvz" class="animable"></path><path d="M272.77,277c-.22.12-.41.25-.61.37-3.32-5.85-11.7-20.68-14.37-26.12s-4.62-14-7.08-26.3q-.5-2.46-1-5.13l-.15-.78.33-2,.53,2.64c.21,1.12.44,2.2.65,3.27,2.64,13.26,4.55,22.21,7.39,28C261.1,256.33,269.43,271.09,272.77,277Z" style="fill: rgb(55, 71, 79); transform-origin: 261.165px 247.205px;" id="elczvksb1oxrc" class="animable"></path><path d="M231.1,190.55h-.72c-.58,6.05-1,13.61-1.23,22.1-1.45-.72-3-2.2-3.93-5.17l-.09,1.73a7.92,7.92,0,0,0,4,4.2c-.69,24.11-.2,55.48.92,81.1l.73.18C229.23,259.68,228.87,213.87,231.1,190.55Z" style="fill: rgb(55, 71, 79); transform-origin: 228.115px 242.62px;" id="elqxhksx20ksc" class="animable"></path><path d="M247.88,228.89l2.64-15.78s5.38-.28,12-5.39c0,0-1,4.67-10.18,7.69l-2.54,15.26,1.4,13S247.91,229.2,247.88,228.89Z" style="fill: rgb(55, 71, 79); transform-origin: 255.2px 225.695px;" id="el4uy7a3m269j" class="animable"></path></g><g id="freepik--Top--inject-9" class="animable" style="transform-origin: 226.937px 150.902px;"><path d="M277.28,154.33c-3.5-4.8-7.08-10.31-10.12-14.1-4.11-5.11-14.3-2.31-14.32-2.31l6.47,13.81,11.25,14.48L263.07,179l5.63,7.2s10-12.06,12.79-15.58c2.91-3.68,2.92-5,1.35-8.21C281.65,160,280.77,159.12,277.28,154.33Z" style="fill: rgb(200, 133, 106); transform-origin: 268.362px 161.677px;" id="elbih5m1cxlxi" class="animable"></path><path d="M272.77,163.12c1.18-.74,5.3-5.21,6-7-4-6.34-8.66-13.72-10.88-16.47-1.76-2.19-3.57-4.53-9.52-4.65l-.75,16.17,7.13,14.56A17.11,17.11,0,0,0,272.77,163.12Z" style="fill: rgb(38, 50, 56); transform-origin: 268.195px 150.365px;" id="el0g78rpd3znob" class="animable"></path><path d="M258.83,135.08c6,.38,7,3,9.24,14,1.9,9.23,2.3,45.67,2.3,45.67s-5.88,6.29-21.19,7.16c-15.85.91-23.62-4.9-23.62-4.9s.15-1.5.27-8.68c.06-3.56.11-6.42.14-8.94,0-3.19-.18-4.89-.48-10.57s-1.55-14.89-.1-20.83c1.05-2.29,2.92-5.59,5.59-6.51,1-.33,7.44-2.66,10.27-3.37,4.06-1,5.29-1.52,8.15-2.1A30.88,30.88,0,0,1,258.83,135.08Z" style="fill: rgb(116, 92, 219); transform-origin: 247.537px 168.519px;" id="el8pa4thphmgk" class="animable"></path><g id="eljil8jb3mkfr"><path d="M258.83,135.08c6,.38,7,3,9.24,14,1.9,9.23,2.3,45.67,2.3,45.67s-5.88,6.29-21.19,7.16c-15.85.91-23.62-4.9-23.62-4.9s.15-1.5.27-8.68c.06-3.56.11-6.42.14-8.94,0-3.19-.18-4.89-.48-10.57s-1.55-14.89-.1-20.83c1.05-2.29,2.92-5.59,5.59-6.51,1-.33,7.44-2.66,10.27-3.37,4.06-1,5.29-1.52,8.15-2.1A30.88,30.88,0,0,1,258.83,135.08Z" style="fill: rgb(255, 255, 255); opacity: 0.3; transform-origin: 247.537px 168.519px;" class="animable"></path></g><path d="M256.18,170c-.11-3.06-.29-6.14-.67-9.18s-.84-5.88-1.41-8.79c-.61-3.12-1.53-6.17-2.42-9.21-.14-.5-.55-.14-.46.25a149.18,149.18,0,0,1,2.91,17.56c.31,2.88.62,5.74.78,8.63.17,3,.15,6.08.45,9.12,0,.36.54.61.61.13A44.78,44.78,0,0,0,256.18,170Z" style="fill: rgb(116, 92, 219); transform-origin: 253.749px 160.675px;" id="el8vknfp8ofea" class="animable"></path><path d="M252.65,195.92c6.82-.79,14.08-3.57,17.65-5.93,0-1.05-.05-2.26-.07-3.57-3.61,2.38-10.85,5.16-17.69,6-9,1-19,.5-26.73-2.58,0,1.4-.06,2.54-.08,3.46C233.49,196.4,243.61,197,252.65,195.92Z" style="fill: rgb(250, 250, 250); transform-origin: 248.015px 191.418px;" id="elnope8vvnalh" class="animable"></path><path d="M252.31,184.93c-8.83,1-18.69.51-26.38-2.45v0c0,.51,0,1,0,1.58v.12c0,.57,0,1.15,0,1.75,7.71,3,17.66,3.54,26.55,2.5,6.87-.8,14.07-3.59,17.72-6,0-1.15-.06-2.34-.1-3.56A46,46,0,0,1,252.31,184.93Z" style="fill: rgb(250, 250, 250); transform-origin: 248.065px 183.893px;" id="eloddi4npu3k" class="animable"></path><path d="M255.31,135.07c-.95-.1-1.78-.15-2-1.87a21.08,21.08,0,0,1-.14-4.39c.2-2.24,3.4-7.23,3.47-13.33s-8.73-15-15.84-13.86-10.69,5.24-12.33,10.62c-1,3.28.24,3.84-.11,5.71-.69,3.69-1,8.67.65,13.26a5.53,5.53,0,0,0,4.67,3.76,18.12,18.12,0,0,0,4.64.06s.09.73.16,1.41c.23,2.17-.25,2.53-1,2.82C240.31,141.08,254.56,139.45,255.31,135.07Z" style="fill: rgb(200, 133, 106); transform-origin: 242.222px 120.757px;" id="elk2vgjyr3xpb" class="animable"></path><path d="M228.37,112.64a4,4,0,0,1,2-3c.61-.35,1.31.32,1.77.58a6.06,6.06,0,0,0,2.07.71c2,.3,3.92-.38,5.86-.74a18.74,18.74,0,0,1,2.89-.29,1.11,1.11,0,0,1,.86.23c.39.39.06,1-.18,1.53a3.84,3.84,0,0,0-.23,2.82,4.1,4.1,0,0,0,.83,1.23,12.79,12.79,0,0,0,1.11.77,12.74,12.74,0,0,0,.19,3.08c.1.54.35,1.19.9,1.25.85.09,1.13-.9,1.49-1.44a3.68,3.68,0,0,1,1.75-1.44,3.07,3.07,0,0,1,3.83,1.74,5.16,5.16,0,0,1-.09,3,5.8,5.8,0,0,1-1.6,3,2.5,2.5,0,0,1-3.21.17,4,4,0,0,0,1.15,2.78,4.46,4.46,0,0,0,3.43,1.54,37.31,37.31,0,0,1,1.85-5.68,54.65,54.65,0,0,0,2-5.36,15,15,0,0,0-.16-8.09,12.57,12.57,0,0,0-2-3.94,15.84,15.84,0,0,0-3.25-3.24c-3.58-2.53-7.05-3.22-12.48-2.68a14.09,14.09,0,0,0-6.42,2.82C229,107.19,228.27,110.53,228.37,112.64Z" style="fill: rgb(38, 50, 56); transform-origin: 242.94px 115.579px;" id="elu33ekz4bn7h" class="animable"></path><path d="M233.73,127.32a2.21,2.21,0,0,0,2.8,1.34,2.18,2.18,0,0,0,1.36-2.77Z" style="fill: rgb(175, 97, 82); transform-origin: 235.869px 127.335px;" id="elv9w7gffzpy" class="animable"></path><path d="M235.46,128.74a3.09,3.09,0,0,1,2.54-2.12,2.16,2.16,0,0,1-2.54,2.12Z" style="fill: rgb(242, 143, 143); transform-origin: 236.73px 127.697px;" id="elam9fevezgz" class="animable"></path><path d="M237.83,118.77a1.16,1.16,0,0,0,.82,1.42,1.18,1.18,0,0,0,1.4-.86,1.16,1.16,0,0,0-.81-1.42A1.19,1.19,0,0,0,237.83,118.77Z" style="fill: rgb(38, 50, 56); transform-origin: 238.94px 119.05px;" id="eldxbbktql9sc" class="animable"></path><path d="M238.74,115l2.5,1.24a1.45,1.45,0,0,0-.64-1.9A1.38,1.38,0,0,0,238.74,115Z" style="fill: rgb(38, 50, 56); transform-origin: 240.059px 115.22px;" id="ele0zptixdjcp" class="animable"></path><path d="M228.9,116l2.57-1.15a1.35,1.35,0,0,0-1.82-.72A1.45,1.45,0,0,0,228.9,116Z" style="fill: rgb(38, 50, 56); transform-origin: 230.131px 115.002px;" id="elawk3h26snir" class="animable"></path><path d="M229.92,118.67a1.05,1.05,0,1,0,1-1.14A1.08,1.08,0,0,0,229.92,118.67Z" style="fill: rgb(38, 50, 56); transform-origin: 230.967px 118.579px;" id="ele261xvmv17n" class="animable"></path><path d="M229.32,123.36l4,1.63,1.55-7.62C233.29,116.91,231,120.25,229.32,123.36Z" style="fill: rgb(175, 97, 82); transform-origin: 232.095px 121.159px;" id="elctrq9vjw3bb" class="animable"></path><path d="M238.32,135a15.49,15.49,0,0,0,4.89-1.46,8.89,8.89,0,0,0,4.45-5.06,8,8,0,0,1-4,6.08,14.23,14.23,0,0,1-5.13,1.85Z" style="fill: rgb(175, 97, 82); transform-origin: 242.99px 132.445px;" id="el7t5ml3l1565" class="animable"></path><path d="M257.43,116.24a15.41,15.41,0,0,1-.85,4.32c-.34-.39-.72-.77-1.11-1.14a25.8,25.8,0,0,0-7.68-4.78h0c-6.54-2.71-13.34-3.44-19.54-1.41a4.23,4.23,0,0,1-.08-3.57,15.22,15.22,0,0,1,29.27,6.58Z" style="fill: rgb(116, 92, 219); transform-origin: 242.637px 110.402px;" id="eltar3pjvxino" class="animable"></path><path d="M250.18,101.41c-.78-.34-4.67-1.31-5-1.39-2-.51-5.2-.33-8.35,2.52a15.41,15.41,0,0,0-4.75,8.51l4.13,1.09,1.3.07c.35-3,4-9.64,9.53-10.14a5.18,5.18,0,0,1,.79,0,7,7,0,0,1,2.16.34,20.68,20.68,0,0,1,2.23,1.62A3.39,3.39,0,0,0,250.18,101.41Z" style="fill: rgb(116, 92, 219); transform-origin: 242.15px 106.003px;" id="el43w8kuhpar4" class="animable"></path><g id="el6bv3g7k7wyr"><path d="M250.18,101.41c-.78-.34-4.67-1.31-5-1.39-2-.51-5.2-.33-8.35,2.52a15.41,15.41,0,0,0-4.75,8.51l4.13,1.09,1.3.07c.35-3,4-9.64,9.53-10.14a5.18,5.18,0,0,1,.79,0,7,7,0,0,1,2.16.34,20.68,20.68,0,0,1,2.23,1.62A3.39,3.39,0,0,0,250.18,101.41Z" style="fill: rgb(255, 255, 255); opacity: 0.45; transform-origin: 242.15px 106.003px;" class="animable"></path></g><path d="M237.53,112.21c.41-3.5,5.34-12,12.48-9.83a20.24,20.24,0,0,1,2.23,1.63,3.43,3.43,0,0,0-2.06-2.6c-1.87-.8-5.56-1.06-9.21,2.23a15.43,15.43,0,0,0-4.74,8.51Z" style="fill: rgb(116, 92, 219); transform-origin: 244.235px 106.553px;" id="elv3g8ycow8gc" class="animable"></path><g id="elbra801jfjaj"><path d="M237.53,112.21c.41-3.5,5.34-12,12.48-9.83a20.24,20.24,0,0,1,2.23,1.63,3.43,3.43,0,0,0-2.06-2.6c-1.87-.8-5.56-1.06-9.21,2.23a15.43,15.43,0,0,0-4.74,8.51Z" style="opacity: 0.3; transform-origin: 244.235px 106.553px;" class="animable"></path></g><path d="M247.81,113.49a16.1,16.1,0,0,0-6.68-5.41c-3-1.44-9.09-1.25-11.81-1.08-4.76.3-5.85,1.36-5.88,2.06,0,.17,0,1-.05,1.12a.66.66,0,0,0,.12.45c.76,1.05,4.69,2.74,4.69,2.74,5.88-1.92,13.36-1.3,19.56,1.26Z" style="fill: rgb(116, 92, 219); transform-origin: 235.598px 110.757px;" id="el4rwutr914el" class="animable"></path><g id="elfusojvdrcej"><path d="M247.81,113.49a16.1,16.1,0,0,0-6.68-5.41c-3-1.44-9.09-1.25-11.81-1.08-4.76.3-5.85,1.36-5.88,2.06,0,.17,0,1-.05,1.12a.66.66,0,0,0,.12.45c.76,1.05,4.69,2.74,4.69,2.74,5.88-1.92,13.36-1.3,19.56,1.26Z" style="opacity: 0.15; transform-origin: 235.598px 110.757px;" class="animable"></path></g><path d="M247.76,114.63c-6.2-2.56-13.68-3.18-19.56-1.26,0,0-3.93-1.69-4.69-2.74-.41-.58-.14-2.13,5.75-2.49,2.72-.17,8.79-.36,11.82,1.08A16.28,16.28,0,0,1,247.76,114.63Z" style="fill: rgb(116, 92, 219); transform-origin: 235.572px 111.327px;" id="el5q3trlou0ze" class="animable"></path><g id="el5k7oyh5jon"><path d="M247.76,114.63c-6.2-2.56-13.68-3.18-19.56-1.26,0,0-3.93-1.69-4.69-2.74-.41-.58-.14-2.13,5.75-2.49,2.72-.17,8.79-.36,11.82,1.08A16.28,16.28,0,0,1,247.76,114.63Z" style="opacity: 0.3; transform-origin: 235.572px 111.327px;" class="animable"></path></g><path d="M230.13,142.23c-4.4,1.12-6.38,2.42-9.76,8.33-4.72,8.25-8.51,14.7-9.27,15.82,0,0-11.61,7.07-14.1,8.17-3.54,1.55-4.26,1.94-8.08,2-1.32,0-2.65,0-4,.11a12,12,0,0,0-2.8.49l-8,2.44c-1.24.38-2.49.76-3.71,1.23-.69.27-.43.91.07,1.22a3.78,3.78,0,0,0,2.12.43,21.38,21.38,0,0,0,3.8-.56l4.05-.78a.73.73,0,0,1,.36,0c.71.18-.41.94-.61,1.11s-.7.55-1,.86a21.71,21.71,0,0,0-1.72,2,1.91,1.91,0,0,0-.41,1.86,9,9,0,0,0,1.2,2.61c.33.54.9.72,2,1.16s1.4.6,1.62.28a1.26,1.26,0,0,0,0-.88,10,10,0,0,0,1.59,1.46,2.32,2.32,0,0,0,2.1.62c1-.16,1.27-.22,1.27-.22a5,5,0,0,0,.93.73,2.54,2.54,0,0,0,1.7.09c.67-.1,1.21-.16,1.26-.41s0-1-1.33-1.16c0,0-.9-.51-1.22-2.64-.06-.4.11-1.1.65-1.18,1.11-.16,3.78.36,6.1-.75s2.42-2.06,4.44-2.94c1-.43,6.47-2.38,11.33-4,6-2,8.81-3,10.84-5s5.07-7.76,7.11-10.53a20.78,20.78,0,0,0,3.87-12C233.38,143.58,230.13,142.23,230.13,142.23ZM182,185.89a21.19,21.19,0,0,0-.73,3.21,2,2,0,0,0-.66-.41l-.67-1.61a20.54,20.54,0,0,1,1.56-1.55C182,185.21,182.14,185.3,182,185.89Z" style="fill: rgb(200, 133, 106); transform-origin: 201.331px 167.573px;" id="eleeoeuk26dyr" class="animable"></path><path d="M185.13,187.69a13.36,13.36,0,0,0,1.75,4.27l-.36.07-.86-1.7a1.3,1.3,0,0,1-.67-.42,3.65,3.65,0,0,1-.51-1.31C184.48,188.27,185.13,187.69,185.13,187.69Z" style="fill: rgb(175, 97, 82); transform-origin: 185.68px 189.86px;" id="elx89rcxgwi9" class="animable"></path><path d="M185.93,180.53l-1.16.2a9.58,9.58,0,0,0-1.28.32,4.73,4.73,0,0,0-.68.33l-.24.16a.93.93,0,0,0-.18.16c0,.07,0,.1-.12.15s.07.17.14.13.17,0,.26-.06a1.36,1.36,0,0,0,.33-.14l.55-.28a5.12,5.12,0,0,1,1.13-.48c.4-.12.81-.19,1.21-.31a4.16,4.16,0,0,0,1.18-.42s0,0,0,0C186.67,180.34,186.31,180.47,185.93,180.53Z" style="fill: rgb(175, 97, 82); transform-origin: 184.651px 181.139px;" id="elu0nsb1sab4j" class="animable"></path><path d="M185.64,182.4a6,6,0,0,0-2.07,2c0,.06.08.11.12.07a18.88,18.88,0,0,1,2.2-1.87,23.19,23.19,0,0,1,2.34-1.85,0,0,0,0,0,0,0C187.34,181.3,186.47,181.81,185.64,182.4Z" style="fill: rgb(175, 97, 82); transform-origin: 185.9px 182.617px;" id="el0l5cymb8actf" class="animable"></path><path d="M186.9,178.42c-.56.07-1.13.11-1.7.2s-1,.14-1.51.24c-.25,0-.51.1-.76.17s-.49.19-.73.28c-.06,0,0,.09.06.08.26,0,.52,0,.78-.06l.8-.14c.56-.11,1.12-.24,1.68-.34s1-.2,1.56-.28a8,8,0,0,0,1.47-.23s0-.05,0-.05A8.85,8.85,0,0,0,186.9,178.42Z" style="fill: rgb(175, 97, 82); transform-origin: 185.363px 178.84px;" id="el8fzxqxtdi6x" class="animable"></path><path d="M230.58,141.64c-6.15,1.71-7,2.51-12,11.37-3.91,7-7.37,12.68-7.37,12.68s1.16,2.51,5.56,5.4c4,2.59,6.38,2.69,7.19,1.9,0,0,5.33-7.77,7.22-11.32C233.66,157.08,234,144,230.58,141.64Z" style="fill: rgb(55, 71, 79); transform-origin: 222.152px 157.532px;" id="ell72aq846pu" class="animable"></path></g></g><g id="freepik--paint-pot--inject-9" class="animable" style="transform-origin: 304.877px 252.206px;"><g id="freepik--shadow--inject-9"><ellipse cx="305.32" cy="265.29" rx="19.35" ry="11.17" style="opacity: 0.1; transform-origin: 305.32px 265.29px;" class="animable"></ellipse></g><g id="freepik--paint-pot--inject-9" class="animable" style="transform-origin: 303.465px 250.483px;"><path d="M321.84,237.53l-32.33-.44-.28,26.41h0c0,2.39,1.53,4.8,4.66,6.65,6.28,3.72,16.51,3.83,22.87.25,3.2-1.81,4.8-4.2,4.8-6.61Z" style="fill: rgb(55, 71, 79); transform-origin: 305.535px 255.052px;" id="ela6qz2c8ypje" class="animable"></path><path d="M294.32,230.55c-6.35,3.58-6.41,9.49-.14,13.2s16.51,3.83,22.86.25,6.42-9.49.14-13.2S300.67,227,294.32,230.55Z" style="fill: rgb(69, 90, 100); transform-origin: 305.682px 237.281px;" id="elhcwdd1k17he" class="animable"></path><path d="M320.45,237.43a4.11,4.11,0,0,1-.23,1.27,7.81,7.81,0,0,1-3.87,4.08,24,24,0,0,1-21.46-.23,7.83,7.83,0,0,1-3.74-4.08,4,4,0,0,1-.23-1.36c0-2,1.47-3.87,4.1-5.33a21.59,21.59,0,0,1,10.74-2.43A21.91,21.91,0,0,1,316.48,232C319.06,233.54,320.47,235.46,320.45,237.43Z" style="fill: rgb(38, 50, 56); transform-origin: 305.685px 237.268px;" id="eldly5myamr4c" class="animable"></path><path d="M320.22,238.7a7.81,7.81,0,0,1-3.87,4.08,24,24,0,0,1-21.46-.23,7.83,7.83,0,0,1-3.74-4.08A7.73,7.73,0,0,1,295,234.4,21.69,21.69,0,0,1,305.76,232a22,22,0,0,1,10.72,2.67A7.91,7.91,0,0,1,320.22,238.7Z" style="fill: rgb(116, 92, 219); transform-origin: 305.685px 238.592px;" id="elg0pz3cugeyn" class="animable"></path><g id="elf9cg3bugh6"><path d="M320.22,238.7a7.81,7.81,0,0,1-3.87,4.08,24,24,0,0,1-21.46-.23,7.83,7.83,0,0,1-3.74-4.08A7.73,7.73,0,0,1,295,234.4,21.69,21.69,0,0,1,305.76,232a22,22,0,0,1,10.72,2.67A7.91,7.91,0,0,1,320.22,238.7Z" style="fill: rgb(255, 255, 255); opacity: 0.6; transform-origin: 305.685px 238.592px;" class="animable"></path></g><g id="el3x2ttnmxf81"><path d="M316.35,242.78a13.38,13.38,0,0,0,1.47-1c-5.9,3.16-16,1.71-19.21-.66-4-2.91-3.59-6.73,1.55-8.63A18.18,18.18,0,0,0,295,234.4a7.73,7.73,0,0,0-3.87,4.07,7.83,7.83,0,0,0,3.74,4.08,24,24,0,0,0,21.46.23Z" style="fill: rgb(116, 92, 219); opacity: 0.35; transform-origin: 304.475px 238.844px;" class="animable"></path></g><path d="M312.57,247.43c.71-.4,1.27-.07,1.26.75a2.79,2.79,0,0,1-1.3,2.19c-.7.4-1.27.07-1.26-.75A2.82,2.82,0,0,1,312.57,247.43Z" style="fill: rgb(38, 50, 56); transform-origin: 312.55px 248.9px;" id="elkbji3h1fff" class="animable"></path><path d="M289.46,241.74c-1.78,3.5-5.32,11.84-.72,15.23.19.14.36.27.56.39l0,1.69c-.46-.28-.93-.6-1.39-.93-6.86-5.09.88-18.14,1.21-18.69a.67.67,0,0,1,.39-.29Z" style="fill: rgb(224, 224, 224); transform-origin: 287.297px 249.095px;" id="elxnpxhfdb03" class="animable"></path><path d="M313.17,249.23c-.19.41-5.19,10-13.41,11.88a12.42,12.42,0,0,1-2.83.33,14.28,14.28,0,0,1-7.65-2.39l0-1.69c3.39,2.36,6.81,3.17,10.15,2.39,7.58-1.78,12.43-11.08,12.47-11.17a.71.71,0,0,1,.95-.3A.69.69,0,0,1,313.17,249.23Z" style="fill: rgb(224, 224, 224); transform-origin: 301.265px 254.821px;" id="elc6gixum1l6m" class="animable"></path></g></g><path d="M169,414.7a7.67,7.67,0,0,0-3.82-5.83,2.43,2.43,0,0,0-2.56,0h0l-2.44,1.36,5.47,8.2,2.42-1.46h0A2.22,2.22,0,0,0,169,414.7Z" style="fill: rgb(69, 90, 100); transform-origin: 164.611px 413.468px;" id="el7saltqipav2" class="animable"></path><path d="M162.69,410.3a7.72,7.72,0,0,1,3.82,5.83c.12,2.22-1.39,3.2-3.37,2.2a7.67,7.67,0,0,1-3.82-5.83C159.19,410.28,160.7,409.3,162.69,410.3Z" style="fill: rgb(55, 71, 79); transform-origin: 162.914px 414.315px;" id="elysewt1zw94" class="animable"></path><path d="M161.7,413.7c0-.87.45-1.3,1.12-1a2.82,2.82,0,0,1,1.31,2.19c.05.87-.46,1.29-1.13,1A2.81,2.81,0,0,1,161.7,413.7Z" style="fill: rgb(38, 50, 56); transform-origin: 162.917px 414.293px;" id="el7na6kxaenai" class="animable"></path><path d="M162.89,413.93a.76.76,0,0,1,.37.56c0,.21-.14.31-.33.21a.74.74,0,0,1-.36-.56C162.56,413.93,162.7,413.83,162.89,413.93Z" style="fill: rgb(38, 50, 56); transform-origin: 162.915px 414.315px;" id="elg7ax64ro3zm" class="animable"></path><path d="M169.51,414.67a8.17,8.17,0,0,0-4.12-6.29,3.76,3.76,0,0,0-1.7-.45,2.42,2.42,0,0,0-1.31.37c-.15.1-2.08,1.18-2.46,1.42a2,2,0,0,0-.41.35,3,3,0,0,0-.75,2.11L167,417l2.46-1.43A4.85,4.85,0,0,0,169.51,414.67Z" style="fill: rgb(224, 224, 224); transform-origin: 164.135px 412.465px;" id="elwifhdlkupps" class="animable"></path><path d="M167,417l-8.27-4.78a3.08,3.08,0,0,1,.76-2.11,2.28,2.28,0,0,1,1.72-.72,3.66,3.66,0,0,1,1.7.46,8.15,8.15,0,0,1,4.12,6.29A4.05,4.05,0,0,1,167,417Z" style="fill: rgb(245, 245, 245); transform-origin: 162.885px 413.195px;" id="el5ouervwlqtc" class="animable"></path><path d="M165.72,248.85a.85.85,0,0,0-.5-.69,2.67,2.67,0,0,0-2.4,0,.83.83,0,0,0-.49.69v160a.83.83,0,0,0,.49.69,2.67,2.67,0,0,0,2.4,0,.85.85,0,0,0,.5-.69Z" style="fill: rgb(55, 71, 79); transform-origin: 164.025px 328.85px;" id="elkwif8mi0jnn" class="animable"></path><path d="M162.82,248.16a.73.73,0,0,0,0,1.38,2.61,2.61,0,0,0,2.4,0,.73.73,0,0,0,0-1.38A2.67,2.67,0,0,0,162.82,248.16Z" style="fill: rgb(69, 90, 100); transform-origin: 164.02px 248.854px;" id="el7d3cef2401d" class="animable"></path><path d="M164.84,390.24a.86.86,0,0,0-.85.08,2.68,2.68,0,0,0-1.2,2.08.85.85,0,0,0,.35.78l74.7,43.12a.84.84,0,0,0,.85-.08,2.65,2.65,0,0,0,1.2-2.08.84.84,0,0,0-.35-.77Z" style="fill: rgb(69, 90, 100); transform-origin: 201.34px 413.271px;" id="eldv1htcb6v3n" class="animable"></path><path d="M238.69,436.22a.73.73,0,0,1-1.2-.69,2.65,2.65,0,0,1,1.2-2.08.73.73,0,0,1,1.2.69A2.65,2.65,0,0,1,238.69,436.22Z" style="fill: rgb(69, 90, 100); transform-origin: 238.69px 434.835px;" id="el6uiy18pr54c" class="animable"></path><path d="M164.84,331.84a.84.84,0,0,0-.85.08,2.68,2.68,0,0,0-1.2,2.08.85.85,0,0,0,.35.78l36.33,21a.86.86,0,0,0,.85-.08,2.67,2.67,0,0,0,1.19-2.08.85.85,0,0,0-.35-.78Z" style="fill: rgb(69, 90, 100); transform-origin: 182.15px 343.808px;" id="eld8bcuq01k3q" class="animable"></path><path d="M200.32,355.65a.86.86,0,0,1-.85.08.84.84,0,0,1-.35-.78,2.62,2.62,0,0,1,1.2-2.07.72.72,0,0,1,1.19.69A2.67,2.67,0,0,1,200.32,355.65Z" style="fill: rgb(69, 90, 100); transform-origin: 200.321px 354.248px;" id="elbnwrfwb9f4p" class="animable"></path><path d="M164.84,360.83a.84.84,0,0,0-.85.08,2.65,2.65,0,0,0-1.2,2.08.82.82,0,0,0,.35.77l36.33,21a.87.87,0,0,0,.85-.09,2.64,2.64,0,0,0,1.19-2.07.85.85,0,0,0-.35-.78Z" style="fill: rgb(69, 90, 100); transform-origin: 182.15px 372.791px;" id="elokfpxl7283h" class="animable"></path><path d="M200.32,384.63a.87.87,0,0,1-.85.09.85.85,0,0,1-.35-.78,2.62,2.62,0,0,1,1.2-2.07.82.82,0,0,1,.84-.09.85.85,0,0,1,.35.78A2.64,2.64,0,0,1,200.32,384.63Z" style="fill: rgb(69, 90, 100); transform-origin: 200.315px 383.248px;" id="el5wmskutd9jj" class="animable"></path><path d="M201.76,325.26a.85.85,0,0,0-.5-.69,2.67,2.67,0,0,0-2.4,0,.83.83,0,0,0-.49.69v86.63a.83.83,0,0,0,.49.69,2.67,2.67,0,0,0,2.4,0,.85.85,0,0,0,.5-.69Z" style="fill: rgb(55, 71, 79); transform-origin: 200.065px 368.575px;" id="elq4j01lcc19r" class="animable"></path><path d="M198.86,324.57a.83.83,0,0,0-.49.69.86.86,0,0,0,.49.7,2.67,2.67,0,0,0,2.4,0,.87.87,0,0,0,.5-.7.85.85,0,0,0-.5-.69A2.67,2.67,0,0,0,198.86,324.57Z" style="fill: rgb(69, 90, 100); transform-origin: 200.065px 325.265px;" id="elhowrdij4w9" class="animable"></path><path d="M164.84,302.85a.84.84,0,0,0-.85.09,2.65,2.65,0,0,0-1.2,2.07.85.85,0,0,0,.35.78l74.7,43.12a.84.84,0,0,0,.85-.08,2.65,2.65,0,0,0,1.2-2.07.85.85,0,0,0-.35-.78Z" style="fill: rgb(69, 90, 100); transform-origin: 201.34px 325.882px;" id="elwmv5yvul6zp" class="animable"></path><path d="M238.69,348.83a.73.73,0,0,1-1.2-.69,2.67,2.67,0,0,1,1.2-2.08.84.84,0,0,1,.85-.08.85.85,0,0,1,.35.78A2.65,2.65,0,0,1,238.69,348.83Z" style="fill: rgb(69, 90, 100); transform-origin: 238.685px 347.457px;" id="elv4xijx9uy4" class="animable"></path><path d="M164.84,264.92a.84.84,0,0,0-.85.08,2.65,2.65,0,0,0-1.2,2.08.82.82,0,0,0,.35.77L237.84,311a.84.84,0,0,0,.85-.08,2.68,2.68,0,0,0,1.2-2.08.87.87,0,0,0-.35-.78Z" style="fill: rgb(69, 90, 100); transform-origin: 201.339px 287.96px;" id="elcsxa8dpwo0w" class="animable"></path><path d="M238.69,310.9a.84.84,0,0,1-.85.08.85.85,0,0,1-.35-.78,2.65,2.65,0,0,1,1.2-2.07.73.73,0,0,1,1.2.69A2.68,2.68,0,0,1,238.69,310.9Z" style="fill: rgb(69, 90, 100); transform-origin: 238.695px 309.503px;" id="el6y4qyufflnp" class="animable"></path><path d="M237.84,308a.87.87,0,0,0-.35.78,2.68,2.68,0,0,0,1.2,2.08.84.84,0,0,0,.85.08l139.25-80.35a.85.85,0,0,0,.35-.78,2.68,2.68,0,0,0-1.2-2.08.84.84,0,0,0-.85-.08Z" style="fill: rgb(69, 90, 100); transform-origin: 308.315px 269.295px;" id="elu0xtsfzd2z" class="animable"></path><path d="M238.69,310.9a.84.84,0,0,0,.85.08.85.85,0,0,0,.35-.78,2.65,2.65,0,0,0-1.2-2.07.73.73,0,0,0-1.2.69A2.68,2.68,0,0,0,238.69,310.9Z" style="fill: rgb(69, 90, 100); transform-origin: 238.685px 309.503px;" id="elyt8chzo5t6c" class="animable"></path><path d="M243.74,457.83a7.72,7.72,0,0,0-3.82-5.83,2.43,2.43,0,0,0-2.56,0h0l-2.44,1.36,5.47,8.2,2.41-1.47h0A2.24,2.24,0,0,0,243.74,457.83Z" style="fill: rgb(69, 90, 100); transform-origin: 239.349px 456.598px;" id="el7tdh3y6k2cc" class="animable"></path><path d="M237.39,453.43a7.72,7.72,0,0,1,3.82,5.83c.12,2.22-1.38,3.2-3.37,2.2a7.72,7.72,0,0,1-3.82-5.83C233.9,453.41,235.4,452.42,237.39,453.43Z" style="fill: rgb(55, 71, 79); transform-origin: 237.615px 457.443px;" id="eldsd7habzyam" class="animable"></path><path d="M236.4,456.83c-.05-.87.46-1.3,1.13-1a2.84,2.84,0,0,1,1.3,2.19c0,.87-.45,1.29-1.13.95A2.8,2.8,0,0,1,236.4,456.83Z" style="fill: rgb(38, 50, 56); transform-origin: 237.613px 457.411px;" id="elrxwvabg63fi" class="animable"></path><path d="M237.59,457.06a.73.73,0,0,1,.37.56c0,.21-.13.31-.32.21a.75.75,0,0,1-.37-.56C237.26,457.06,237.4,457,237.59,457.06Z" style="fill: rgb(38, 50, 56); transform-origin: 237.615px 457.453px;" id="ela5yaiauh7d" class="animable"></path><path d="M244.22,457.8a8.22,8.22,0,0,0-4.12-6.29,3.8,3.8,0,0,0-1.71-.45,2.42,2.42,0,0,0-1.31.37c-.15.1-2.08,1.18-2.45,1.42a2.3,2.3,0,0,0-.42.35,3,3,0,0,0-.75,2.11l8.27,4.78,2.46-1.43A4.81,4.81,0,0,0,244.22,457.8Z" style="fill: rgb(224, 224, 224); transform-origin: 238.842px 455.575px;" id="elucjqh81lxug" class="animable"></path><path d="M241.73,460.09l-8.27-4.78a3,3,0,0,1,.75-2.11,2.3,2.3,0,0,1,1.72-.72,3.69,3.69,0,0,1,1.71.46,8.2,8.2,0,0,1,4.12,6.28A4.92,4.92,0,0,1,241.73,460.09Z" style="fill: rgb(245, 245, 245); transform-origin: 237.612px 456.285px;" id="elvnp916lczoc" class="animable"></path><path d="M240.42,292a.83.83,0,0,0-.49-.69,2.67,2.67,0,0,0-2.4,0,.85.85,0,0,0-.5.69V452a.85.85,0,0,0,.5.69,2.67,2.67,0,0,0,2.4,0,.83.83,0,0,0,.49-.69Z" style="fill: rgb(55, 71, 79); transform-origin: 238.725px 372px;" id="elxd6odmkxp5s" class="animable"></path><path d="M237.53,291.29a.73.73,0,0,0,0,1.38,2.61,2.61,0,0,0,2.4,0,.73.73,0,0,0,0-1.38A2.67,2.67,0,0,0,237.53,291.29Z" style="fill: rgb(69, 90, 100); transform-origin: 238.73px 291.984px;" id="eledul8l846v7" class="animable"></path></g></g><defs>     <filter id="active" height="200%">         <feMorphology in="SourceAlpha" result="DILATED" operator="dilate" radius="2"></feMorphology>                <feFlood flood-color="#32DFEC" flood-opacity="1" result="PINK"></feFlood>        <feComposite in="PINK" in2="DILATED" operator="in" result="OUTLINE"></feComposite>        <feMerge>            <feMergeNode in="OUTLINE"></feMergeNode>            <feMergeNode in="SourceGraphic"></feMergeNode>        </feMerge>    </filter>    <filter id="hover" height="200%">        <feMorphology in="SourceAlpha" result="DILATED" operator="dilate" radius="2"></feMorphology>                <feFlood flood-color="#ff0000" flood-opacity="0.5" result="PINK"></feFlood>        <feComposite in="PINK" in2="DILATED" operator="in" result="OUTLINE"></feComposite>        <feMerge>            <feMergeNode in="OUTLINE"></feMergeNode>            <feMergeNode in="SourceGraphic"></feMergeNode>        </feMerge>            <feColorMatrix type="matrix" values="0   0   0   0   0                0   1   0   0   0                0   0   0   0   0                0   0   0   1   0 "></feColorMatrix>    </filter></defs></svg>