<svg class="animated" id="freepik_stories-risk-management" xmlns="http://www.w3.org/2000/svg" viewBox="0 0 500 500" version="1.1" xmlns:xlink="http://www.w3.org/1999/xlink" xmlns:svgjs="http://svgjs.com/svgjs"><style>svg#freepik_stories-risk-management:not(.animated) .animable {opacity: 0;}svg#freepik_stories-risk-management.animated #freepik--Levels--inject-45 {animation: 6s Infinite  linear shake;animation-delay: 1.5s;}            @keyframes shake {                10%, 90% {                    transform: translate3d(-1px, 0, 0);                  }                  20%, 80% {                    transform: translate3d(2px, 0, 0);                  }                  30%, 50%, 70% {                    transform: translate3d(-4px, 0, 0);                  }                  40%, 60% {                    transform: translate3d(4px, 0, 0);                  }            }        </style><g id="freepik--background-complete--inject-45" class="animable" style="transform-origin: 250px 228.23px;"><rect y="382.4" width="500" height="0.25" style="fill: rgb(235, 235, 235); transform-origin: 250px 382.525px;" id="elzf8p2tofied" class="animable"></rect><rect x="416.78" y="398.49" width="33.12" height="0.25" style="fill: rgb(235, 235, 235); transform-origin: 433.34px 398.615px;" id="elbg6oz7ogah9" class="animable"></rect><rect x="322.53" y="401.21" width="8.69" height="0.25" style="fill: rgb(235, 235, 235); transform-origin: 326.875px 401.335px;" id="el2zncpb32nc2" class="animable"></rect><rect x="396.59" y="389.21" width="19.19" height="0.25" style="fill: rgb(235, 235, 235); transform-origin: 406.185px 389.335px;" id="eli41t9vkcgqf" class="animable"></rect><rect x="52.46" y="390.89" width="43.19" height="0.25" style="fill: rgb(235, 235, 235); transform-origin: 74.055px 391.015px;" id="els07bdthpfl" class="animable"></rect><rect x="104.56" y="390.89" width="6.33" height="0.25" style="fill: rgb(235, 235, 235); transform-origin: 107.725px 391.015px;" id="elr813n6454jj" class="animable"></rect><rect x="131.47" y="395.11" width="93.68" height="0.25" style="fill: rgb(235, 235, 235); transform-origin: 178.31px 395.235px;" id="eljx7h9s1ol8" class="animable"></rect><path d="M237,337.8H43.91a5.71,5.71,0,0,1-5.7-5.71V60.66A5.71,5.71,0,0,1,43.91,55H237a5.71,5.71,0,0,1,5.71,5.71V332.09A5.71,5.71,0,0,1,237,337.8ZM43.91,55.2a5.46,5.46,0,0,0-5.45,5.46V332.09a5.46,5.46,0,0,0,5.45,5.46H237a5.47,5.47,0,0,0,5.46-5.46V60.66A5.47,5.47,0,0,0,237,55.2Z" style="fill: rgb(235, 235, 235); transform-origin: 140.46px 196.4px;" id="elqfia1f6ezvm" class="animable"></path><path d="M453.31,337.8H260.21a5.72,5.72,0,0,1-5.71-5.71V60.66A5.72,5.72,0,0,1,260.21,55h193.1A5.71,5.71,0,0,1,459,60.66V332.09A5.71,5.71,0,0,1,453.31,337.8ZM260.21,55.2a5.47,5.47,0,0,0-5.46,5.46V332.09a5.47,5.47,0,0,0,5.46,5.46h193.1a5.47,5.47,0,0,0,5.46-5.46V60.66a5.47,5.47,0,0,0-5.46-5.46Z" style="fill: rgb(235, 235, 235); transform-origin: 356.75px 196.4px;" id="elbez67u0rcfc" class="animable"></path><g id="el6d7kss264rx"><rect x="82.53" y="92.06" width="96.58" height="124.29" style="fill: rgb(224, 224, 224); transform-origin: 130.82px 154.205px; transform: rotate(90deg);" class="animable"></rect></g><g id="elfwuyry4ar7u"><rect x="70.4" y="107.63" width="120.84" height="93.13" style="fill: rgb(235, 235, 235); transform-origin: 130.82px 154.195px; transform: rotate(180deg);" class="animable"></rect></g><polygon points="175.25 186.21 86.39 186.21 86.39 151.26 87.19 151.26 87.19 185.41 174.44 185.41 174.44 132.28 175.25 132.28 175.25 186.21" style="fill: rgb(224, 224, 224); transform-origin: 130.82px 159.245px;" id="elew6cdw1bf1" class="animable"></polygon><rect x="93.43" y="146.21" width="0.8" height="39.6" style="fill: rgb(224, 224, 224); transform-origin: 93.83px 166.01px;" id="elstrwwtenniq" class="animable"></rect><rect x="100.15" y="146.21" width="0.8" height="39.6" style="fill: rgb(224, 224, 224); transform-origin: 100.55px 166.01px;" id="elmm9tnetlka" class="animable"></rect><rect x="106.88" y="146.21" width="0.8" height="39.6" style="fill: rgb(224, 224, 224); transform-origin: 107.28px 166.01px;" id="elxrw88aqjlam" class="animable"></rect><rect x="113.6" y="136.2" width="0.8" height="49.61" style="fill: rgb(224, 224, 224); transform-origin: 114px 161.005px;" id="elym7uyo6big" class="animable"></rect><rect x="120.33" y="146.21" width="0.8" height="39.6" style="fill: rgb(224, 224, 224); transform-origin: 120.73px 166.01px;" id="elr6p5y4h2a6" class="animable"></rect><rect x="127.05" y="157.21" width="0.8" height="28.59" style="fill: rgb(224, 224, 224); transform-origin: 127.45px 171.505px;" id="el3it6lkbt1d8" class="animable"></rect><rect x="133.78" y="157.21" width="0.8" height="28.59" style="fill: rgb(224, 224, 224); transform-origin: 134.18px 171.505px;" id="eleth1bxl1r1" class="animable"></rect><rect x="140.5" y="166.22" width="0.8" height="19.59" style="fill: rgb(224, 224, 224); transform-origin: 140.9px 176.015px;" id="elkgj76r09sys" class="animable"></rect><rect x="147.23" y="157.21" width="0.8" height="28.59" style="fill: rgb(224, 224, 224); transform-origin: 147.63px 171.505px;" id="elrnk9w1zrlwo" class="animable"></rect><rect x="153.95" y="146.21" width="0.8" height="39.6" style="fill: rgb(224, 224, 224); transform-origin: 154.35px 166.01px;" id="elnzse829to3" class="animable"></rect><rect x="160.68" y="146.21" width="0.8" height="39.6" style="fill: rgb(224, 224, 224); transform-origin: 161.08px 166.01px;" id="elkowo1sxtpn" class="animable"></rect><rect x="167.41" y="136.2" width="0.8" height="49.61" style="fill: rgb(224, 224, 224); transform-origin: 167.81px 161.005px;" id="eleg96y2uhdom" class="animable"></rect><polygon points="138.83 173.83 114.03 141.61 99.27 157.4 93.04 150.66 87.27 157.26 81.24 151.99 92.88 138.69 99.3 145.65 114.61 129.27 139.39 161.44 172.31 125.89 178.18 131.33 138.83 173.83" style="fill: rgb(245, 245, 245); transform-origin: 129.71px 149.86px;" id="eli0o92rfjer" class="animable"></polygon><polygon points="168.28 124.34 179.74 123.69 180.39 135.15 168.28 124.34" style="fill: rgb(245, 245, 245); transform-origin: 174.335px 129.42px;" id="el4u1skeyozlg" class="animable"></polygon><rect x="315.26" y="126.16" width="95.36" height="4.9" style="fill: rgb(224, 224, 224); transform-origin: 362.94px 128.61px;" id="ela8fwy1c72hk" class="animable"></rect><rect x="319.65" y="108.1" width="4.2" height="18.06" style="fill: rgb(235, 235, 235); transform-origin: 321.75px 117.13px;" id="elpbqia98fmup" class="animable"></rect><rect x="339.97" y="108.1" width="4.2" height="18.06" style="fill: rgb(235, 235, 235); transform-origin: 342.07px 117.13px;" id="elcgo3k7htt3" class="animable"></rect><g id="elz4s4s7pn29"><rect x="364.59" y="107.87" width="4.2" height="18.06" style="fill: rgb(235, 235, 235); transform-origin: 366.69px 116.9px; transform: rotate(-9.78deg);" class="animable"></rect></g><rect x="324.86" y="110.48" width="4.2" height="15.68" style="fill: rgb(235, 235, 235); transform-origin: 326.96px 118.32px;" id="elyl0xk0b9f9b" class="animable"></rect><rect x="334.51" y="110.48" width="4.2" height="15.68" style="fill: rgb(235, 235, 235); transform-origin: 336.61px 118.32px;" id="elci9lu0yq32f" class="animable"></rect><rect x="358.89" y="110.48" width="4.2" height="15.68" style="fill: rgb(235, 235, 235); transform-origin: 360.99px 118.32px;" id="elny763uadgg" class="animable"></rect><g id="eloolnytoop9h"><rect x="347.23" y="110.21" width="4.2" height="15.68" style="fill: rgb(235, 235, 235); transform-origin: 349.33px 118.05px; transform: rotate(-12.53deg);" class="animable"></rect></g><rect x="330.59" y="107.2" width="2.1" height="18.96" style="fill: rgb(235, 235, 235); transform-origin: 331.64px 116.68px;" id="el3dtoapdrl2r" class="animable"></rect><rect x="355.58" y="107.2" width="2.1" height="18.96" style="fill: rgb(235, 235, 235); transform-origin: 356.63px 116.68px;" id="elgo0qtgaff7u" class="animable"></rect><rect x="381" y="111.86" width="20.47" height="14.13" style="fill: rgb(235, 235, 235); transform-origin: 391.235px 118.925px;" id="el3m2b0ersn6m" class="animable"></rect><g id="elftbstrtso9w"><rect x="315.26" y="162.74" width="95.36" height="4.9" style="fill: rgb(224, 224, 224); transform-origin: 362.94px 165.19px; transform: rotate(180deg);" class="animable"></rect></g><g id="elnv9jyo32ta"><rect x="402.03" y="144.67" width="4.2" height="18.06" style="fill: rgb(235, 235, 235); transform-origin: 404.13px 153.7px; transform: rotate(180deg);" class="animable"></rect></g><g id="el9kfizkub04l"><rect x="381.72" y="144.67" width="4.2" height="18.06" style="fill: rgb(235, 235, 235); transform-origin: 383.82px 153.7px; transform: rotate(180deg);" class="animable"></rect></g><g id="elzit5aacey2"><rect x="357.09" y="144.45" width="4.2" height="18.06" style="fill: rgb(235, 235, 235); transform-origin: 359.19px 153.48px; transform: rotate(-170.22deg);" class="animable"></rect></g><g id="eldss8j8xfx8p"><rect x="396.83" y="147.05" width="4.2" height="15.68" style="fill: rgb(235, 235, 235); transform-origin: 398.93px 154.89px; transform: rotate(180deg);" class="animable"></rect></g><g id="elip62t6fjuo"><rect x="387.17" y="147.05" width="4.2" height="15.68" style="fill: rgb(235, 235, 235); transform-origin: 389.27px 154.89px; transform: rotate(180deg);" class="animable"></rect></g><g id="elvhv68y9ii7o"><rect x="362.8" y="147.05" width="4.2" height="15.68" style="fill: rgb(235, 235, 235); transform-origin: 364.9px 154.89px; transform: rotate(180deg);" class="animable"></rect></g><g id="el7hezarwdgli"><rect x="374.45" y="146.79" width="4.2" height="15.68" style="fill: rgb(235, 235, 235); transform-origin: 376.55px 154.63px; transform: rotate(-167.47deg);" class="animable"></rect></g><g id="elnqde40e633n"><rect x="393.19" y="143.78" width="2.1" height="18.96" style="fill: rgb(235, 235, 235); transform-origin: 394.24px 153.26px; transform: rotate(180deg);" class="animable"></rect></g><g id="el631iitgw93"><rect x="368.21" y="143.78" width="2.1" height="18.96" style="fill: rgb(235, 235, 235); transform-origin: 369.26px 153.26px; transform: rotate(180deg);" class="animable"></rect></g><g id="el8oirdb0reye"><rect x="324.41" y="148.44" width="20.47" height="14.13" style="fill: rgb(235, 235, 235); transform-origin: 334.645px 155.505px; transform: rotate(180deg);" class="animable"></rect></g><rect x="309.24" y="191.66" width="53.48" height="190.67" style="fill: rgb(245, 245, 245); transform-origin: 335.98px 286.995px;" id="elczzixej9rj7" class="animable"></rect><rect x="313.85" y="197.1" width="44.26" height="180.91" style="fill: rgb(235, 235, 235); transform-origin: 335.98px 287.555px;" id="el2u6cuh2so3h" class="animable"></rect><rect x="321.91" y="202.42" width="28.14" height="1.86" style="fill: rgb(224, 224, 224); transform-origin: 335.98px 203.35px;" id="elv52l89w8ihl" class="animable"></rect><rect x="321.91" y="210.48" width="28.14" height="1.86" style="fill: rgb(224, 224, 224); transform-origin: 335.98px 211.41px;" id="elwqqwf3gb7cg" class="animable"></rect><rect x="321.91" y="218.54" width="28.14" height="1.86" style="fill: rgb(224, 224, 224); transform-origin: 335.98px 219.47px;" id="el01dj1ww44avn" class="animable"></rect><rect x="321.91" y="226.6" width="28.14" height="1.86" style="fill: rgb(224, 224, 224); transform-origin: 335.98px 227.53px;" id="elk0hpue00yh" class="animable"></rect><rect x="321.91" y="234.66" width="28.14" height="1.86" style="fill: rgb(224, 224, 224); transform-origin: 335.98px 235.59px;" id="elahol0ua0heh" class="animable"></rect><rect x="321.91" y="242.72" width="28.14" height="1.86" style="fill: rgb(224, 224, 224); transform-origin: 335.98px 243.65px;" id="ela78zbttl4nh" class="animable"></rect><rect x="321.91" y="250.78" width="28.14" height="1.86" style="fill: rgb(224, 224, 224); transform-origin: 335.98px 251.71px;" id="el6fkxcgo1vov" class="animable"></rect><rect x="321.91" y="316.33" width="28.14" height="1.86" style="fill: rgb(224, 224, 224); transform-origin: 335.98px 317.26px;" id="elyz0voalk10f" class="animable"></rect><rect x="321.91" y="324.39" width="28.14" height="1.86" style="fill: rgb(224, 224, 224); transform-origin: 335.98px 325.32px;" id="elpus9tz2jhrs" class="animable"></rect><rect x="321.91" y="332.45" width="28.14" height="1.86" style="fill: rgb(224, 224, 224); transform-origin: 335.98px 333.38px;" id="elqhmrcab4q1o" class="animable"></rect><rect x="321.91" y="340.51" width="28.14" height="1.86" style="fill: rgb(224, 224, 224); transform-origin: 335.98px 341.44px;" id="el6342ic60s3c" class="animable"></rect><rect x="321.91" y="348.57" width="28.14" height="1.86" style="fill: rgb(224, 224, 224); transform-origin: 335.98px 349.5px;" id="elpg4a581okzr" class="animable"></rect><rect x="321.91" y="356.63" width="28.14" height="1.86" style="fill: rgb(224, 224, 224); transform-origin: 335.98px 357.56px;" id="elzko1nzhiuud" class="animable"></rect><rect x="321.91" y="364.69" width="28.14" height="1.86" style="fill: rgb(224, 224, 224); transform-origin: 335.98px 365.62px;" id="elkzjed5kpp7" class="animable"></rect><path d="M351.44,278.37a3.12,3.12,0,1,1-3.11-3.12A3.12,3.12,0,0,1,351.44,278.37Z" style="fill: rgb(224, 224, 224); transform-origin: 348.32px 278.37px;" id="elsnomd9ayi2" class="animable"></path><rect x="364.3" y="191.66" width="53.48" height="190.67" style="fill: rgb(245, 245, 245); transform-origin: 391.04px 286.995px;" id="elv6q4tmgn3m" class="animable"></rect><rect x="368.91" y="197.1" width="44.26" height="180.91" style="fill: rgb(235, 235, 235); transform-origin: 391.04px 287.555px;" id="elizfa3e1g2f" class="animable"></rect><rect x="376.96" y="202.42" width="28.14" height="1.86" style="fill: rgb(224, 224, 224); transform-origin: 391.03px 203.35px;" id="elzbpif1balqg" class="animable"></rect><rect x="376.96" y="210.48" width="28.14" height="1.86" style="fill: rgb(224, 224, 224); transform-origin: 391.03px 211.41px;" id="elh5tg36874fa" class="animable"></rect><rect x="376.96" y="218.54" width="28.14" height="1.86" style="fill: rgb(224, 224, 224); transform-origin: 391.03px 219.47px;" id="elxs9ncbeyyp" class="animable"></rect><rect x="376.96" y="226.6" width="28.14" height="1.86" style="fill: rgb(224, 224, 224); transform-origin: 391.03px 227.53px;" id="elwh6d3qkti4" class="animable"></rect><rect x="376.96" y="234.66" width="28.14" height="1.86" style="fill: rgb(224, 224, 224); transform-origin: 391.03px 235.59px;" id="eluxr6d5qjvw" class="animable"></rect><rect x="376.96" y="242.72" width="28.14" height="1.86" style="fill: rgb(224, 224, 224); transform-origin: 391.03px 243.65px;" id="elht8jkgdscud" class="animable"></rect><rect x="376.96" y="250.78" width="28.14" height="1.86" style="fill: rgb(224, 224, 224); transform-origin: 391.03px 251.71px;" id="el5zv1frxhhc6" class="animable"></rect><rect x="376.96" y="316.33" width="28.14" height="1.86" style="fill: rgb(224, 224, 224); transform-origin: 391.03px 317.26px;" id="elk934ha4c95b" class="animable"></rect><rect x="376.96" y="324.39" width="28.14" height="1.86" style="fill: rgb(224, 224, 224); transform-origin: 391.03px 325.32px;" id="el4mv7mup2nau" class="animable"></rect><rect x="376.96" y="332.45" width="28.14" height="1.86" style="fill: rgb(224, 224, 224); transform-origin: 391.03px 333.38px;" id="elu0h0fq3w20p" class="animable"></rect><rect x="376.96" y="340.51" width="28.14" height="1.86" style="fill: rgb(224, 224, 224); transform-origin: 391.03px 341.44px;" id="elckjlfjwrn1q" class="animable"></rect><rect x="376.96" y="348.57" width="28.14" height="1.86" style="fill: rgb(224, 224, 224); transform-origin: 391.03px 349.5px;" id="el2jighndvern" class="animable"></rect><rect x="376.96" y="356.63" width="28.14" height="1.86" style="fill: rgb(224, 224, 224); transform-origin: 391.03px 357.56px;" id="el7kgdcqidt0k" class="animable"></rect><rect x="376.96" y="364.69" width="28.14" height="1.86" style="fill: rgb(224, 224, 224); transform-origin: 391.03px 365.62px;" id="el8lnnge8nfox" class="animable"></rect><path d="M406.49,278.37a3.11,3.11,0,1,1-3.11-3.12A3.11,3.11,0,0,1,406.49,278.37Z" style="fill: rgb(224, 224, 224); transform-origin: 403.38px 278.36px;" id="elt71qaw5uowr" class="animable"></path></g><g id="freepik--Shadow--inject-45" class="animable" style="transform-origin: 250px 416.24px;"><ellipse id="freepik--path--inject-45" cx="250" cy="416.24" rx="193.89" ry="11.32" style="fill: rgb(245, 245, 245); transform-origin: 250px 416.24px;" class="animable"></ellipse></g><g id="freepik--Plant--inject-45" class="animable" style="transform-origin: 128.405px 342.511px;"><polygon points="148.53 414.82 110.92 414.82 105.92 378.24 153.53 378.24 148.53 414.82" style="fill: rgb(38, 50, 56); transform-origin: 129.725px 396.53px;" id="eltnh76rid3k" class="animable"></polygon><path d="M129.25,378.29s-5.27-24.88,4.32-38.36-8.67-.16-10.77,12.46c0,0-3.14-22.56,6.16-38.43s-8.1-2.84-9.58,13.51c0,0-2.85-20.13,1.42-31.44s-3.16-4-6,3.06.89,24.64.89,24.64-7.46-32.46-14.52-29.88,10.56,23.86,13,34.92c0,0-8.32-14.89-14.64-11.79s9.78,4.64,17.16,26.85l2.59,10.41s-7.67-14.7-12.68-10.06,14.86,12.64,19.48,34.91Z" style="fill: rgb(116, 92, 219); transform-origin: 117.213px 334.628px;" id="elwmc7cz9tc1" class="animable"></path><path d="M128.22,379.73s-1.11-31.38-16.61-44.67,10.33-2.76,16.61,11.72c0,0-3-28-18.83-44.2s8.86-5.81,15.5,13.34c0,0-2.58-25-11.07-37.24s2.58-5.78,8.12,1.87,6.28,29.78,6.28,29.78-.74-41.11,8.49-40.11-5.54,31.71-5.17,45.7c0,0,5.53-20.32,14-18.49S135.23,305.9,133,334.69v13.25s4.8-19.89,12.19-15.83-14,19.56-12.92,47.62Z" style="fill: rgb(116, 92, 219); transform-origin: 125.952px 324.966px;" id="el6fnc85epuzm" class="animable"></path><g id="elhnxhwfv868p"><path d="M128.22,379.73s-1.11-31.38-16.61-44.67,10.33-2.76,16.61,11.72c0,0-3-28-18.83-44.2s8.86-5.81,15.5,13.34c0,0-2.58-25-11.07-37.24s2.58-5.78,8.12,1.87,6.28,29.78,6.28,29.78-.74-41.11,8.49-40.11-5.54,31.71-5.17,45.7c0,0,5.53-20.32,14-18.49S135.23,305.9,133,334.69v13.25s4.8-19.89,12.19-15.83-14,19.56-12.92,47.62Z" style="fill: rgb(255, 255, 255); isolation: isolate; opacity: 0.2; transform-origin: 125.952px 324.966px;" class="animable"></path></g><path d="M101.2,375.27v3.48a4.22,4.22,0,0,0,4.21,4.21h49.1a4.22,4.22,0,0,0,4.21-4.21v-3.48Z" style="fill: rgb(38, 50, 56); transform-origin: 129.96px 379.115px;" id="elvzyoebogi99" class="animable"></path><g id="el2xyrlnu6pph"><path d="M101.2,375.27v3.48a4.22,4.22,0,0,0,4.21,4.21h49.1a4.22,4.22,0,0,0,4.21-4.21v-3.48Z" style="fill: rgb(255, 255, 255); isolation: isolate; opacity: 0.2; transform-origin: 129.96px 379.115px;" class="animable"></path></g></g><g id="freepik--Character--inject-45" class="animable" style="transform-origin: 345.015px 295.243px;"><path d="M312.18,177.2c-5.48.1-12.49,8.81-10.67,25s4.59,34.53,4.59,34.53,10.29-.06,17.64-2.24,16.38-29.35,11.93-41.8-9.34-15.24-14-16.62S312.18,177.2,312.18,177.2Z" style="fill: rgb(38, 50, 56); transform-origin: 319.034px 206.193px;" id="elqqovum3kvc" class="animable"></path><path d="M328.11,232.45c.45,4.49.72,9,.87,13.44.06,2.24.12,4.48.13,6.73v1.92c0,.66-.05,1.33-.12,2-.12,1.27-.31,2.49-.54,3.67a66.32,66.32,0,0,1-1.73,6.87c-.66,2.22-1.42,4.39-2.23,6.53a125,125,0,0,1-5.5,12.5,2.4,2.4,0,0,1-4.45-1.73l0,0c1.19-4.21,2.33-8.51,3.35-12.75a105.29,105.29,0,0,0,2.37-12.6c.12-1,.18-2,.2-3,0-.48,0-.93,0-1.38s-.05-.82-.13-1.43l-.73-6.63c-.45-4.41-.85-8.85-1.12-13.26v0a4.83,4.83,0,0,1,9.62-.79Z" style="fill: rgb(206, 122, 99); transform-origin: 321.782px 257.855px;" id="elftjlaf5f0g4" class="animable"></path><path d="M324.8,219c-5.84,3-7.83,10.13-6.81,24,3.44,3.47,13,3.32,13,3.32S335.29,223.71,324.8,219Z" style="fill: rgb(116, 92, 219); transform-origin: 324.799px 232.66px;" id="ela5xp05nc3s6" class="animable"></path><g id="eleodpt90n5cc"><path d="M331.3,243.67c-.15,1.61-.31,2.6-.31,2.6s-9.56.15-13-3.32c-1-13.86,1-21,6.82-24,5.54,2.51,6.36,10.34,6.68,16.72A62.42,62.42,0,0,1,331.3,243.67Z" style="fill: rgb(255, 255, 255); opacity: 0.4; transform-origin: 324.642px 232.61px;" class="animable"></path></g><g id="el7dodkan3nu9"><path d="M331.3,243.67c-6.48-1.74-6.69-10.12-6.69-10.12a21.62,21.62,0,0,1,6.88,2.13A62.42,62.42,0,0,1,331.3,243.67Z" style="opacity: 0.2; transform-origin: 328.075px 238.61px;" class="animable"></path></g><path d="M324.6,235.83c1.9,2.49,18,11.66,25.22,19.13l23.31-12.34c-6.15-6.55-11.79-15.14-20.08-34.4a7.43,7.43,0,0,0-11-3.48c-1.06.7-2.16,1.46-3.27,2.27a102.7,102.7,0,0,0-11.21,9.12c-1.13,1.1-2.27,2.28-3.34,3.43C320.34,223.71,321.19,231.37,324.6,235.83Z" style="fill: rgb(116, 92, 219); transform-origin: 347.394px 229.237px;" id="elxgafoly7uq8" class="animable"></path><g id="el6olwp2uz7f4"><path d="M324.6,235.83c1.9,2.49,18,11.66,25.22,19.13l23.31-12.34c-6.15-6.55-11.79-15.14-20.08-34.4a7.43,7.43,0,0,0-11-3.48c-1.06.7-2.16,1.46-3.27,2.27a102.7,102.7,0,0,0-11.21,9.12c-1.13,1.1-2.27,2.28-3.34,3.43C320.34,223.71,321.19,231.37,324.6,235.83Z" style="fill: rgb(255, 255, 255); opacity: 0.4; transform-origin: 347.394px 229.237px;" class="animable"></path></g><path d="M353.83,203.46a87.77,87.77,0,0,1,12.44,2.91,52.81,52.81,0,0,1,6.19,2.35,31.56,31.56,0,0,1,3.15,1.63,17.45,17.45,0,0,1,3.27,2.47,10.46,10.46,0,0,1,1.67,2.09,9.2,9.2,0,0,1,1,2.56,15.34,15.34,0,0,1,.36,4.06,35,35,0,0,1-.95,6.72,65,65,0,0,1-4.15,12,2.41,2.41,0,0,1-4.57-1.35l0-.09c.59-3.89,1.15-7.89,1.42-11.69a33.88,33.88,0,0,0,0-5.41,7.56,7.56,0,0,0-.4-2c-.08-.17-.17-.34-.16-.23s-.13-.1-.29-.23a11.28,11.28,0,0,0-1.72-1,23,23,0,0,0-2.32-1c-1.67-.63-3.46-1.2-5.3-1.69-3.66-1-7.58-1.86-11.28-2.58l-.12,0a4.82,4.82,0,0,1,1.68-9.5Z" style="fill: rgb(206, 122, 99); transform-origin: 365.01px 222.523px;" id="el21ouh3rd5nvj" class="animable"></path><path d="M340.54,205.64c4-5.21,9.67-5.25,20.41-1.93,1.79,3.95-1,13.26-1,13.26S344.75,218.15,340.54,205.64Z" style="fill: rgb(116, 92, 219); transform-origin: 351.045px 209.216px;" id="elidbum0i70g" class="animable"></path><g id="el9ssd8k06t6h"><path d="M340.54,205.64c4-5.21,9.67-5.25,20.41-1.93,1.79,3.95-1,13.26-1,13.26S344.75,218.15,340.54,205.64Z" style="fill: rgb(255, 255, 255); opacity: 0.4; transform-origin: 351.045px 209.216px;" class="animable"></path></g><path d="M381.34,246.4l-2,.48a2.43,2.43,0,0,1-2.15-.53l-2.74-2.4a4.49,4.49,0,0,1-1.52-3.84l.09-.9c3.29-1,7.61.29,7.61.29l1.27.24a2,2,0,0,1,1.67,2.32l-.45,2.53A2.32,2.32,0,0,1,381.34,246.4Z" style="fill: rgb(206, 122, 99); transform-origin: 378.253px 242.887px;" id="elic6juztvtpb" class="animable"></path><path d="M379.81,383.23l-1.21.77-1.29-1.27-2.83,4.36-10.1,6.5s-2.65-.59,1.34-5a4.36,4.36,0,0,0,.51-.7l.17-.28c1.51-2.65,2.45-7.75,2.62-8.79,0-.12,0-.19,0-.19l5.28-3.38.27-.18.33.16.23.12.12.07.28.16h0C377,376.45,379.65,378.33,379.81,383.23Z" style="fill: rgb(38, 50, 56); transform-origin: 371.664px 384.33px;" id="elx96364nkbn" class="animable"></path><path d="M375.58,375.62c-.27-.07-.53.14-.8.55a19.66,19.66,0,0,0-1.37,3.36,24.82,24.82,0,0,1-1.77,4.26c-1.48,2.49-3.62,4.54-5.41,4.13l.17-.28c1.26-2.32,1.92-7.13,2.17-9.3.07-.69.11-1.11.11-1.11l4.46-2.87,1,.49h0l.48.25.33.16.23.12.12.07.28.16Z" style="fill: rgb(206, 122, 99); transform-origin: 370.905px 381.166px;" id="eljwaflk3makp" class="animable"></path><path d="M374.78,376.17c.26.53.53,1.06.8,1.58-.11.63-1.07,1.31-2.17,1.78-1.3.57-2.81.85-3.36.43l-1-1.11c-.13-.16-.29-.33-.45-.51-1-1.12-2.5-2.77-4.3-4.84-11.44-13.1-35.72-42.68-34.07-56,2.19-17.74,19.13-66.18,19.13-66.18l27.41,4.34s-3.5,23.83-28.64,61.08c7.85,12.85,13.28,28.5,19.64,43.82,2,4.82,4.09,9.61,6.38,14.26h0a3.42,3.42,0,0,0,.21.43C374.48,375.58,374.63,375.88,374.78,376.17Z" style="fill: rgb(206, 122, 99); transform-origin: 353.46px 315.741px;" id="elurnuncg91ti" class="animable"></path><g id="elkqu585rjop"><path d="M379.81,383.23l-1.21.77-1.29-1.27-2.83,4.36-10.1,6.5s-2.65-.59,1.34-5a4.36,4.36,0,0,0,.51-.7l.17-.28c1.26-2.32,1.92-7.13,2.17-9.3-1-1.12-2.5-2.77-4.3-4.84l3.47-12.91c2,4.82,4.09,9.61,6.38,14.26h0l.48.25.33.16.23.12.12.07.28.16h0C377,376.45,379.65,378.33,379.81,383.23Z" style="opacity: 0.2; transform-origin: 371.664px 377.075px;" class="animable"></path></g><path d="M357.55,252.65s6.31,48.79,9.92,72.27c3.8,24.66,4.28,64.22,3.33,80.35,1.38.8,4.38.24,7.11-.61,0,0,14.64-52.25,6.34-77.31,7.78-57.05-3.47-71-3.47-71Z" style="fill: rgb(206, 122, 99); transform-origin: 372.271px 329.153px;" id="el8684kgft41d" class="animable"></path><path d="M327.71,195c2,4.4,6.13,12,10.44,12.48,0,0-3.84,2.27-7.45,12.66-4.55-1.31-3.77-3.54-3.77-3.54,3.32-4.29,1-7.37-1.76-9.77Z" style="fill: rgb(206, 122, 99); transform-origin: 331.66px 207.57px;" id="elvv7xkzt7m8j" class="animable"></path><g id="elaq1n7kdcd1a"><path d="M326.67,199.85l-1.5,7a15.62,15.62,0,0,1,1.81,1.83c1.38-1.48,2.24-5,1.21-6.83A6.84,6.84,0,0,0,326.67,199.85Z" style="opacity: 0.2; transform-origin: 326.907px 204.265px;" class="animable"></path></g><path d="M307.45,286.43l1.17-2.07a2.74,2.74,0,0,1,2.11-1.39l4.15-.45a5.15,5.15,0,0,1,4.41,1.71l.69.77c-1.7,3.57-6.16,6.17-6.16,6.17l-1.19.88a2.29,2.29,0,0,1-3.24-.4l-1.79-2.33A2.67,2.67,0,0,1,307.45,286.43Z" style="fill: rgb(206, 122, 99); transform-origin: 313.538px 287.518px;" id="elu72vb4ww3m9" class="animable"></path><path d="M324.9,185.28c3.64,6.71,5.32,9.47,4.27,15-1.58,8.27-10.26,11.63-15.75,6.23-4.94-4.87-10.07-15-5.63-21.84A9.79,9.79,0,0,1,324.9,185.28Z" style="fill: rgb(206, 122, 99); transform-origin: 317.786px 194.532px;" id="el06me78wbk12m" class="animable"></path><path d="M318.25,192.3c.33.55.32,1.19,0,1.42s-.87,0-1.2-.58-.33-1.18,0-1.41S317.92,191.75,318.25,192.3Z" style="fill: rgb(38, 50, 56); transform-origin: 317.648px 192.726px;" id="elfvz0lklk4o" class="animable"></path><path d="M311.59,196.64c.33.55.33,1.19,0,1.42s-.88,0-1.21-.57-.32-1.19,0-1.42S311.26,196.09,311.59,196.64Z" style="fill: rgb(38, 50, 56); transform-origin: 310.987px 197.066px;" id="elvikb4zenko" class="animable"></path><path d="M310.56,196l-1.46.47S310.35,197.07,310.56,196Z" style="fill: rgb(38, 50, 56); transform-origin: 309.83px 196.319px;" id="elbxl6ht91a2g" class="animable"></path><path d="M314.31,196.47a18.84,18.84,0,0,1,.28,4.78,2.56,2.56,0,0,0,2.05-.9Z" style="fill: rgb(186, 77, 60); transform-origin: 315.475px 198.861px;" id="ele1ifaeju0b8" class="animable"></path><path d="M320.8,200.33a7.08,7.08,0,0,1-.81.68.17.17,0,0,1-.25-.06.2.2,0,0,1,.06-.27,5.32,5.32,0,0,0,2.28-4,.18.18,0,1,1,.36,0A5.59,5.59,0,0,1,320.8,200.33Z" style="fill: rgb(38, 50, 56); transform-origin: 321.076px 198.771px;" id="elyvf315ye9b" class="animable"></path><path d="M317.1,188a.33.33,0,0,1-.26.11,2.73,2.73,0,0,0-2.33,1.14.35.35,0,0,1-.5.11.4.4,0,0,1-.1-.54,3.4,3.4,0,0,1,2.94-1.48.38.38,0,0,1,.35.39A.36.36,0,0,1,317.1,188Z" style="fill: rgb(38, 50, 56); transform-origin: 315.523px 188.38px;" id="el43xjqremxet" class="animable"></path><path d="M305.7,194.24a.37.37,0,0,1-.26-.08.37.37,0,0,1,0-.52,4,4,0,0,1,3.13-1.52.33.33,0,0,1,.31.4.41.41,0,0,1-.42.35,3.12,3.12,0,0,0-2.47,1.22A.41.41,0,0,1,305.7,194.24Z" style="fill: rgb(38, 50, 56); transform-origin: 307.11px 193.181px;" id="elj2s0dag9jf" class="animable"></path><path d="M317.21,191.65l-1.46.48S317,192.72,317.21,191.65Z" style="fill: rgb(38, 50, 56); transform-origin: 316.48px 191.971px;" id="elo2fyj4nuzq" class="animable"></path><path d="M313,183.63s8.12,7.81,13.89,5.75l2.57,6.62s5-10-3.14-17.38-25.84-1-22.28,20.14C304.06,198.76,306,189.3,313,183.63Z" style="fill: rgb(38, 50, 56); transform-origin: 317.276px 187.215px;" id="elf04w6q9ghx" class="animable"></path><path d="M330.26,189.16a6.17,6.17,0,0,1-1.48,4.44c-1.4,1.54-3.21.36-3.76-1.7-.5-1.85-.36-4.89,1.49-5.65S330.12,187.1,330.26,189.16Z" style="fill: rgb(206, 122, 99); transform-origin: 327.523px 190.181px;" id="elp0wudki6qec" class="animable"></path><path d="M347.39,252.67,371,239.53l3.72,3.81s8.07,6.78,12.24,19.76,0,51.32,0,51.32L385,296.47l-10.29,17.9L331.5,304.16l16.18-48Z" style="fill: rgb(38, 50, 56); transform-origin: 360.157px 276.975px;" id="eltejsbiwqjdq" class="animable"></path><polygon points="347.99 252.78 348.72 255.13 347.39 255.84 346.99 253.33 347.99 252.78" id="el92qff6qbwuj" class="animable" style="transform-origin: 347.855px 254.31px;"></polygon><polygon points="359.93 246.15 361.37 248.41 349.36 254.79 348.6 252.44 359.93 246.15" id="eltpbkicbuf" class="animable" style="transform-origin: 354.985px 250.47px;"></polygon><polygon points="369.25 240.97 370.8 243.4 362.34 247.89 360.83 245.65 369.25 240.97" id="el27npres0qd8" class="animable" style="transform-origin: 365.815px 244.43px;"></polygon><polygon points="373.83 241.79 371.78 242.88 370.16 240.47 371.85 239.53 373.83 241.79" id="elgzrid0eztve" class="animable" style="transform-origin: 371.995px 241.205px;"></polygon><path d="M351.1,251.42l.93,1.72a.44.44,0,0,0,.59.19l3.39-1.77a.45.45,0,0,0,.19-.61l-1-1.81a.44.44,0,0,0-.6-.18l-3.36,1.87A.43.43,0,0,0,351.1,251.42Z" style="fill: rgb(255, 255, 255); transform-origin: 353.645px 251.142px;" id="elppfrafp1te" class="animable"></path><path d="M378.36,414.45h-1.43l-.4-1.76-4.74,2.14h-12s-1.91-1.92,3.81-3.45a4.31,4.31,0,0,0,.81-.31c3.05-1.43,7.39-6.26,7.39-6.26h6.59a8.37,8.37,0,0,1,.54.95C379.64,407.2,380.89,410.24,378.36,414.45Z" style="fill: rgb(38, 50, 56); transform-origin: 369.678px 409.82px;" id="el7l1g3v9xq4l" class="animable"></path><path d="M378.92,405.75v0c-.87-1-4.83,3.29-7.73,4.74-2.59,1.29-5.5,1.86-6.79.55,3.05-1.43,7.85-7.68,7.85-7.68h5.3S378.61,405.13,378.92,405.75Z" style="fill: rgb(206, 122, 99); transform-origin: 371.66px 407.572px;" id="elbt7gwfquy4n" class="animable"></path><path d="M339.15,219.51c-.73-1.81-7.91-.53-7.91-.53-2.59,1-5.36,5.82-3.73,7,1.33.93,2.67-3.91,2.83-4.47l-1.08,7.07h1.81l.36-6.92,3.72,5.31,1.61-1-4.42-5.47C337.6,223,339.86,221.32,339.15,219.51Zm-11.07,5c-.32-1.09,1.57-3.37,1.57-3.37S328.4,225.61,328.08,224.52Zm4.87-4.88s4.52,0,4.62.7S334.05,220.4,333,219.64Z" style="fill: rgb(116, 92, 219); transform-origin: 333.15px 223.56px;" id="el1e22ghdpclo" class="animable"></path><path d="M331.5,218c2.66-1.6,7.38.3,7.38.3s1.4-7.63.89-12a29.9,29.9,0,0,1-3.17.38S331.77,215.51,331.5,218Z" style="fill: rgb(255, 255, 255); transform-origin: 335.691px 212.3px;" id="el6qpoo8mods7" class="animable"></path><path d="M328.91,219.49s-2.69.68-2.64,5.2c-3-6.87-.14-8.31,1.45-9.24A3.31,3.31,0,0,0,328.91,219.49Z" style="fill: rgb(255, 255, 255); transform-origin: 326.933px 220.07px;" id="elr1j4f1xm93k" class="animable"></path></g><g id="freepik--Levels--inject-45" class="animable" style="transform-origin: 251.95px 270.47px;"><path d="M201.87,147.05H191.74l.91-12.37a1.31,1.31,0,0,1,1.31-1.22h5.69a1.31,1.31,0,0,1,1.31,1.22Z" style="fill: rgb(116, 92, 219); transform-origin: 196.805px 140.255px;" id="el97egyf9urk" class="animable"></path><path d="M191.38,143.78h10.85a1.3,1.3,0,0,1,1.3,1.3v3.36a0,0,0,0,1,0,0H190.08a0,0,0,0,1,0,0v-3.36A1.3,1.3,0,0,1,191.38,143.78Z" style="fill: rgb(38, 50, 56); transform-origin: 196.805px 146.11px;" id="elghe9dhinrv" class="animable"></path><g id="elxmigt92zab"><path d="M191.38,143.78h10.85a1.3,1.3,0,0,1,1.3,1.3v3.36a0,0,0,0,1,0,0H190.08a0,0,0,0,1,0,0v-3.36A1.3,1.3,0,0,1,191.38,143.78Z" style="fill: rgb(255, 255, 255); opacity: 0.6; transform-origin: 196.805px 146.11px;" class="animable"></path></g><g id="elsbvl1r9nf9"><circle cx="196.14" cy="140.37" r="2.28" style="fill: rgb(255, 255, 255); opacity: 0.6; transform-origin: 196.14px 140.37px;" class="animable"></circle></g><g id="elgvvbex8fdf"><circle cx="198.83" cy="137.21" r="1.08" style="fill: rgb(255, 255, 255); opacity: 0.4; transform-origin: 198.83px 137.21px;" class="animable"></circle></g><path d="M277.92,147.05H267.78l.91-12.37a1.32,1.32,0,0,1,1.32-1.22h5.69a1.31,1.31,0,0,1,1.31,1.22Z" style="fill: rgb(116, 92, 219); transform-origin: 272.85px 140.255px;" id="elwpl7sar8a4e" class="animable"></path><path d="M267.43,143.78h10.85a1.3,1.3,0,0,1,1.3,1.3v3.36a0,0,0,0,1,0,0H266.12a0,0,0,0,1,0,0v-3.36A1.3,1.3,0,0,1,267.43,143.78Z" style="fill: rgb(38, 50, 56); transform-origin: 272.85px 146.11px;" id="el8le1kvkgb1o" class="animable"></path><g id="eldqbzpz1vem"><path d="M267.43,143.78h10.85a1.3,1.3,0,0,1,1.3,1.3v3.36a0,0,0,0,1,0,0H266.12a0,0,0,0,1,0,0v-3.36A1.3,1.3,0,0,1,267.43,143.78Z" style="fill: rgb(255, 255, 255); opacity: 0.6; transform-origin: 272.85px 146.11px;" class="animable"></path></g><g id="el0u730bz6kr4q"><circle cx="272.19" cy="140.37" r="2.28" style="fill: rgb(255, 255, 255); opacity: 0.6; transform-origin: 272.19px 140.37px;" class="animable"></circle></g><g id="eld2c7cogelxd"><circle cx="274.88" cy="137.21" r="1.08" style="fill: rgb(255, 255, 255); opacity: 0.4; transform-origin: 274.88px 137.21px;" class="animable"></circle></g><path d="M211.22,126.12h47.21a2.11,2.11,0,0,1,2.11,2.11V150.3a0,0,0,0,1,0,0H209.11a0,0,0,0,1,0,0V128.23A2.11,2.11,0,0,1,211.22,126.12Z" style="fill: rgb(38, 50, 56); transform-origin: 234.825px 138.21px;" id="ela1lnl4rz1na" class="animable"></path><path d="M189.59,146.21h91.32a6.17,6.17,0,0,1,6.17,6.17V414.82a0,0,0,0,1,0,0H183.43a0,0,0,0,1,0,0V152.37A6.17,6.17,0,0,1,189.59,146.21Z" style="fill: rgb(38, 50, 56); transform-origin: 235.255px 280.515px;" id="el3r0dqzozqdu" class="animable"></path><g id="elwr0vye3ydi"><path d="M189.59,146.21h91.32a6.17,6.17,0,0,1,6.17,6.17V414.82a0,0,0,0,1,0,0H183.43a0,0,0,0,1,0,0V152.37A6.17,6.17,0,0,1,189.59,146.21Z" style="fill: rgb(255, 255, 255); opacity: 0.3; transform-origin: 235.255px 280.515px;" class="animable"></path></g><rect x="188.55" y="161.86" width="80.4" height="171.22" style="fill: rgb(38, 50, 56); transform-origin: 228.75px 247.47px;" id="elpfs4oft7j4i" class="animable"></rect><rect x="190.55" y="164.41" width="76.4" height="32.13" style="fill: rgb(116, 92, 219); transform-origin: 228.75px 180.475px;" id="el1p1jaga1j6g" class="animable"></rect><g id="elw3qt221903"><rect x="190.55" y="164.41" width="76.4" height="32.13" style="opacity: 0.4; transform-origin: 228.75px 180.475px;" class="animable"></rect></g><path d="M222.08,175.14v9.16h-1.71v-3.93h-4.74v3.93h-1.7v-9.16h1.7v3.78h4.74v-3.78Z" style="fill: rgb(255, 255, 255); transform-origin: 218.005px 179.72px;" id="el8pf9woyjjjy" class="animable"></path><path d="M224.54,175.14h1.7v9.16h-1.7Z" style="fill: rgb(255, 255, 255); transform-origin: 225.39px 179.72px;" id="el90r57zvdjd7" class="animable"></path><path d="M235,179.61h1.61v3.66a5.79,5.79,0,0,1-3.58,1.16,4.72,4.72,0,1,1,0-9.42,4.74,4.74,0,0,1,3.68,1.49l-1.07,1a3.4,3.4,0,0,0-2.53-1,3.22,3.22,0,1,0,0,6.44,3.7,3.7,0,0,0,1.88-.47Z" style="fill: rgb(255, 255, 255); transform-origin: 232.356px 179.72px;" id="el1oimyauzl1m" class="animable"></path><path d="M247,175.14v9.16h-1.7v-3.93h-4.74v3.93h-1.71v-9.16h1.71v3.78h4.74v-3.78Z" style="fill: rgb(255, 255, 255); transform-origin: 242.925px 179.72px;" id="elygwzfjacan" class="animable"></path><rect x="190.55" y="197.97" width="76.4" height="32.13" style="fill: rgb(116, 92, 219); transform-origin: 228.75px 214.035px;" id="el8qf8co3f3vf" class="animable"></rect><g id="el5vysm4odov9"><g style="opacity: 0.2; transform-origin: 228.75px 214.035px;" class="animable"><rect x="190.55" y="197.97" width="76.4" height="32.13" id="elmczs6th1i6n" class="animable" style="transform-origin: 228.75px 214.035px;"></rect></g></g><rect x="190.55" y="231.53" width="76.4" height="32.13" style="fill: rgb(116, 92, 219); transform-origin: 228.75px 247.595px;" id="elg0v8kv3oti4" class="animable"></rect><path d="M222.35,251.43v-6.08l-3,5h-.76l-3-4.95v6h-1.63v-9.17h1.4l3.64,6.08,3.58-6.08H224v9.17Z" style="fill: rgb(255, 255, 255); transform-origin: 218.98px 246.83px;" id="elx8e7em7hyi" class="animable"></path><path d="M233.31,250v1.43h-6.87v-9.17h6.69v1.43h-5v2.38h4.42v1.4h-4.42V250Z" style="fill: rgb(255, 255, 255); transform-origin: 229.875px 246.845px;" id="eldym8hmlj4t" class="animable"></path><path d="M235.21,242.26h4c3,0,5,1.84,5,4.59s-2,4.58-5,4.58h-4Zm3.93,7.73a3.15,3.15,0,1,0,0-6.29h-2.23V250Z" style="fill: rgb(255, 255, 255); transform-origin: 239.71px 246.845px;" id="elobdo71g3v9h" class="animable"></path><rect x="190.55" y="265.1" width="76.4" height="32.13" style="fill: rgb(116, 92, 219); transform-origin: 228.75px 281.165px;" id="elbriedolyvcq" class="animable"></rect><g id="ele3lb2z0dl7u"><g style="opacity: 0.2; transform-origin: 228.75px 281.165px;" class="animable"><rect x="190.55" y="265.1" width="76.4" height="32.13" style="fill: rgb(255, 255, 255); transform-origin: 228.75px 281.165px;" id="elewwgvm1xpyl" class="animable"></rect></g></g><rect x="190.55" y="298.66" width="76.4" height="32.13" style="fill: rgb(116, 92, 219); transform-origin: 228.75px 314.725px;" id="el8au49cg6n7f" class="animable"></rect><g id="elg5za4ht8ny"><rect x="190.55" y="298.66" width="76.4" height="32.13" style="fill: rgb(255, 255, 255); opacity: 0.4; transform-origin: 228.75px 314.725px;" class="animable"></rect></g><path d="M213.93,309.39h1.7v7.73h4.8v1.44h-6.5Z" style="fill: rgb(255, 255, 255); transform-origin: 217.18px 313.975px;" id="elg58to2madij" class="animable"></path><path d="M221,314a4.94,4.94,0,1,1,4.94,4.72A4.69,4.69,0,0,1,221,314Zm8.16,0a3.22,3.22,0,1,0-3.22,3.22A3.13,3.13,0,0,0,229.11,314Z" style="fill: rgb(255, 255, 255); transform-origin: 225.935px 313.783px;" id="el7gvxa4827lo" class="animable"></path><path d="M245.74,309.39l-3,9.17h-1.81l-2.26-6.79-2.31,6.79H234.5l-3-9.17h1.76l2.28,7,2.37-7h1.57l2.32,7,2.34-7Z" style="fill: rgb(255, 255, 255); transform-origin: 238.62px 313.975px;" id="ell55ydpkvuf" class="animable"></path><rect x="274.07" y="161.86" width="7.8" height="171.22" style="fill: rgb(38, 50, 56); transform-origin: 277.97px 247.47px;" id="elz7oioavcpj" class="animable"></rect><path d="M226.26,142.3l-1.87-2.69a2.17,2.17,0,0,1-.36,0H222v2.67h-1.7v-9.17H224c2.41,0,3.9,1.23,3.9,3.26a2.93,2.93,0,0,1-2,2.9l2.11,3ZM224,134.57h-2v3.66h2c1.5,0,2.27-.69,2.27-1.84S225.45,134.57,224,134.57Z" style="fill: rgb(255, 255, 255); transform-origin: 224.155px 137.705px;" id="el091t44wt2xz" class="animable"></path><path d="M229.83,133.13h1.71v9.17h-1.71Z" style="fill: rgb(255, 255, 255); transform-origin: 230.685px 137.715px;" id="el3x3tu1iw4bh" class="animable"></path><path d="M233.24,141.33l.59-1.32a5.13,5.13,0,0,0,3,1c1.43,0,2-.51,2-1.19,0-2-5.45-.68-5.45-4.08,0-1.48,1.18-2.74,3.7-2.74a5.83,5.83,0,0,1,3.05.81l-.54,1.33a5,5,0,0,0-2.53-.73c-1.41,0-2,.56-2,1.25,0,2,5.44.68,5.44,4.05,0,1.46-1.19,2.72-3.71,2.72A5.92,5.92,0,0,1,233.24,141.33Z" style="fill: rgb(255, 255, 255); transform-origin: 236.87px 137.715px;" id="el7gjz6vr6b5g" class="animable"></path><path d="M245.4,138.46,244,140v2.35h-1.7v-9.17H244v4.7l4.53-4.7h1.91l-3.85,4.1,4.09,5.07h-2Z" style="fill: rgb(255, 255, 255); transform-origin: 246.49px 137.765px;" id="el6ejke7f9ktj" class="animable"></path><polygon points="268.3 332.54 263.59 331.04 268.3 329.54 268.3 332.54" style="fill: rgb(38, 50, 56); transform-origin: 265.945px 331.04px;" id="ely8mac6xrjkg" class="animable"></polygon><polygon points="268.3 326.88 263.59 325.38 268.3 323.88 268.3 326.88" style="fill: rgb(38, 50, 56); transform-origin: 265.945px 325.38px;" id="elxhgsaw2cd4" class="animable"></polygon><polygon points="268.3 321.22 263.59 319.72 268.3 318.22 268.3 321.22" style="fill: rgb(38, 50, 56); transform-origin: 265.945px 319.72px;" id="elpz9k17ltrlj" class="animable"></polygon><polygon points="268.3 315.57 263.59 314.07 268.3 312.57 268.3 315.57" style="fill: rgb(38, 50, 56); transform-origin: 265.945px 314.07px;" id="el3r0d7h38bk7" class="animable"></polygon><polygon points="268.3 309.91 263.59 308.41 268.3 306.91 268.3 309.91" style="fill: rgb(38, 50, 56); transform-origin: 265.945px 308.41px;" id="elj4tjwgvpwnp" class="animable"></polygon><polygon points="268.3 304.25 263.59 302.75 268.3 301.25 268.3 304.25" style="fill: rgb(38, 50, 56); transform-origin: 265.945px 302.75px;" id="elqb4ggxk8c" class="animable"></polygon><polygon points="268.3 299.01 263.59 297.51 268.3 296.01 268.3 299.01" style="fill: rgb(38, 50, 56); transform-origin: 265.945px 297.51px;" id="el1154xlosw76a" class="animable"></polygon><polygon points="268.3 293.36 263.59 291.86 268.3 290.36 268.3 293.36" style="fill: rgb(38, 50, 56); transform-origin: 265.945px 291.86px;" id="el9kaqnxcyakt" class="animable"></polygon><polygon points="268.3 287.7 263.59 286.2 268.3 284.7 268.3 287.7" style="fill: rgb(38, 50, 56); transform-origin: 265.945px 286.2px;" id="el8ec6txhljhg" class="animable"></polygon><polygon points="268.3 282.05 263.59 280.55 268.3 279.05 268.3 282.05" style="fill: rgb(38, 50, 56); transform-origin: 265.945px 280.55px;" id="el9qrtxeo1nlb" class="animable"></polygon><polygon points="268.3 276.39 263.59 274.89 268.3 273.39 268.3 276.39" style="fill: rgb(38, 50, 56); transform-origin: 265.945px 274.89px;" id="el2o1ppqy93bd" class="animable"></polygon><polygon points="268.3 270.73 263.59 269.23 268.3 267.73 268.3 270.73" style="fill: rgb(38, 50, 56); transform-origin: 265.945px 269.23px;" id="ely0oevkay32" class="animable"></polygon><polygon points="268.3 265.49 263.59 263.99 268.3 262.49 268.3 265.49" style="fill: rgb(38, 50, 56); transform-origin: 265.945px 263.99px;" id="el6dp7py4kgke" class="animable"></polygon><polygon points="268.3 259.84 263.59 258.34 268.3 256.84 268.3 259.84" style="fill: rgb(38, 50, 56); transform-origin: 265.945px 258.34px;" id="elvmpt541zhq9" class="animable"></polygon><polygon points="268.3 254.18 263.59 252.68 268.3 251.18 268.3 254.18" style="fill: rgb(38, 50, 56); transform-origin: 265.945px 252.68px;" id="elw6l86br3fq" class="animable"></polygon><polygon points="268.3 248.53 263.59 247.03 268.3 245.53 268.3 248.53" style="fill: rgb(38, 50, 56); transform-origin: 265.945px 247.03px;" id="els29ea31usn" class="animable"></polygon><polygon points="268.3 242.87 263.59 241.37 268.3 239.87 268.3 242.87" style="fill: rgb(38, 50, 56); transform-origin: 265.945px 241.37px;" id="elrbje1imv79" class="animable"></polygon><polygon points="268.3 237.21 263.59 235.71 268.3 234.21 268.3 237.21" style="fill: rgb(38, 50, 56); transform-origin: 265.945px 235.71px;" id="eltt3dqm0r8kf" class="animable"></polygon><polygon points="268.3 231.97 263.59 230.47 268.3 228.97 268.3 231.97" style="fill: rgb(38, 50, 56); transform-origin: 265.945px 230.47px;" id="el2bt1pc5b95v" class="animable"></polygon><polygon points="268.3 226.32 263.59 224.82 268.3 223.32 268.3 226.32" style="fill: rgb(38, 50, 56); transform-origin: 265.945px 224.82px;" id="el1fg9d5x8cm2" class="animable"></polygon><polygon points="268.3 220.66 263.59 219.16 268.3 217.66 268.3 220.66" style="fill: rgb(38, 50, 56); transform-origin: 265.945px 219.16px;" id="el5qej58i8hav" class="animable"></polygon><polygon points="268.3 215 263.59 213.5 268.3 212 268.3 215" style="fill: rgb(38, 50, 56); transform-origin: 265.945px 213.5px;" id="elt94qdr040s" class="animable"></polygon><polygon points="268.3 209.35 263.59 207.85 268.3 206.35 268.3 209.35" style="fill: rgb(38, 50, 56); transform-origin: 265.945px 207.85px;" id="el6sem0f3znr7" class="animable"></polygon><polygon points="268.3 203.69 263.59 202.19 268.3 200.69 268.3 203.69" style="fill: rgb(38, 50, 56); transform-origin: 265.945px 202.19px;" id="el5c6qohbi84g" class="animable"></polygon><polygon points="268.3 198.45 263.59 196.95 268.3 195.45 268.3 198.45" style="fill: rgb(38, 50, 56); transform-origin: 265.945px 196.95px;" id="elujh8hyzecdh" class="animable"></polygon><polygon points="268.3 192.79 263.59 191.29 268.3 189.79 268.3 192.79" style="fill: rgb(38, 50, 56); transform-origin: 265.945px 191.29px;" id="els60funlxllf" class="animable"></polygon><polygon points="268.3 187.14 263.59 185.64 268.3 184.14 268.3 187.14" style="fill: rgb(38, 50, 56); transform-origin: 265.945px 185.64px;" id="elyhvz2xljr5c" class="animable"></polygon><polygon points="268.3 181.48 263.59 179.98 268.3 178.48 268.3 181.48" style="fill: rgb(38, 50, 56); transform-origin: 265.945px 179.98px;" id="ellsa2qh10mb" class="animable"></polygon><polygon points="268.3 175.83 263.59 174.33 268.3 172.83 268.3 175.83" style="fill: rgb(38, 50, 56); transform-origin: 265.945px 174.33px;" id="elzz73qmh8l8l" class="animable"></polygon><polygon points="268.3 170.17 263.59 168.67 268.3 167.17 268.3 170.17" style="fill: rgb(38, 50, 56); transform-origin: 265.945px 168.67px;" id="elam4ksvr4mda" class="animable"></polygon><polygon points="274.07 294.85 274.07 307.54 292.51 294.85 274.07 294.85" style="fill: rgb(38, 50, 56); transform-origin: 283.29px 301.195px;" id="elqpii2v005tq" class="animable"></polygon><g id="el3nhe6gxf69z"><polygon points="274.07 294.85 274.07 307.54 292.51 294.85 274.07 294.85" style="fill: rgb(255, 255, 255); opacity: 0.4; transform-origin: 283.29px 301.195px;" class="animable"></polygon></g><path d="M267.73,287.68h0l-9.49,4,9.49,4h51.41a1.33,1.33,0,0,0,1.33-1.32V289a1.33,1.33,0,0,0-1.33-1.32Z" style="fill: rgb(38, 50, 56); transform-origin: 289.355px 291.68px;" id="eli58vhxe6zi" class="animable"></path><g id="elo9v36x18vqi"><path d="M267.73,287.68h0l-9.49,4,9.49,4h51.41a1.33,1.33,0,0,0,1.33-1.32V289a1.33,1.33,0,0,0-1.33-1.32Z" style="fill: rgb(255, 255, 255); opacity: 0.6; transform-origin: 289.355px 291.68px;" class="animable"></path></g><g id="el12762i9zoamm"><polygon points="267.62 287.71 258.21 291.66 267.62 295.6 267.62 287.71" style="fill: rgb(255, 255, 255); opacity: 0.6; transform-origin: 262.915px 291.655px;" class="animable"></polygon></g><g id="el9lnvni39h5p"><polygon points="266.56 289.62 261.71 291.66 266.56 293.69 266.56 289.62" style="fill: rgb(116, 92, 219); opacity: 0.6; transform-origin: 264.135px 291.655px;" class="animable"></polygon></g><g id="elra13rhywnpr"><path d="M281.36,398.56H189.05V342.67h92.31Zm-91.31-1h90.31V343.67H190.05Z" style="opacity: 0.2; transform-origin: 235.205px 370.615px;" class="animable"></path></g><g id="el6zg8hrwvtkn"><rect x="183.43" y="406.74" width="103.65" height="1" style="opacity: 0.2; transform-origin: 235.255px 407.24px;" class="animable"></rect></g></g><defs>     <filter id="active" height="200%">         <feMorphology in="SourceAlpha" result="DILATED" operator="dilate" radius="2"></feMorphology>                <feFlood flood-color="#32DFEC" flood-opacity="1" result="PINK"></feFlood>        <feComposite in="PINK" in2="DILATED" operator="in" result="OUTLINE"></feComposite>        <feMerge>            <feMergeNode in="OUTLINE"></feMergeNode>            <feMergeNode in="SourceGraphic"></feMergeNode>        </feMerge>    </filter>    <filter id="hover" height="200%">        <feMorphology in="SourceAlpha" result="DILATED" operator="dilate" radius="2"></feMorphology>                <feFlood flood-color="#ff0000" flood-opacity="0.5" result="PINK"></feFlood>        <feComposite in="PINK" in2="DILATED" operator="in" result="OUTLINE"></feComposite>        <feMerge>            <feMergeNode in="OUTLINE"></feMergeNode>            <feMergeNode in="SourceGraphic"></feMergeNode>        </feMerge>            <feColorMatrix type="matrix" values="0   0   0   0   0                0   1   0   0   0                0   0   0   0   0                0   0   0   1   0 "></feColorMatrix>    </filter></defs></svg>